{"glyphs":{"0":{"ha":535,"x_min":0,"x_max":0,"o":"m 207 969 b 69 851 125 969 90 925 b 38 654 47 771 38 710 l 38 446 b 122 -42 38 282 75 -42 b 160 -24 133 -42 149 -24 b 183 -68 175 -24 183 -39 b 181 -119 183 -86 181 -94 b 203 -143 181 -135 189 -143 b 221 -115 215 -143 221 -133 b 240 -49 221 -53 224 -49 b 357 -103 271 -49 333 -54 b 375 -119 363 -114 367 -119 b 399 -81 392 -119 399 -103 b 396 -46 399 -75 396 -57 b 465 29 396 -19 447 -3 b 511 225 486 67 504 115 b 519 331 514 275 519 304 b 510 382 519 343 514 364 b 497 597 504 401 497 454 b 525 735 497 706 525 700 b 469 829 525 749 518 765 b 329 969 404 915 403 969 b 267 964 325 969 293 964 b 207 969 244 964 222 969 z m 217 782 b 224 765 222 782 224 778 b 222 722 224 758 222 732 b 249 674 222 686 231 674 b 304 743 272 674 279 743 b 315 719 311 743 315 735 b 303 663 315 703 303 679 b 328 342 303 556 328 431 b 321 247 328 310 325 276 b 278 113 306 135 299 113 b 196 357 199 113 242 188 b 186 429 189 382 186 406 b 203 506 186 454 189 481 b 239 567 218 531 239 539 b 204 667 239 588 204 647 b 207 688 204 674 207 676 b 193 754 207 693 193 726 b 217 782 193 772 206 782 z "},"1":{"ha":349,"x_min":0,"x_max":0,"o":"m 303 172 b 272 318 303 221 281 274 b 265 425 265 349 265 392 b 300 611 265 488 275 538 b 307 657 304 626 307 643 b 276 815 307 706 276 778 b 293 908 276 856 293 889 b 233 956 293 938 258 956 b 32 828 199 956 138 928 b 0 744 4 801 0 763 b 61 650 0 674 61 703 b 76 622 61 632 65 622 b 92 638 88 622 92 628 b 90 664 92 643 90 647 b 115 710 90 696 106 710 b 136 674 129 710 136 700 b 107 326 136 593 107 415 b 139 164 107 272 139 204 b 118 18 139 114 118 118 b 151 -53 118 -14 132 -53 b 176 -18 171 -53 163 -18 b 190 -51 190 -18 190 -46 b 181 -94 190 -64 181 -86 b 207 -139 181 -122 197 -139 b 222 -124 215 -139 222 -136 b 218 -82 222 -118 218 -96 b 279 13 218 -36 279 -61 b 274 64 279 28 274 36 b 303 172 274 121 303 121 z "},"2":{"ha":519,"x_min":0,"x_max":0,"o":"m 424 568 b 440 532 438 568 440 547 b 438 501 440 522 438 511 b 456 478 438 488 440 478 b 474 500 471 478 474 488 b 472 529 474 508 472 518 b 482 622 472 558 482 594 b 279 963 482 839 422 963 b 88 839 190 963 128 910 b 33 725 36 750 33 740 b 43 664 33 721 43 676 b 42 635 43 657 42 640 b 63 610 42 618 49 610 b 83 621 67 610 76 621 b 132 501 111 621 94 501 b 151 531 147 501 151 511 b 150 563 151 538 150 556 b 153 597 150 578 153 586 b 150 640 153 601 150 628 b 168 664 150 656 153 664 b 181 647 176 664 181 658 b 176 607 181 622 176 613 b 193 581 176 593 183 581 b 222 700 213 581 197 700 b 238 672 229 700 238 697 b 236 636 238 658 236 644 b 254 603 236 621 246 603 b 261 621 258 603 261 610 b 256 707 261 632 256 689 b 290 808 256 733 263 808 b 321 632 315 808 321 661 b 92 249 321 524 200 376 b 13 63 39 188 42 151 b 1 15 6 40 1 25 b 31 -26 1 0 8 -26 b 82 0 50 -26 65 0 b 124 -12 93 0 115 -12 b 139 -11 131 -12 135 -11 b 186 -83 157 -11 161 -83 b 231 -3 211 -83 210 -3 b 290 -137 282 -3 253 -137 b 313 -104 304 -137 313 -124 b 311 -67 313 -97 311 -76 b 342 -8 311 -53 314 -8 b 378 -26 353 -8 368 -26 b 419 -12 393 -25 406 -12 b 442 -40 426 -12 442 -14 b 439 -81 442 -50 439 -74 b 453 -100 439 -93 443 -100 b 469 -60 469 -100 469 -81 b 456 49 469 -32 456 21 b 475 110 456 61 475 96 b 453 132 475 126 461 132 b 422 122 440 132 433 122 b 336 154 399 122 368 154 b 283 139 325 154 294 139 b 254 172 264 139 254 153 b 269 239 254 203 264 222 b 314 333 276 258 281 269 b 367 435 358 421 350 435 b 375 415 372 435 375 429 b 372 375 375 404 372 389 b 388 339 372 343 376 339 b 424 568 407 339 403 568 z "},"3":{"ha":489,"x_min":0,"x_max":0,"o":"m 458 65 b 467 142 465 94 467 117 b 457 293 467 189 457 271 b 435 429 457 353 456 386 b 390 499 417 464 390 478 b 457 590 390 522 457 525 b 447 674 457 607 447 651 b 240 963 447 924 364 963 b 38 724 64 963 38 831 b 46 669 38 707 46 696 b 40 621 46 663 40 647 b 65 565 40 585 46 565 b 92 596 83 565 92 576 b 89 636 92 606 89 626 b 107 667 89 650 92 667 b 147 651 118 667 139 651 b 197 746 183 651 165 746 b 226 721 207 746 217 721 b 264 772 253 721 239 772 b 299 719 286 772 299 754 b 224 565 299 621 265 565 b 197 567 219 565 208 567 b 154 472 172 567 154 525 b 172 401 154 450 156 401 b 200 421 181 401 192 421 b 231 321 235 421 217 381 b 304 244 240 274 304 304 b 232 126 304 188 282 126 b 169 221 193 126 169 165 b 176 271 169 243 176 250 b 169 281 176 279 172 281 b 139 274 163 281 153 274 b 68 292 121 274 85 292 b 17 240 28 292 17 257 b 49 146 17 233 26 201 b 63 81 57 122 63 100 b 56 35 63 65 56 44 b 71 19 56 25 63 19 b 94 25 78 19 88 25 b 189 -39 138 25 161 4 b 193 -65 192 -42 193 -49 b 192 -86 193 -68 192 -78 b 203 -96 192 -92 196 -96 b 249 -39 224 -96 231 -39 b 261 -53 254 -39 261 -42 b 253 -158 261 -68 253 -119 b 276 -197 253 -183 258 -197 b 299 -162 293 -197 299 -179 b 290 -94 299 -144 290 -133 b 331 -18 290 -76 315 -18 b 347 -36 335 -18 347 -21 b 343 -62 347 -40 343 -57 b 354 -75 343 -71 347 -75 b 368 -64 363 -75 368 -71 b 365 -33 368 -58 365 -42 b 404 36 365 22 388 36 b 435 26 422 36 426 26 b 458 65 444 26 451 38 z "},"4":{"ha":525,"x_min":0,"x_max":0,"o":"m 488 150 b 513 215 501 150 513 193 b 501 331 513 236 501 260 b 456 381 501 376 478 374 b 383 549 432 386 383 513 b 415 610 383 565 394 610 b 435 601 424 610 431 601 b 446 626 442 601 446 607 b 413 746 446 683 413 708 b 433 888 413 828 433 854 b 346 953 433 936 394 953 b 274 924 324 953 290 951 b 235 839 256 896 249 865 b 26 304 100 572 26 456 b 50 138 26 224 50 182 b 81 85 50 115 50 85 b 93 103 90 85 93 92 b 83 176 93 115 83 160 b 129 217 83 210 103 217 b 190 143 157 217 161 143 b 226 215 219 143 192 215 b 263 163 253 215 263 197 b 251 49 263 144 251 65 b 293 -49 251 -7 293 -7 b 279 -125 293 -67 279 -114 b 303 -147 279 -140 288 -147 b 326 -111 322 -147 326 -136 b 325 -78 326 -104 325 -85 b 344 -44 325 -57 329 -44 b 378 -67 354 -44 367 -67 b 401 -29 397 -67 401 -46 b 394 69 401 -1 394 35 b 429 136 394 96 399 119 b 442 151 438 140 442 146 b 435 186 442 164 435 181 b 444 201 435 196 438 201 b 488 150 463 201 463 150 z m 263 317 b 217 361 249 317 231 361 b 183 354 211 361 189 354 b 163 383 169 354 163 369 b 176 403 163 393 168 403 b 201 389 186 403 196 389 b 214 403 211 389 214 394 b 204 458 214 419 204 444 b 213 467 204 464 207 467 b 244 442 224 467 238 442 b 258 471 253 442 258 447 b 254 526 258 499 254 513 b 263 553 254 538 256 553 b 281 506 272 553 281 536 b 275 403 281 442 275 435 b 276 367 275 390 276 379 b 263 317 276 333 272 317 z "},"5":{"ha":506,"x_min":0,"x_max":0,"o":"m 461 257 b 464 347 461 283 464 310 b 457 482 464 399 457 443 b 463 554 457 501 463 524 b 351 653 463 621 426 653 b 253 610 300 653 285 610 b 224 642 238 610 224 626 b 258 700 224 657 232 663 b 265 731 264 708 265 719 b 286 785 265 771 268 785 b 338 753 303 785 324 753 b 368 769 347 753 360 769 b 419 694 396 769 396 694 b 451 838 436 694 451 731 b 353 954 451 890 418 954 b 239 931 319 954 274 931 b 117 969 186 931 164 969 b 54 890 75 969 54 921 b 65 756 54 840 65 824 b 24 564 65 621 24 639 b 64 508 24 529 64 540 b 57 442 64 497 57 460 b 88 364 57 429 63 364 b 99 376 92 364 99 367 b 96 410 99 396 96 401 b 110 429 96 422 101 429 b 154 376 132 429 129 376 b 203 492 176 376 186 492 b 232 417 229 492 222 417 b 269 467 254 417 253 467 b 278 429 278 467 278 449 b 274 301 278 408 274 322 b 288 257 274 272 276 257 b 300 276 294 257 300 264 b 299 310 300 299 299 304 b 321 378 299 361 306 378 b 343 314 335 378 343 353 b 321 200 343 276 333 229 b 246 111 288 125 264 111 b 221 146 225 111 221 121 b 224 210 221 158 224 196 b 185 271 224 243 215 271 b 144 263 179 271 156 263 b 99 274 139 263 115 274 b 44 165 56 274 44 240 b 64 101 44 144 51 124 b 96 -1 94 42 96 31 b 94 -50 96 -14 94 -40 b 110 -89 94 -75 100 -89 b 135 -54 121 -89 135 -76 b 133 -25 135 -47 133 -31 b 156 7 133 0 146 7 b 192 -104 179 7 165 -104 b 232 -40 218 -104 218 -40 b 256 -112 250 -40 256 -68 b 249 -185 256 -126 249 -160 b 268 -203 249 -199 254 -203 b 301 -82 300 -203 301 -115 b 300 -47 301 -71 300 -54 b 347 -7 300 -14 314 -21 b 381 3 363 0 374 3 b 407 -22 389 3 407 -3 b 399 -67 407 -32 399 -58 b 415 -87 399 -82 410 -87 b 433 8 436 -87 428 -18 b 461 257 457 114 463 153 z "},"6":{"ha":535,"x_min":0,"x_max":0,"o":"m 521 301 b 486 413 521 343 492 393 b 400 568 467 468 475 568 b 285 581 331 568 332 581 b 221 539 253 581 251 539 b 176 603 189 539 176 583 b 226 756 176 658 199 647 b 264 794 233 781 243 794 b 296 736 283 794 274 736 b 333 761 304 736 319 761 b 363 656 356 761 363 726 b 372 628 363 640 363 628 b 394 674 386 628 375 674 b 408 660 404 674 408 669 b 406 614 408 651 406 631 b 426 593 406 594 413 593 b 444 615 438 593 444 600 b 439 649 444 624 439 643 b 451 669 439 665 444 669 b 468 667 457 669 463 667 b 493 733 483 667 493 674 b 483 785 493 747 490 767 b 272 974 438 911 361 974 b 165 938 242 974 193 938 b 54 796 100 938 54 879 b 63 676 54 750 63 710 b 35 472 63 622 53 521 b 21 425 24 444 21 435 b 85 369 21 401 85 406 b 56 222 85 292 56 269 b 79 156 56 183 79 179 b 64 114 79 133 64 136 b 89 61 64 92 72 79 b 167 -93 156 -17 119 -93 b 186 -72 178 -93 186 -85 b 176 -29 186 -60 176 -40 b 196 -14 176 -18 185 -14 b 285 -65 221 -14 258 -65 b 319 -171 318 -65 294 -171 b 333 -125 331 -171 333 -150 b 332 -92 333 -115 332 -103 b 356 -28 332 -81 336 -28 b 403 -96 382 -28 375 -96 b 414 -78 410 -96 414 -90 b 413 -42 414 -67 413 -54 b 461 53 413 -19 417 -10 b 479 103 472 69 479 88 b 476 132 479 114 476 118 b 493 196 476 151 493 169 b 481 254 493 225 481 235 b 521 301 481 278 521 243 z m 275 103 b 192 235 243 103 192 194 b 244 271 192 267 244 249 b 201 315 244 292 206 307 b 196 350 197 324 196 338 b 224 393 196 376 207 393 b 257 369 236 393 246 369 b 301 439 278 369 288 439 b 331 403 314 439 319 403 b 338 404 333 403 333 404 b 351 381 347 404 351 396 b 344 322 351 354 344 347 b 356 235 344 301 356 242 b 275 103 356 188 314 103 z "},"7":{"ha":417,"x_min":0,"x_max":0,"o":"m 411 685 b 406 785 411 708 406 707 b 410 896 406 839 410 876 b 358 949 410 936 392 949 b 167 932 292 949 228 932 b 38 975 132 932 76 975 b 13 951 22 975 13 967 b -14 742 13 844 -14 774 b 14 710 -14 717 1 710 b 58 801 56 710 36 801 b 71 781 67 801 71 794 b 67 732 71 772 67 743 b 83 710 67 718 72 710 b 151 765 110 710 106 765 b 213 714 176 765 213 746 b 197 638 213 697 197 661 b 147 336 197 557 157 414 b 92 81 140 282 124 154 b 61 -14 78 47 61 11 b 86 -79 61 -62 69 -79 b 133 -7 113 -79 99 -7 b 171 -29 147 -7 161 -29 b 217 -65 194 -29 189 -65 b 232 -18 229 -65 232 -49 b 228 40 232 13 228 29 b 253 110 228 85 232 110 b 279 101 264 110 271 101 b 301 128 294 101 301 111 b 279 244 301 136 279 217 b 292 339 279 311 283 339 b 315 265 304 339 304 265 b 336 460 332 265 331 418 b 340 513 339 476 340 494 b 332 611 340 533 332 596 b 389 669 332 644 342 669 b 411 685 403 669 411 675 z "},"8":{"ha":489,"x_min":0,"x_max":0,"o":"m 306 308 b 299 250 306 293 299 269 b 301 197 299 243 301 219 b 250 139 301 156 286 139 b 172 250 199 139 172 188 b 221 372 172 306 186 372 b 260 338 240 372 260 365 b 247 267 260 311 247 278 b 261 243 247 254 251 243 b 278 265 274 243 278 254 b 274 310 278 290 274 301 b 288 343 274 332 278 343 b 306 308 297 343 306 332 z m 301 768 b 311 688 307 732 311 706 b 231 563 311 631 278 563 b 176 690 200 563 176 613 b 181 736 176 706 178 722 l 188 776 b 193 782 188 779 189 782 b 204 754 199 782 204 769 b 200 715 204 750 200 725 b 210 700 200 706 203 700 b 246 794 246 700 221 794 b 263 761 260 794 251 761 b 288 794 274 761 276 794 b 301 768 300 794 300 782 z m 476 208 b 458 325 476 272 458 318 b 460 349 458 331 460 333 b 396 506 460 381 396 494 b 449 567 396 532 449 503 b 438 636 449 569 438 600 b 444 717 438 646 444 669 l 444 736 b 263 961 444 865 392 961 b 46 746 128 961 46 838 b 63 646 46 715 63 693 b 44 538 63 621 44 556 b 57 517 44 524 49 517 b 92 550 82 517 69 550 b 104 508 101 550 104 549 b 63 447 104 490 89 486 b 36 346 40 415 35 389 b 38 276 36 331 38 294 b 32 158 38 247 32 179 b 86 14 32 113 38 32 b 146 -31 122 1 124 1 b 207 -87 174 -74 203 -25 b 206 -111 207 -94 206 -103 b 221 -135 206 -126 211 -135 b 261 -67 243 -135 249 -67 b 283 -125 272 -67 283 -94 b 276 -187 283 -140 276 -167 b 301 -247 276 -217 283 -247 b 314 -221 310 -247 314 -237 b 310 -146 314 -211 310 -172 b 329 -40 310 -101 310 -40 b 354 -85 339 -40 342 -85 b 401 46 394 -85 382 19 b 450 94 411 60 440 79 b 476 208 472 132 475 163 z "},"9":{"ha":535,"x_min":0,"x_max":0,"o":"m 517 671 b 236 965 517 813 394 965 b 28 726 178 965 32 907 b 36 576 28 694 36 635 b 28 463 36 546 28 521 b 61 408 28 426 36 408 b 90 421 69 408 78 421 b 107 404 101 421 107 415 b 96 338 107 392 96 353 b 114 313 96 321 101 313 b 143 364 128 313 121 364 b 185 335 151 364 172 335 b 196 338 189 335 190 338 b 229 297 207 338 208 297 b 274 361 250 297 257 361 b 294 339 290 361 294 349 b 292 306 293 325 292 313 b 301 279 292 303 292 279 b 321 285 306 279 311 285 b 329 275 326 285 329 281 b 257 128 329 153 304 128 b 164 264 176 128 225 264 b 142 263 160 264 151 263 b 81 279 118 263 106 279 b 39 231 43 279 39 243 b 40 179 39 215 40 203 b 39 143 40 172 39 161 b 126 -47 39 88 92 -47 b 151 -15 142 -47 138 -15 b 186 -106 172 -15 186 -49 b 183 -167 186 -121 183 -140 b 196 -199 183 -187 188 -199 b 218 -165 210 -199 218 -182 b 200 -79 218 -157 200 -97 b 219 -62 200 -67 207 -62 b 250 -72 231 -62 240 -72 b 278 -21 267 -72 261 -21 b 328 -8 293 -21 317 -8 b 353 -37 349 -8 353 -22 b 350 -81 353 -64 350 -69 b 372 -110 350 -107 363 -110 b 392 -71 388 -110 392 -96 b 390 -32 392 -62 390 -40 b 450 114 390 3 401 31 b 486 276 474 154 486 208 b 475 456 486 422 482 410 b 464 533 469 492 464 528 b 469 549 464 543 465 549 b 493 525 476 549 485 525 b 506 547 503 525 506 533 b 501 578 506 556 501 568 b 517 671 501 597 517 638 z m 243 489 b 182 607 207 489 182 561 b 190 674 182 621 190 631 b 185 724 190 710 185 717 b 192 735 185 731 188 735 b 215 701 194 735 203 701 b 251 764 228 701 231 764 b 264 742 260 764 264 756 b 257 665 264 731 257 674 b 264 650 257 658 258 650 b 297 681 274 650 279 681 b 315 569 306 681 315 632 b 243 489 315 511 292 489 z "},"\u0017":{"ha":268,"x_min":0,"x_max":0,"o":""}," ":{"ha":268,"x_min":0,"x_max":0,"o":""},"!":{"ha":282,"x_min":0,"x_max":0,"o":"m 225 -11 b 236 108 231 72 236 97 b 207 154 236 136 224 154 b 178 151 196 154 185 151 b 106 165 153 151 113 165 b 49 103 65 165 49 125 b 65 -54 49 63 65 3 b 57 -115 65 -68 57 -104 b 79 -147 57 -129 65 -147 b 88 -122 85 -147 88 -140 b 83 -50 88 -74 83 -54 b 90 -28 83 -39 86 -28 b 124 -93 114 -28 99 -93 b 133 -81 129 -93 133 -90 b 129 -42 133 -74 129 -51 b 157 -14 129 -24 139 -14 b 207 -54 178 -14 181 -54 b 225 -11 219 -54 224 -40 z m 142 951 b 32 874 89 951 32 926 b 51 783 32 854 51 799 b 46 735 51 757 46 750 b 92 667 46 689 92 715 b 75 576 92 636 75 619 b 79 503 75 556 79 517 b 71 417 79 475 71 440 b 107 243 71 356 107 301 b 104 204 107 239 104 211 b 133 175 104 182 118 175 b 150 194 142 175 150 183 b 183 283 150 236 183 253 b 218 417 183 343 218 365 b 190 488 218 433 190 461 b 199 532 190 510 194 532 b 217 513 206 532 206 513 b 242 558 225 513 242 529 b 214 658 242 578 214 613 b 260 850 214 697 260 821 b 142 951 260 919 199 951 z "},"\"":{"ha":422,"x_min":0,"x_max":0,"o":"m 203 710 b 181 753 203 725 189 729 b 168 828 168 783 168 800 b 175 897 168 836 175 865 b 118 954 175 933 150 954 b 46 871 75 954 46 921 b 33 594 46 757 43 707 b 26 558 33 589 26 565 b 43 542 26 547 36 542 b 74 549 50 542 67 549 b 93 528 86 549 93 542 b 85 474 93 526 85 490 b 104 454 85 458 99 454 b 119 481 114 454 119 464 b 182 608 119 531 182 560 b 172 654 182 621 172 635 b 203 710 172 664 203 688 z m 394 751 b 381 853 394 772 381 821 b 385 890 381 863 385 885 b 304 936 385 931 333 936 b 232 842 235 936 232 896 b 253 742 232 813 253 751 b 249 643 253 717 249 665 l 249 625 b 285 532 249 593 285 558 b 304 514 285 519 293 514 b 333 542 326 514 317 542 b 369 450 360 542 339 450 b 385 467 379 450 385 458 b 375 517 385 476 375 506 b 372 585 375 540 372 568 b 394 751 372 661 394 704 z "},"#":{"ha":1013,"x_min":0,"x_max":0,"o":"m 782 964 b 696 806 701 964 696 818 b 574 653 696 717 654 653 b 531 686 539 653 531 674 b 589 731 531 713 589 697 b 567 806 589 751 567 781 b 600 926 567 838 600 910 b 536 974 600 954 563 974 b 418 843 485 974 432 924 b 340 678 407 778 382 678 b 239 697 304 678 272 697 b 104 590 175 697 104 621 b 118 564 104 579 110 569 b 165 478 154 536 161 531 b 176 465 167 469 171 465 b 261 496 190 465 246 496 b 289 463 281 496 289 472 b 190 435 289 444 256 439 b 57 328 106 428 85 399 b 17 246 39 283 17 257 b 69 204 17 213 69 239 b 68 179 69 199 68 185 b 86 160 68 167 74 160 b 171 276 131 160 94 276 b 226 236 197 276 226 258 b 115 0 226 208 119 18 b 114 -17 114 -6 114 -11 b 147 -78 114 -44 125 -78 b 172 -40 163 -78 161 -40 b 224 -133 203 -40 197 -133 b 238 -117 232 -133 238 -126 b 232 -61 238 -101 232 -78 b 271 -7 232 -26 264 -49 b 314 71 275 18 303 51 b 339 125 333 103 339 114 b 338 161 339 135 338 144 b 382 253 338 236 351 253 b 428 186 403 253 401 186 b 461 196 436 186 458 196 b 474 168 468 196 474 189 b 419 28 474 93 419 64 b 464 -53 419 3 438 -53 b 507 -21 483 -53 489 -21 b 538 -64 528 -21 538 -42 b 536 -86 538 -71 536 -79 b 556 -121 536 -103 540 -118 b 585 -67 569 -121 579 -86 b 606 108 593 -39 592 8 b 674 210 610 143 649 210 b 694 179 682 210 694 199 b 678 117 694 165 678 126 b 699 99 678 107 683 99 b 724 151 710 99 724 110 b 768 257 724 250 743 257 b 807 250 774 257 781 250 b 853 226 833 250 853 243 b 843 171 853 211 843 186 b 861 147 843 156 853 147 b 893 219 876 147 893 186 b 881 294 893 242 881 260 b 906 394 881 331 906 358 b 900 401 906 400 904 401 b 871 396 894 401 882 396 b 801 418 842 396 832 418 b 733 408 792 418 781 408 b 714 435 721 408 714 419 b 774 515 714 478 749 515 b 850 486 797 515 817 486 b 899 536 885 486 867 536 b 936 421 922 536 914 421 b 971 488 963 421 971 450 b 967 540 971 513 967 531 b 983 636 967 558 983 593 b 939 679 983 669 963 679 b 867 668 914 679 889 668 b 836 722 853 668 836 678 b 857 789 836 754 847 789 b 881 744 861 789 872 744 b 893 921 893 744 893 897 b 876 958 893 946 888 958 b 843 951 864 958 854 951 b 782 964 821 951 792 964 z m 603 433 b 521 367 603 376 553 367 b 417 425 454 367 417 383 b 454 475 417 453 432 475 b 493 407 486 475 465 407 b 544 532 511 407 514 532 b 603 433 586 532 603 472 z "},"$":{"ha":535,"x_min":0,"x_max":0,"o":"m 526 289 b 460 401 526 314 475 383 b 317 599 394 474 317 551 b 328 657 317 611 328 635 b 321 707 328 683 321 682 b 340 728 321 722 326 728 b 397 594 376 728 346 594 b 425 647 414 594 425 617 b 413 719 425 675 413 701 b 429 739 413 732 419 739 b 472 649 460 739 454 649 b 493 789 492 649 493 703 b 403 944 493 860 463 918 b 297 1043 314 985 304 976 b 268 1090 293 1074 278 1090 b 207 1015 243 1090 207 1061 b 211 992 207 1010 211 999 b 149 944 211 967 172 951 b 51 760 125 938 51 888 b 117 454 51 647 88 578 b 138 382 125 421 124 382 b 175 443 150 382 164 443 b 218 331 194 443 218 363 b 197 246 218 282 197 268 b 206 199 197 231 206 214 b 181 165 206 185 197 165 b 135 232 169 165 156 232 b 60 47 83 232 60 111 b 83 -69 60 -12 71 -69 b 97 -31 89 -69 97 -53 b 96 10 97 -21 96 -1 b 104 28 96 21 99 28 b 136 -24 128 28 118 -24 b 163 -15 143 -24 156 -15 b 188 -161 181 -15 188 -62 b 186 -214 188 -169 186 -192 b 200 -267 186 -240 189 -267 b 218 -236 213 -267 218 -246 b 217 -211 218 -229 217 -217 b 244 -172 217 -189 224 -172 b 271 -229 267 -172 271 -210 b 269 -260 271 -239 269 -249 b 290 -293 269 -279 274 -293 b 319 -253 310 -293 319 -279 b 306 -137 319 -211 306 -144 b 340 -32 306 -104 306 -32 b 421 -60 356 -32 411 -60 b 454 -24 447 -60 454 -36 b 447 28 454 -12 447 15 b 496 106 447 60 489 92 b 510 186 503 122 508 154 b 526 289 513 239 525 264 z m 215 621 b 172 681 199 621 172 654 b 213 743 172 733 203 743 b 232 701 225 743 232 729 b 215 621 232 675 225 621 z m 347 232 b 356 221 353 232 356 225 b 329 132 356 194 353 132 b 294 254 307 132 294 207 b 297 271 294 265 296 271 b 322 203 304 271 307 203 b 347 232 336 203 335 232 z "},"%":{"ha":682,"x_min":0,"x_max":0,"o":"m 356 276 b 392 228 381 276 392 249 b 357 79 392 179 357 125 b 379 18 357 53 357 51 b 411 -67 400 -15 371 -67 b 440 -40 426 -67 435 -40 b 488 -115 461 -40 468 -115 b 525 -50 515 -115 490 -50 b 568 -65 540 -50 542 -65 b 615 -31 582 -65 604 -31 b 660 -82 644 -31 653 -82 b 683 39 674 -82 661 -8 b 693 72 690 50 693 61 b 686 146 693 97 686 121 b 692 276 686 172 692 225 b 592 503 692 340 690 503 b 528 494 586 503 544 494 b 475 549 497 494 475 514 b 528 696 475 576 501 696 b 544 665 542 696 544 679 b 542 635 544 654 542 644 b 568 581 542 622 542 581 b 594 607 585 581 594 590 b 576 738 594 640 576 658 b 626 886 576 772 626 863 b 533 960 626 931 565 960 b 442 890 496 960 453 942 b 399 713 417 781 413 808 b 344 586 386 628 371 586 b 303 622 318 586 303 601 b 326 814 303 692 326 703 b 147 969 326 907 206 969 b 18 799 63 969 42 913 b 3 682 10 757 3 721 b 18 458 3 626 18 490 b 11 325 18 435 11 388 b 35 263 11 279 19 263 b 90 463 68 263 49 463 b 132 356 104 463 132 449 b 146 313 132 328 138 313 b 169 392 167 313 169 375 b 225 475 169 460 196 475 b 274 442 256 475 274 457 b 229 356 274 413 246 388 b 188 224 210 317 214 224 b 153 232 178 224 165 232 b 93 115 128 232 104 161 b 42 17 76 51 42 42 b 63 -29 42 11 44 4 b 78 -46 68 -40 74 -46 b 97 -25 83 -46 92 -25 b 136 -133 101 -25 115 -133 b 178 -72 157 -133 160 -72 b 217 -114 189 -72 199 -114 b 267 72 236 -114 211 72 b 299 28 282 72 281 28 b 336 71 324 28 336 40 b 321 199 336 75 321 132 b 356 276 321 229 332 276 z m 172 838 b 197 794 194 838 197 821 b 151 618 197 775 197 618 b 119 664 126 618 119 633 b 122 713 119 678 122 696 b 119 778 122 738 119 763 b 172 838 119 826 157 838 z m 522 272 b 554 189 547 272 554 238 b 568 99 554 158 568 118 b 522 72 568 79 535 72 b 493 99 507 72 493 82 b 522 272 493 225 506 272 z "},"&":{"ha":581,"x_min":0,"x_max":0,"o":"m 294 169 b 264 154 294 160 281 154 b 167 208 221 154 167 172 b 190 254 167 235 181 254 b 224 197 211 254 210 197 b 250 215 239 197 240 215 b 294 169 281 215 294 192 z m 243 850 b 265 828 254 850 265 838 b 261 790 265 824 261 801 b 296 743 261 769 296 761 b 240 613 296 664 272 613 b 199 658 214 613 199 633 b 243 850 199 710 214 850 z m 469 -85 b 490 -65 485 -85 490 -78 b 486 -31 490 -50 486 -42 b 497 -18 486 -22 489 -18 b 540 -106 525 -18 513 -106 b 560 -72 553 -106 560 -94 b 549 64 560 -17 549 33 b 554 118 549 83 554 92 b 488 172 554 146 488 149 b 499 179 488 176 490 179 b 524 176 508 179 514 176 b 563 224 554 176 563 199 b 556 289 563 231 556 253 b 576 390 556 347 576 369 b 517 453 576 443 557 453 b 440 456 492 453 453 456 b 382 318 403 456 428 318 b 314 393 338 318 314 365 b 369 457 314 451 369 399 b 357 519 369 465 357 496 b 389 590 357 557 367 590 b 418 558 400 590 403 558 b 443 718 435 558 443 711 b 263 972 443 869 381 972 b 69 742 129 972 69 844 b 90 660 69 726 75 700 b 99 613 94 644 99 628 b 94 574 99 597 94 586 b 118 483 94 547 118 525 b 86 376 118 449 107 413 b 10 172 10 239 10 236 b 36 72 10 126 15 90 b 96 6 89 24 96 13 b 93 -24 96 -1 93 -10 b 111 -50 93 -40 99 -50 b 178 -3 131 -50 156 -3 b 253 -31 189 -3 235 -31 b 300 -18 264 -31 285 -18 b 318 -61 311 -19 318 -35 b 317 -90 318 -64 317 -72 b 331 -115 317 -107 322 -115 b 349 -87 342 -115 349 -97 b 344 -49 349 -81 344 -58 b 382 42 344 -17 356 42 b 436 -14 408 42 429 7 b 469 -85 444 -43 443 -85 z "},"'":{"ha":215,"x_min":0,"x_max":0,"o":"m 193 749 b 168 825 193 757 168 799 b 189 911 168 847 189 903 b 168 932 189 928 182 932 b 132 929 157 932 144 929 b 83 943 119 929 100 943 b 33 871 47 943 33 919 b 36 794 33 863 36 814 b 13 738 36 760 13 751 b 40 594 13 700 40 692 b 51 540 40 565 49 550 b 83 394 72 460 63 394 b 113 501 110 394 113 440 b 110 526 113 510 110 518 b 124 544 110 539 114 544 b 144 489 143 544 144 519 b 138 436 144 475 138 443 b 149 421 138 426 142 421 b 169 517 165 421 169 488 b 158 675 169 593 158 622 b 181 718 158 683 160 693 b 193 749 190 726 193 738 z "},"(":{"ha":408,"x_min":0,"x_max":0,"o":"m 367 -142 b 400 -53 397 -142 400 -81 b 336 88 400 -1 385 -56 b 250 508 253 333 250 411 b 293 776 250 615 281 703 b 319 839 299 807 308 839 b 342 806 335 839 342 819 b 340 768 342 790 340 782 b 346 754 340 758 343 754 b 369 785 367 754 369 776 b 363 843 369 797 363 836 b 404 969 363 907 404 942 b 368 1007 404 990 389 1003 b 288 1026 333 1014 299 1026 b 213 953 250 1026 233 1006 b 108 656 136 753 119 703 b 85 494 92 585 85 543 b 108 379 85 469 88 442 b 250 -14 178 171 85 214 b 310 -115 267 -37 275 -115 b 347 -106 319 -115 339 -106 b 357 -117 354 -106 357 -110 b 354 -135 357 -117 354 -129 b 367 -142 354 -139 358 -142 z "},")":{"ha":421,"x_min":0,"x_max":0,"o":"m 326 600 b 274 676 326 624 274 661 b 290 692 274 685 290 682 b 239 856 290 710 276 711 b 161 1010 215 944 189 997 b 57 1029 135 1021 96 1029 b 6 985 26 1029 6 1013 b 21 938 6 967 13 951 b 97 757 50 889 47 910 b 110 689 104 733 110 711 b 103 625 110 674 103 656 b 122 597 103 611 111 597 b 132 615 129 597 132 607 b 131 632 132 624 131 629 b 144 650 131 644 135 650 b 163 593 156 650 163 631 b 153 444 158 557 157 499 b 118 176 146 361 157 311 b 36 51 117 169 89 125 b 8 -32 15 22 8 -7 b 46 -106 8 -67 21 -106 b 78 -86 63 -106 71 -86 b 118 -150 101 -86 100 -150 b 135 -97 133 -150 135 -121 b 156 -14 135 -62 138 -50 b 194 50 172 19 186 13 b 215 76 199 68 204 76 b 233 68 221 76 228 68 b 271 176 260 68 250 119 b 306 347 303 269 301 308 b 310 442 308 374 310 406 b 300 542 310 454 300 500 b 326 600 300 568 326 585 z "},"*":{"ha":507,"x_min":0,"x_max":0,"o":"m 481 669 b 456 829 481 704 456 742 b 432 857 456 849 451 857 b 304 760 397 857 325 760 b 293 788 294 760 293 782 b 339 918 293 813 339 901 b 318 935 339 929 332 935 b 188 950 261 935 208 950 b 176 933 181 950 176 944 b 179 900 176 922 179 910 b 176 878 179 893 176 883 b 200 801 176 844 200 826 b 181 786 200 793 196 786 b 74 854 122 786 97 854 b 25 710 35 854 25 731 b 54 588 25 650 40 588 b 119 713 86 588 64 713 b 171 675 136 713 171 699 b 76 576 171 650 96 642 b 69 533 71 560 71 544 b 97 497 69 510 79 497 b 129 524 110 501 119 524 b 176 449 140 524 176 499 b 174 411 176 435 174 421 b 192 393 174 400 179 393 b 215 428 201 393 215 397 b 213 474 215 432 213 461 b 214 496 213 486 214 489 b 208 547 214 506 208 538 b 247 624 208 601 232 624 b 336 474 310 624 303 474 b 371 518 350 474 353 518 b 406 424 403 518 379 424 b 446 475 435 424 446 454 b 424 569 446 497 439 510 b 374 647 418 589 374 638 b 381 654 374 651 376 654 b 446 601 410 654 431 601 b 481 669 465 601 481 628 z "},"+":{"ha":650,"x_min":0,"x_max":0,"o":"m 254 308 b 286 163 254 246 286 179 b 283 115 286 156 283 126 b 294 93 283 100 288 93 b 319 185 306 93 306 185 b 326 143 324 185 326 171 b 324 99 326 126 324 114 b 332 79 324 83 326 79 b 350 117 344 79 350 94 b 344 175 350 126 344 154 b 386 214 344 199 386 185 b 374 304 386 240 374 263 b 357 367 374 324 363 339 b 379 399 357 400 369 396 b 407 379 386 388 393 379 b 453 417 431 379 442 399 b 478 414 463 414 471 414 b 543 433 510 414 510 433 b 589 415 564 433 571 415 b 636 496 632 415 636 465 b 604 561 636 514 636 561 l 375 561 b 369 649 372 596 369 629 b 378 757 369 682 378 728 b 336 854 378 835 350 854 b 306 840 325 854 313 840 b 268 858 294 840 283 858 b 247 821 254 858 247 846 b 254 746 247 799 254 778 b 240 644 254 725 240 649 b 261 561 240 614 254 589 l 43 561 b 11 457 7 561 11 490 b 47 379 11 419 14 379 b 89 425 69 379 83 408 b 151 415 114 425 129 415 b 206 439 174 415 182 439 b 261 432 225 439 242 433 b 264 381 261 418 264 401 b 254 308 264 357 254 332 z "},",":{"ha":282,"x_min":0,"x_max":0,"o":"m 240 124 b 211 153 240 149 226 153 b 171 150 206 153 196 150 b 79 172 104 150 93 172 b 56 146 68 172 56 167 b 58 111 56 138 58 119 b 42 40 58 83 42 61 b 78 -57 42 -3 58 -57 b 103 -6 99 -57 92 -6 b 118 -36 117 -6 118 -15 b 83 -124 118 -53 115 -74 b 68 -186 71 -143 68 -164 l 68 -201 b 108 -275 68 -235 85 -275 b 181 -110 131 -275 140 -185 b 235 18 204 -67 235 -28 b 222 71 235 26 222 50 b 240 124 222 86 240 110 z "},"-":{"ha":408,"x_min":0,"x_max":0,"o":"m 307 488 b 156 472 290 488 221 472 b 54 492 118 472 88 492 b 13 435 26 492 13 465 b 50 374 13 397 31 390 b 92 336 67 358 74 336 b 149 358 118 336 119 358 b 260 301 243 358 239 301 b 303 349 275 301 286 349 b 346 315 306 349 331 315 b 363 361 367 315 356 340 b 385 428 369 381 385 408 b 307 488 385 469 342 488 z "},".":{"ha":282,"x_min":0,"x_max":0,"o":"m 246 138 b 208 160 246 158 236 160 b 200 158 206 160 203 160 l 186 158 b 83 171 157 158 96 171 b 44 103 51 171 44 146 b 46 54 44 92 46 64 l 46 13 b 63 -60 46 -19 46 -60 b 92 -6 79 -60 78 -6 b 124 -43 107 -6 110 -43 b 157 -17 135 -43 146 -17 b 194 -43 169 -17 181 -43 b 236 0 207 -43 236 -28 b 224 54 236 10 224 39 b 246 138 224 76 246 128 z "},"/":{"ha":506,"x_min":0,"x_max":0,"o":"m 488 946 b 465 960 482 958 476 960 b 414 950 456 960 421 950 b 376 960 406 950 382 960 b 331 843 344 960 350 931 b 281 646 315 778 285 660 b 160 358 251 549 196 447 b 40 0 113 240 57 32 b -7 -67 32 -17 21 -28 b -21 -104 -18 -82 -21 -94 b 0 -160 -21 -119 -17 -118 b 19 -185 4 -172 13 -185 b 53 -154 31 -185 42 -154 b 92 -267 81 -154 57 -267 b 121 -83 118 -267 94 -83 b 158 -132 132 -83 136 -132 b 175 -58 169 -132 175 -118 b 168 22 175 -26 168 6 b 185 118 168 54 172 86 b 324 485 231 242 235 274 b 390 686 354 557 381 608 b 411 750 396 728 403 750 b 432 722 426 750 432 733 b 429 690 432 718 429 700 b 450 665 429 675 439 665 b 494 849 475 665 453 713 b 503 893 500 865 503 881 b 488 946 503 913 497 931 z "},":":{"ha":282,"x_min":0,"x_max":0,"o":"m 246 114 b 222 186 246 132 224 176 b 193 208 221 200 211 208 b 157 204 186 208 176 204 b 92 222 132 204 115 222 b 54 172 65 222 54 199 b 74 -8 54 147 57 -8 b 103 43 92 -8 74 43 b 147 0 113 43 138 0 b 163 13 157 0 163 4 b 161 26 163 17 161 22 b 168 42 161 36 165 42 b 196 26 175 42 192 26 b 208 54 204 26 208 32 b 207 88 208 64 207 82 b 210 94 207 92 208 94 b 229 57 219 94 215 57 b 246 114 240 57 246 83 z m 225 465 b 224 497 225 476 224 486 b 229 563 224 514 229 550 b 199 600 229 583 219 600 b 172 594 192 600 178 594 b 125 597 164 594 138 594 b 88 614 115 600 97 614 b 51 554 60 614 51 592 b 86 421 51 536 53 421 b 117 435 94 421 103 435 b 147 381 132 435 133 381 b 181 435 157 381 171 435 b 211 422 196 435 206 422 b 225 465 218 422 225 440 z "},";":{"ha":282,"x_min":0,"x_max":0,"o":"m 168 168 b 94 160 146 168 119 160 b 65 124 74 160 65 154 b 53 53 65 103 53 85 b 85 -28 53 42 64 -28 b 111 -22 89 -28 101 -22 b 115 -25 114 -22 115 -24 b 75 -103 115 -36 76 -103 b 63 -151 68 -119 63 -137 b 81 -194 63 -175 74 -194 b 93 -168 92 -194 86 -168 b 121 -251 94 -168 97 -251 b 142 -226 138 -251 142 -244 b 138 -179 142 -218 138 -190 b 213 26 138 -150 150 -124 b 232 104 225 57 232 85 b 168 168 232 140 207 168 z m 214 524 b 215 543 214 531 215 539 b 171 579 215 567 203 579 b 92 574 149 579 144 574 b 51 525 56 574 51 551 b 60 442 51 519 60 501 b 57 413 60 433 57 418 b 68 397 57 401 63 397 b 111 408 81 397 93 408 b 143 350 126 408 140 390 b 153 329 144 333 149 329 b 171 357 167 329 171 347 b 168 389 171 363 168 382 b 179 411 168 401 171 411 b 204 407 185 411 194 407 b 225 450 218 407 225 426 b 214 524 225 464 214 500 z "},"<":{"ha":650,"x_min":0,"x_max":0,"o":"m 71 594 b 11 511 18 581 11 549 b 51 388 11 451 25 388 b 86 396 64 388 74 396 b 178 356 133 396 121 356 b 218 306 182 335 192 306 b 288 347 244 306 256 347 b 354 324 310 347 329 331 b 422 313 378 317 400 319 b 469 276 446 306 447 282 b 532 269 490 271 508 276 b 568 213 533 249 540 213 b 631 354 601 213 626 285 b 611 389 631 371 625 385 l 263 481 b 238 500 244 485 238 492 b 286 519 238 517 269 514 b 351 543 310 526 329 543 b 421 500 383 543 394 500 b 463 550 447 500 458 528 b 553 590 521 550 507 590 b 588 582 567 590 576 582 b 625 632 617 582 625 611 b 578 731 625 646 617 731 b 571 729 575 731 574 729 z "},"=":{"ha":650,"x_min":0,"x_max":0,"o":"m 43 422 b 11 342 14 422 11 376 b 47 240 11 299 7 240 b 89 286 69 240 83 269 b 151 276 114 286 129 276 b 206 300 174 276 182 300 b 275 293 229 300 250 293 b 335 300 297 293 314 300 b 407 240 379 300 372 240 b 453 278 431 240 442 260 b 478 275 463 275 471 275 b 543 294 510 275 510 294 b 589 276 564 294 571 276 b 636 357 632 276 636 326 b 604 422 636 375 636 422 z m 43 700 b 11 619 14 700 11 654 b 47 518 11 576 7 518 b 89 564 69 518 83 547 b 151 554 114 564 129 554 b 206 578 174 554 182 578 b 275 571 229 578 250 571 b 335 578 297 571 314 578 b 407 518 379 578 372 518 b 453 556 431 518 442 538 b 478 553 463 553 471 553 b 543 572 510 553 510 572 b 589 554 564 572 571 554 b 636 635 632 554 636 604 b 604 700 636 653 636 700 z "},">":{"ha":650,"x_min":0,"x_max":0,"o":"m 71 729 b 64 731 68 729 67 731 b 17 632 25 731 17 646 b 54 582 17 611 25 582 b 89 590 65 582 75 590 b 179 550 135 590 121 550 b 221 500 183 528 194 500 b 290 543 247 500 258 543 b 356 519 313 543 332 526 b 404 500 372 514 404 517 b 379 481 404 492 397 485 l 31 389 b 11 354 17 385 11 371 b 74 213 15 285 40 213 b 110 269 101 213 108 249 b 172 276 133 276 151 271 b 219 313 194 282 196 306 b 288 324 242 319 264 317 b 354 347 313 331 332 347 b 424 306 386 347 397 306 b 464 356 450 306 460 335 b 556 396 521 356 508 396 b 590 388 568 396 578 388 b 631 511 617 388 631 451 b 571 594 631 549 624 581 z "},"?":{"ha":406,"x_min":0,"x_max":0,"o":"m 282 3 b 265 51 282 13 265 38 b 276 125 265 82 276 85 b 256 154 276 144 265 154 b 214 147 250 154 224 147 b 171 149 199 147 188 149 b 101 29 108 149 101 128 l 101 8 b 124 -25 101 -10 108 -25 b 146 17 142 -25 139 17 b 186 -110 156 17 156 -110 b 228 -18 226 -110 194 -18 b 261 -21 233 -18 254 -21 b 282 3 275 -21 282 -8 z m 232 961 b 194 960 225 961 221 960 b 146 967 182 960 160 967 b -11 801 72 967 -11 903 b 0 719 -11 778 0 750 b -1 689 0 708 -1 700 b 19 654 -1 668 3 654 b 49 742 43 654 32 742 b 54 717 53 742 54 733 b 50 614 54 707 50 665 b 69 543 50 568 57 543 b 103 597 92 543 103 567 b 92 686 103 607 92 650 b 101 703 92 699 94 703 b 138 651 124 703 122 651 b 147 685 144 651 147 663 b 144 763 147 700 144 750 b 150 788 144 779 146 788 b 186 731 172 788 156 731 b 210 806 206 731 189 806 b 247 731 231 806 247 757 b 147 525 247 678 169 613 b 93 303 129 450 93 372 b 118 253 93 283 103 253 b 138 258 122 253 128 258 b 150 233 147 258 150 249 b 149 197 150 221 149 210 b 163 168 149 179 156 168 b 193 249 181 168 164 249 b 225 231 204 249 221 231 b 265 315 258 231 265 290 b 256 392 265 335 256 372 b 329 594 256 453 307 594 b 351 533 339 594 328 533 b 376 568 369 533 376 543 b 371 638 376 578 371 624 b 393 778 371 683 393 757 b 232 961 393 865 318 961 z "},"@":{"ha":1304,"x_min":0,"x_max":0,"o":"m 1254 490 b 711 922 1254 768 878 922 b 67 369 358 922 67 675 b 90 200 67 318 74 268 b 119 -53 118 81 119 63 b 158 -186 119 -160 131 -186 b 222 -122 185 -186 206 -167 b 299 -64 242 -68 275 -64 b 560 -257 378 -64 451 -257 b 668 -194 594 -257 607 -211 b 1117 -72 789 -161 1117 -133 b 1008 -15 1117 -39 1068 -15 b 649 -93 914 -15 763 -93 b 163 478 256 -93 163 136 b 226 589 163 558 181 589 b 338 521 250 589 310 521 b 378 596 367 521 378 540 b 376 663 378 611 376 647 b 518 843 376 754 472 843 b 571 782 538 843 567 838 b 608 732 572 746 586 732 b 699 857 650 732 663 857 b 824 707 768 857 719 707 b 997 757 885 707 936 757 b 1149 489 1096 757 1149 692 b 949 172 1149 340 1088 172 b 831 307 901 172 831 264 b 914 576 831 379 914 522 b 857 621 914 619 874 621 b 707 581 803 621 760 581 b 576 585 644 581 592 585 b 356 349 428 585 356 461 b 408 129 356 283 381 208 b 478 -24 428 72 432 -24 b 560 74 522 -24 524 74 b 640 31 589 74 617 31 b 693 68 657 31 675 43 b 771 149 731 122 756 149 b 813 85 796 149 813 132 b 810 19 813 78 810 40 b 844 -22 810 -8 817 -22 b 925 108 885 -22 872 108 b 1021 49 946 108 1000 49 b 1108 149 1068 49 1061 149 b 1131 104 1125 149 1131 129 b 1124 14 1131 75 1124 39 b 1178 -67 1124 -28 1142 -67 b 1204 54 1200 -67 1204 -25 b 1190 174 1204 101 1190 142 b 1254 490 1190 288 1254 382 z m 757 307 b 579 153 715 224 643 153 b 469 382 503 153 469 218 b 526 486 469 453 488 486 b 564 440 540 486 564 475 b 558 358 564 407 558 379 b 594 306 558 326 571 306 b 647 507 646 306 621 507 b 704 446 671 507 668 446 b 772 503 728 446 733 503 b 797 460 789 503 797 488 b 757 307 797 415 778 351 z "},"A":{"ha":508,"x_min":0,"x_max":0,"o":"m 174 957 b 115 690 125 957 132 782 b 82 475 89 547 99 532 b 68 414 74 449 68 428 b 75 390 68 401 75 399 b 69 357 75 383 74 372 l 39 231 l 26 169 b 22 68 21 144 22 103 b 13 -32 22 1 13 -7 b 28 -49 13 -43 18 -49 b 64 -14 39 -49 53 -14 b 106 -85 92 -14 69 -85 b 125 -40 125 -85 125 -62 b 178 49 125 46 178 0 b 168 94 178 65 168 83 b 196 131 168 113 196 119 b 188 171 196 150 188 151 b 197 188 188 181 192 188 b 251 138 208 188 233 138 b 290 200 275 138 271 200 b 318 122 311 200 318 167 b 335 11 318 81 333 43 b 361 -110 336 -36 335 -110 b 378 -83 369 -110 378 -101 b 374 -37 378 -68 374 -47 b 382 -12 374 -21 376 -14 b 415 -75 397 -12 396 -75 b 446 -14 436 -75 422 -14 b 458 -31 454 -14 458 -18 b 456 -61 458 -39 456 -51 b 478 -85 456 -76 461 -85 b 513 -28 500 -85 513 -67 b 481 131 513 13 508 28 b 461 247 464 188 461 226 b 431 408 461 304 431 331 b 386 642 431 497 386 636 b 378 743 381 674 378 708 b 383 797 378 758 383 785 b 374 851 382 813 378 833 l 361 897 b 328 954 350 940 353 954 b 247 936 304 954 286 936 b 174 957 219 936 190 953 z m 232 518 b 251 450 247 518 232 450 b 275 499 269 450 261 499 b 286 396 281 499 286 489 b 292 351 286 376 292 361 b 250 333 292 342 282 333 b 207 350 222 333 207 339 b 217 385 207 371 217 379 b 207 422 215 394 207 403 b 232 518 207 456 215 518 z "},"B":{"ha":558,"x_min":0,"x_max":0,"o":"m 367 186 b 278 135 367 165 331 135 b 251 158 269 135 269 158 b 236 156 247 158 240 156 b 222 176 226 156 222 165 b 213 231 222 207 213 214 b 224 246 213 240 215 246 b 251 235 232 246 246 235 b 263 244 258 235 263 238 b 239 318 263 257 239 282 b 269 396 239 365 257 396 b 281 378 278 396 281 392 b 276 339 281 357 276 349 b 300 290 276 313 286 290 b 321 347 318 290 301 347 b 343 315 335 347 343 335 b 329 224 343 296 329 257 b 367 186 328 203 365 208 z m 351 674 b 339 629 351 664 339 644 b 344 600 339 621 344 610 b 300 535 344 568 325 535 b 207 610 275 535 207 560 b 226 674 207 631 226 651 b 224 708 226 682 224 694 b 242 789 224 731 225 789 b 265 744 257 789 250 744 b 288 781 272 744 265 781 b 322 758 304 781 322 774 b 306 682 322 725 306 706 b 322 664 306 665 319 664 b 347 690 333 664 344 690 b 351 674 350 690 351 686 z m 515 178 b 519 272 517 217 519 242 b 493 361 519 307 518 336 b 481 381 485 371 481 376 b 488 401 481 385 488 390 b 413 471 488 429 413 429 b 431 481 413 482 415 481 b 460 499 447 481 449 499 b 478 490 468 499 468 490 b 507 603 504 490 493 533 b 515 683 514 639 515 664 b 506 776 515 689 506 722 b 367 914 506 832 454 893 b 304 940 360 915 324 940 b 247 931 289 940 258 931 b 207 940 238 931 211 940 b 154 931 186 940 164 931 b 113 942 143 931 121 942 b 61 878 88 942 61 910 b 71 775 61 876 71 825 b 64 718 71 764 64 732 b 47 617 64 672 47 647 b 58 576 47 594 49 576 b 93 633 75 576 74 633 b 101 594 99 633 101 621 b 83 350 101 572 100 518 b 58 171 69 218 58 206 b 74 118 58 149 74 150 b 61 0 74 71 61 39 b 94 -57 61 -25 94 -14 b 126 -92 94 -87 118 -92 b 164 -4 156 -92 132 -4 b 207 -99 186 -4 167 -99 b 228 -69 224 -99 228 -83 b 224 -21 228 -60 224 -37 b 236 6 224 -10 225 6 b 269 -17 250 6 257 -17 b 292 -7 278 -17 279 -7 b 331 -31 308 -7 319 -31 b 356 -8 344 -31 344 -8 b 369 -24 367 -8 369 -14 b 368 -87 369 -31 368 -76 b 382 -112 368 -96 371 -112 b 411 15 406 -112 382 15 b 449 -6 425 15 433 -6 b 486 90 476 -6 468 90 b 506 81 490 90 492 81 b 526 110 519 81 526 90 b 515 178 526 119 515 164 z "},"C":{"ha":546,"x_min":0,"x_max":0,"o":"m 250 974 b 126 910 232 974 214 947 b 47 726 74 886 47 825 b 56 367 47 593 56 464 b 39 243 56 293 39 275 b 46 233 39 238 40 233 b 58 242 51 233 53 242 b 63 225 63 242 63 235 b 54 186 63 219 54 200 b 67 158 54 172 67 175 b 60 118 67 144 60 138 b 72 78 60 89 64 78 b 83 93 81 78 79 93 b 117 18 92 93 97 35 b 138 8 122 13 131 11 b 172 -57 157 1 157 -57 b 194 -11 192 -57 174 -11 b 231 -99 226 -11 211 -99 b 272 -29 267 -99 242 -29 b 319 -83 288 -29 308 -83 b 342 -36 332 -83 335 -42 b 404 8 356 -15 392 -4 b 490 136 465 65 490 93 b 488 189 490 158 488 175 b 517 301 488 232 517 265 b 482 350 517 326 506 347 b 456 339 476 350 465 339 b 424 347 443 339 435 347 b 396 336 414 347 407 336 b 361 350 386 336 374 350 b 349 329 353 350 349 342 b 351 289 349 317 351 308 b 289 115 351 239 340 118 b 257 126 279 115 267 126 b 224 121 249 126 229 121 b 194 156 208 121 194 131 b 203 203 194 172 194 188 b 211 219 208 208 211 214 b 192 258 211 233 192 249 b 211 278 192 265 194 272 b 240 315 233 286 240 304 b 235 389 240 321 235 342 b 219 439 235 408 229 425 b 193 494 199 467 193 481 b 214 597 193 521 214 567 b 200 661 214 621 200 618 b 210 681 200 668 200 681 b 233 675 219 681 224 675 b 251 700 243 675 251 686 b 229 757 251 711 229 736 b 250 779 229 768 239 779 b 265 751 263 779 265 768 b 263 704 265 738 263 719 b 286 640 263 693 265 640 b 304 668 300 640 304 653 b 294 738 304 689 294 719 b 315 799 294 772 304 799 b 335 689 332 799 335 754 b 333 660 335 675 333 667 b 360 586 333 611 349 607 b 381 540 369 568 358 540 b 414 615 413 540 382 615 b 439 594 419 615 432 594 b 457 604 443 594 451 604 b 486 568 461 604 476 568 b 506 594 500 568 506 582 b 499 647 506 608 499 617 b 507 735 499 669 507 715 b 403 922 507 804 456 906 b 250 974 356 942 276 974 z "},"D":{"ha":567,"x_min":0,"x_max":0,"o":"m 522 313 b 531 474 522 325 531 376 b 490 625 531 508 490 579 b 515 693 490 646 515 626 b 514 722 515 701 514 713 b 356 921 492 840 432 915 b 279 940 325 924 308 939 b 224 925 265 940 239 925 b 171 946 208 926 186 946 b 114 933 164 946 133 933 b 82 936 110 933 88 936 b 36 885 46 936 36 914 b 40 811 36 863 40 863 b 89 735 40 778 89 767 b 69 642 89 728 69 689 b 81 589 69 636 81 608 b 64 415 81 532 64 479 b 49 315 64 389 49 342 b 56 294 49 308 51 301 b 74 247 71 265 74 261 b 65 164 74 233 65 196 b 72 49 65 142 72 125 b 61 -4 72 21 61 13 b 72 -21 61 -11 64 -21 b 90 -14 82 -21 85 -14 b 107 -44 107 -14 107 -40 b 101 -90 107 -54 101 -75 b 122 -115 101 -110 115 -115 b 146 -93 140 -115 146 -107 b 125 -39 146 -78 125 -50 b 158 3 125 -29 132 3 b 267 -36 232 3 244 -36 b 304 -18 281 -36 282 -18 b 371 -97 339 -18 353 -97 b 381 -86 378 -97 381 -93 b 378 -53 381 -78 378 -67 b 400 -11 378 -33 383 -11 b 454 -47 413 -11 439 -47 b 471 -26 465 -47 471 -40 b 469 7 471 -10 469 -1 b 504 68 469 35 504 56 b 496 126 504 101 496 92 b 526 174 496 144 526 146 b 514 235 526 189 514 204 b 522 313 514 272 522 292 z m 367 354 l 367 319 b 293 150 367 167 335 150 b 254 151 281 150 268 151 b 204 257 217 151 204 240 b 221 275 204 264 208 275 b 240 271 224 275 239 271 b 250 283 247 271 250 275 b 229 336 250 304 236 319 b 219 401 221 358 219 376 b 240 540 219 468 240 478 b 211 649 240 571 211 608 b 224 710 211 676 224 692 b 217 757 224 717 217 756 b 229 794 217 765 218 794 b 250 758 239 794 250 775 b 243 715 250 749 243 725 b 275 674 243 692 253 674 b 282 683 279 674 282 676 b 274 736 282 694 274 722 b 283 751 274 747 276 751 b 304 722 303 751 304 740 b 303 669 304 710 303 696 b 294 583 303 663 294 624 b 306 561 294 568 299 561 b 347 613 326 561 324 613 b 374 568 368 613 374 594 b 367 381 374 504 367 440 z "},"E":{"ha":485,"x_min":0,"x_max":0,"o":"m 465 99 b 422 142 465 119 443 142 b 403 140 415 142 408 140 b 329 151 385 140 349 151 b 297 150 317 151 306 150 b 218 201 238 150 218 179 b 238 275 218 217 238 254 b 228 364 238 339 228 353 b 246 378 228 375 233 378 b 275 372 256 378 265 372 b 313 326 290 372 296 326 b 342 378 336 326 313 378 b 383 301 376 378 356 301 b 417 361 396 301 417 336 b 390 483 417 382 390 454 b 403 532 390 497 403 522 b 379 567 403 551 393 567 b 321 563 372 567 342 567 b 268 553 315 563 272 553 b 194 682 247 553 194 600 b 232 757 194 725 201 757 b 250 754 238 757 242 754 b 299 789 265 754 268 789 b 350 764 315 789 332 776 b 364 714 354 757 357 746 b 379 703 365 707 371 703 b 408 794 407 703 383 794 b 421 704 417 794 421 753 b 418 651 421 700 418 663 b 438 631 418 638 425 631 b 465 657 457 631 465 640 b 446 871 465 707 446 835 b 429 940 446 922 439 940 b 393 931 408 940 403 931 b 364 938 383 931 378 938 b 317 922 344 938 331 922 b 251 944 296 922 271 944 b 224 936 238 944 233 936 b 188 949 214 936 200 949 b 136 936 167 949 161 936 b 108 938 126 936 114 938 b 56 906 78 938 56 928 b 69 868 56 894 69 878 b 65 843 69 861 65 850 b 72 794 65 829 72 806 b 69 746 72 782 69 760 b 83 679 69 726 83 689 b 65 563 83 644 65 610 b 46 461 65 532 63 490 b 40 435 40 449 40 442 b 53 411 40 426 42 411 b 72 415 58 411 67 415 b 93 396 88 415 93 408 b 75 308 93 389 75 342 b 65 121 75 265 65 165 l 65 90 b 64 56 65 81 64 63 l 64 29 b 83 -32 67 18 58 -32 b 106 -24 89 -32 100 -24 b 146 -44 115 -24 136 -44 b 172 -24 158 -44 168 -24 b 231 -110 196 -24 188 -110 b 250 -79 242 -110 250 -106 b 242 -50 250 -69 242 -61 b 276 -14 242 -40 256 -14 b 338 -117 301 -14 317 -118 b 351 -101 350 -117 351 -112 b 336 -35 351 -65 340 -58 b 365 -6 336 -18 349 -6 b 435 -19 382 -6 425 -19 b 456 4 449 -19 456 -12 b 453 49 456 25 453 42 b 465 99 453 61 465 83 z "},"F":{"ha":439,"x_min":0,"x_max":0,"o":"m 444 928 b 424 943 440 936 435 942 b 382 933 407 943 393 933 b 313 943 379 933 336 943 b 229 931 285 943 244 931 b 183 938 218 931 196 938 b 142 931 172 938 151 931 b 78 944 115 931 96 944 b 56 924 64 944 56 936 b 71 875 56 911 71 883 b 46 744 71 836 46 790 b 76 532 46 650 76 628 b 39 401 76 433 39 435 b 49 381 39 394 42 386 b 81 329 85 347 81 340 b 64 176 81 304 64 264 b 69 64 64 126 69 108 b 57 17 69 50 57 35 b 76 -4 57 3 65 -4 b 97 -3 81 -4 92 -3 b 142 -42 114 -3 121 -42 b 171 -24 157 -42 156 -24 b 182 -36 176 -24 182 -28 b 175 -72 182 -40 175 -54 b 193 -87 175 -85 186 -87 b 226 40 221 -87 226 10 b 217 204 226 90 217 131 b 228 261 217 211 228 231 b 213 360 228 293 213 324 b 236 401 213 383 217 401 b 283 367 253 401 275 367 b 328 399 299 367 313 399 b 367 329 353 399 339 329 b 388 353 382 329 388 336 b 382 444 386 382 382 415 b 401 547 382 500 401 514 b 386 561 401 557 396 561 b 357 551 382 557 367 551 b 313 564 343 551 324 564 b 250 544 290 564 272 544 b 224 579 235 544 224 564 b 250 669 224 596 250 642 b 239 732 250 683 239 722 b 257 753 239 743 246 753 b 271 751 261 753 267 751 b 292 772 276 751 282 772 b 317 668 314 772 317 682 b 346 621 318 646 322 621 b 356 649 353 621 356 629 b 350 749 356 693 350 739 b 372 781 350 761 356 781 b 397 746 386 781 397 763 b 389 714 397 736 389 718 b 403 700 389 707 394 700 b 428 708 407 700 422 708 b 439 700 433 708 439 706 b 431 650 439 689 431 668 b 438 633 431 639 433 633 b 458 656 451 633 458 643 b 449 808 458 685 449 763 b 461 876 449 817 461 851 b 457 899 461 883 460 890 z "},"G":{"ha":547,"x_min":0,"x_max":0,"o":"m 500 72 b 488 140 500 92 488 128 b 497 261 488 172 497 229 b 485 353 497 283 485 336 b 496 432 485 372 496 410 b 451 461 496 458 490 461 b 368 490 429 461 390 490 b 315 482 356 490 322 482 b 293 483 311 482 300 483 b 238 404 256 483 238 450 b 257 317 238 368 257 344 b 256 285 257 310 256 290 b 274 260 256 268 261 260 b 292 286 285 260 292 269 b 283 350 292 308 283 328 b 303 363 283 358 296 363 b 339 325 308 363 339 353 b 319 257 339 313 319 272 b 332 204 319 246 332 219 b 274 128 332 164 306 128 b 214 214 219 128 224 172 b 201 271 207 239 200 257 b 211 358 201 282 211 311 b 197 504 211 413 197 497 b 225 582 197 531 225 554 b 214 676 225 607 214 617 b 247 750 214 703 228 750 b 260 729 250 750 260 744 b 251 686 260 717 251 700 b 271 669 251 674 263 669 b 292 724 285 669 292 697 b 283 776 292 738 283 767 b 304 792 283 786 290 792 b 342 726 313 792 342 788 b 331 664 342 713 331 679 b 388 581 331 615 388 622 b 382 547 388 575 382 553 b 408 532 382 540 386 532 b 439 592 426 532 414 592 b 458 574 451 592 458 585 b 454 526 458 549 454 535 b 468 493 454 511 457 493 b 488 521 486 493 488 506 b 485 594 488 544 485 579 b 499 710 485 647 499 697 b 283 961 499 842 426 961 b 153 919 215 961 210 942 b 53 753 65 885 63 860 l 53 697 b 40 624 53 676 40 636 b 46 579 40 601 46 599 b 40 519 46 568 40 536 b 42 478 40 515 42 489 b 19 403 42 446 19 428 b 46 319 19 371 46 364 b 44 279 46 310 44 290 b 51 221 44 275 51 238 b 44 186 51 210 44 197 b 61 103 44 165 61 125 b 53 36 61 74 53 47 b 64 24 53 28 57 24 b 96 60 79 24 86 60 b 107 50 103 60 107 54 b 96 6 107 44 96 21 b 124 -24 96 -14 111 -24 b 150 -7 135 -24 142 -7 b 175 -99 163 -7 175 -24 b 174 -124 175 -104 174 -119 b 194 -149 174 -142 181 -149 b 214 -42 217 -149 214 -97 b 264 -12 214 -18 254 -12 b 307 -61 278 -12 297 -19 b 328 -78 310 -72 319 -78 b 374 -18 346 -78 374 -65 b 368 26 374 -14 368 7 b 383 60 368 49 374 60 b 393 49 390 60 393 56 b 389 -7 393 29 389 11 b 408 -33 389 -24 396 -33 b 425 -10 415 -33 419 -10 b 467 -72 435 -10 438 -72 b 488 -44 475 -72 488 -65 b 468 0 488 -26 468 -8 b 500 72 468 19 500 44 z "},"H":{"ha":576,"x_min":0,"x_max":0,"o":"m 532 315 b 535 329 533 322 535 328 b 519 389 535 340 519 372 b 529 453 519 406 529 435 b 524 521 529 458 524 482 l 524 540 b 501 676 524 554 501 628 b 507 715 501 692 503 704 l 519 743 b 529 829 526 760 529 803 b 490 954 529 896 525 947 b 456 946 485 954 461 946 b 390 951 447 946 429 951 b 329 914 361 951 329 933 b 350 872 329 906 350 896 b 339 804 350 860 339 825 b 340 696 339 793 340 774 l 340 625 b 350 574 340 611 350 576 b 338 560 349 565 344 560 b 289 571 339 560 307 571 b 264 567 281 571 271 567 b 221 644 235 567 221 600 b 254 710 221 715 254 685 b 222 861 254 746 222 764 b 186 946 222 894 219 946 b 164 943 176 946 171 943 b 128 947 153 943 135 947 b 63 879 86 947 63 910 b 65 796 63 856 65 832 b 39 604 65 736 39 635 b 49 583 39 592 42 585 b 65 596 53 583 60 596 b 92 514 74 596 92 544 b 64 340 92 503 64 415 l 64 288 b 40 207 64 267 40 225 b 81 129 40 146 81 175 b 60 75 81 118 60 86 b 72 26 60 65 72 40 b 61 -32 72 10 60 -31 b 72 -44 61 -40 67 -44 b 119 -14 79 -44 104 -14 b 139 -44 132 -14 139 -24 b 135 -83 139 -54 136 -67 b 154 -104 135 -94 144 -104 b 171 -89 165 -104 171 -99 b 154 -50 171 -79 154 -61 b 211 -17 161 -22 192 -17 b 221 -18 217 -17 218 -18 b 246 21 231 -18 246 6 b 231 86 246 22 231 54 b 232 100 231 92 232 94 b 224 154 232 124 224 139 b 232 232 224 167 232 210 b 218 304 232 250 218 292 b 226 315 218 311 222 315 b 261 281 240 315 253 281 b 274 301 269 281 274 293 l 274 319 b 268 356 274 343 268 354 b 282 374 268 367 276 374 b 311 367 286 374 304 367 b 356 404 321 367 347 404 b 372 375 365 404 372 394 b 364 288 372 357 364 301 b 338 181 364 256 338 208 b 339 161 338 171 339 167 b 336 129 339 157 336 136 b 347 19 336 117 346 35 l 347 -10 b 361 -36 347 -26 353 -36 b 408 -14 376 -36 393 -14 b 428 -53 421 -14 428 -25 l 428 -76 b 435 -99 428 -92 431 -99 b 451 -82 446 -99 451 -93 b 442 -36 451 -85 442 -47 b 461 -19 442 -19 457 -19 b 486 -24 465 -19 481 -24 b 529 50 499 -24 529 15 b 500 232 529 67 500 129 b 532 315 500 274 529 307 z "},"I":{"ha":289,"x_min":0,"x_max":0,"o":"m 250 583 b 257 600 254 583 257 589 b 229 783 257 640 229 743 b 251 881 229 814 251 847 b 179 946 251 925 204 946 b 138 936 165 946 151 936 b 81 949 121 936 92 949 b 50 919 63 949 50 938 b 60 860 50 903 56 885 b 39 781 60 840 39 800 b 53 747 39 763 40 765 b 74 697 72 718 71 707 b 67 633 74 683 67 643 b 75 511 67 625 75 579 b 40 376 75 461 40 421 b 69 303 40 335 69 331 b 56 186 69 283 56 244 b 40 75 56 133 40 78 b 67 6 40 53 43 36 b 89 -29 83 -15 89 -21 b 86 -78 89 -33 86 -56 b 100 -94 86 -90 92 -94 b 138 -22 122 -94 115 -22 b 146 -56 144 -22 146 -33 b 144 -122 146 -69 144 -108 b 154 -158 144 -146 147 -158 b 182 -108 175 -158 182 -124 b 174 -31 182 -97 174 -46 b 235 1 174 -6 235 -32 b 217 49 235 8 217 39 b 224 118 217 63 224 94 b 222 168 224 128 222 153 b 235 265 222 206 235 243 b 214 385 235 303 214 363 b 222 488 214 393 222 421 b 211 561 222 513 211 538 b 236 585 211 582 226 585 b 250 583 240 585 246 583 z "},"J":{"ha":340,"x_min":0,"x_max":0,"o":"m 303 683 b 278 763 303 710 278 728 b 290 857 278 782 290 831 b 283 910 290 879 283 875 b 286 924 283 914 286 918 b 231 960 286 947 249 960 b 172 947 214 960 192 947 b 132 963 165 947 147 963 b 118 950 128 963 118 963 b 128 907 118 932 128 917 b 101 831 128 883 101 858 b 139 678 101 807 139 788 b 144 618 139 661 144 640 b 142 593 144 610 143 601 b 119 451 129 538 133 496 b 115 425 115 442 115 433 b 143 351 115 417 143 364 b 131 286 143 346 131 306 b 139 238 131 278 139 265 b 82 167 139 211 121 186 b 8 125 58 154 8 169 b 24 49 8 100 24 75 b 11 -37 24 35 11 6 b 31 -90 11 -69 15 -90 b 53 -67 46 -90 53 -78 b 49 -28 53 -35 49 -35 b 56 -4 49 -12 50 -4 b 76 -18 65 -4 72 -18 b 107 -12 86 -18 94 -12 b 142 -87 129 -12 142 -26 b 139 -142 142 -101 139 -119 b 144 -174 139 -162 139 -174 b 176 -37 167 -174 172 -86 b 218 25 179 -4 206 25 b 243 10 226 25 231 10 b 286 143 253 10 286 119 b 267 206 286 153 267 178 b 286 289 267 224 286 258 b 278 382 286 296 278 326 b 293 515 278 440 293 497 b 271 611 293 547 271 607 b 303 683 271 640 303 656 z "},"K":{"ha":540,"x_min":0,"x_max":0,"o":"m 107 946 b 58 889 74 946 58 939 b 67 739 58 843 67 776 b 57 649 67 714 57 682 b 71 542 57 611 71 572 b 60 413 71 456 60 447 b 63 356 60 403 63 382 b 26 214 63 240 26 256 b 61 149 26 197 61 179 b 54 90 61 132 54 115 b 92 -85 54 68 65 -78 b 122 -37 117 -85 106 -37 b 157 -157 136 -37 135 -157 b 179 -99 169 -157 179 -140 b 174 -62 179 -90 174 -71 b 197 -25 174 -51 176 -40 b 232 24 233 1 232 11 b 217 88 232 44 217 65 b 243 274 217 171 224 211 b 250 321 250 296 250 311 b 229 378 250 335 229 365 b 261 418 229 406 243 418 b 274 379 267 418 274 414 b 321 211 274 317 306 264 b 356 94 331 172 347 132 b 369 15 357 79 356 36 b 407 -25 379 0 394 -11 b 421 -62 410 -31 408 -61 b 444 -39 426 -62 435 -39 b 461 -57 456 -39 461 -47 b 458 -87 461 -64 458 -82 b 481 -143 458 -108 463 -143 b 503 -86 494 -143 503 -93 b 490 -31 503 -74 490 -44 b 542 26 490 -10 539 3 b 535 75 540 49 535 64 b 536 85 535 79 535 82 b 463 226 536 124 454 242 b 407 417 425 343 444 336 b 390 482 396 439 390 461 b 393 532 390 496 393 519 b 379 599 393 551 379 585 b 403 638 379 614 385 638 b 425 632 408 638 418 632 b 439 654 435 632 439 640 b 429 710 439 671 429 689 b 457 763 429 731 442 763 b 469 739 468 763 469 749 b 467 681 469 729 467 707 b 485 660 467 672 472 660 b 501 690 494 660 501 665 b 492 764 501 718 492 744 b 521 936 492 796 521 918 b 504 956 521 946 515 956 b 457 943 489 956 474 943 b 415 947 446 943 425 947 b 379 914 407 947 390 944 b 332 850 375 903 358 879 b 282 746 304 819 313 815 b 242 619 250 672 257 619 b 215 651 222 619 215 638 b 222 701 215 661 222 688 b 213 750 222 706 213 729 b 246 793 213 769 246 771 b 232 889 246 828 232 832 b 235 924 232 893 235 917 b 210 949 235 943 224 949 b 160 938 197 949 174 938 b 107 946 143 938 124 946 z "},"L":{"ha":444,"x_min":0,"x_max":0,"o":"m 413 143 b 372 142 401 143 388 142 b 347 143 363 142 358 143 b 282 132 331 143 297 132 b 222 199 246 132 222 158 b 224 238 222 217 224 224 b 214 301 224 254 214 271 b 224 411 214 331 224 382 b 214 490 224 429 214 486 b 232 551 214 515 232 532 b 224 599 232 556 224 588 b 254 660 224 618 254 642 b 226 725 254 679 226 714 b 240 776 226 739 240 764 b 232 840 240 793 232 824 b 243 889 232 853 243 879 b 183 933 243 925 215 933 b 90 960 147 933 113 960 b 50 915 65 960 50 946 b 65 856 50 904 65 871 b 51 749 65 807 51 758 b 85 633 51 714 85 688 b 64 522 85 601 64 551 b 65 447 64 503 65 475 b 64 408 65 435 65 422 b 35 297 63 381 35 331 b 51 153 35 257 51 207 l 51 60 b 58 -1 51 42 54 13 b 85 -43 63 -17 83 -33 b 107 -107 89 -74 90 -107 b 121 -92 117 -107 121 -101 b 118 -61 121 -86 118 -67 b 179 -19 118 -29 146 -19 b 228 -39 190 -19 213 -39 b 257 -28 235 -39 249 -28 b 308 -108 308 -28 279 -108 b 331 -14 328 -108 310 -14 b 361 -65 356 -14 361 -43 b 358 -104 361 -79 358 -94 b 375 -121 358 -117 367 -121 b 394 -99 383 -121 394 -114 b 383 -43 394 -75 383 -57 b 426 -3 383 -36 396 -15 b 450 24 442 4 450 13 b 439 65 450 33 439 54 b 457 110 439 71 457 94 b 413 143 457 126 447 143 z "},"M":{"ha":739,"x_min":0,"x_max":0,"o":"m 496 958 b 451 917 469 958 451 936 b 460 874 451 904 460 890 b 435 792 460 853 439 813 b 408 647 429 758 425 671 b 382 586 385 617 382 597 b 388 525 382 576 388 574 b 360 432 388 451 382 432 b 331 649 339 432 331 551 b 258 914 331 738 290 872 b 108 949 229 951 132 949 b 58 906 83 949 58 944 b 72 863 58 896 72 874 b 60 783 72 822 60 806 b 72 707 60 764 72 722 b 51 539 72 656 51 567 b 61 410 51 504 61 431 b 51 326 61 388 51 349 b 61 274 51 311 56 289 b 83 133 65 256 83 196 b 65 -19 83 92 65 38 b 81 -39 65 -32 71 -39 b 108 -22 90 -39 104 -22 b 115 -74 113 -22 115 -28 b 113 -140 115 -89 113 -122 l 113 -164 b 121 -210 113 -192 115 -210 b 154 -119 139 -210 154 -168 b 149 -37 154 -93 149 -62 b 168 -6 149 -15 156 -6 b 186 -8 172 -6 181 -8 b 221 42 213 -8 221 11 b 200 240 221 69 200 128 b 203 322 200 272 203 297 b 197 390 203 332 197 376 b 232 456 197 449 232 456 b 256 426 251 456 256 446 b 244 286 256 408 244 332 b 311 151 244 215 307 236 b 306 50 311 146 306 75 b 328 -21 306 28 311 -21 b 354 -11 336 -21 349 -11 b 378 -50 369 -11 378 -24 b 374 -100 378 -60 374 -79 b 388 -119 374 -111 376 -119 b 413 -72 406 -119 413 -93 b 401 -7 413 -40 401 -21 b 442 157 401 38 442 99 b 488 406 442 228 483 306 b 501 492 490 463 488 492 b 524 363 521 492 524 403 b 506 204 524 301 506 254 b 524 106 506 169 524 183 b 508 32 524 85 508 54 b 524 -26 508 10 508 6 b 529 -50 528 -33 529 -40 b 521 -114 529 -61 521 -89 b 546 -174 521 -140 529 -174 b 564 -79 564 -174 564 -171 b 558 -32 564 -46 560 -42 b 578 -12 558 -22 564 -12 b 643 -58 594 -12 621 -58 b 689 39 679 -58 689 -3 b 672 90 689 71 672 75 b 693 163 672 126 693 142 b 679 292 693 204 679 222 b 700 360 679 322 700 331 b 672 493 700 397 672 460 b 676 589 672 514 676 536 b 711 700 676 646 711 661 b 679 832 711 746 679 803 b 688 907 679 881 688 888 b 642 949 688 947 651 949 b 563 939 625 949 600 939 b 496 958 532 939 515 958 z "},"N":{"ha":603,"x_min":0,"x_max":0,"o":"m 563 263 b 540 331 563 279 540 326 b 543 365 540 344 543 353 b 522 482 543 389 522 465 b 542 554 522 499 531 540 b 582 622 560 574 582 590 b 544 774 582 676 544 722 b 564 857 544 790 564 844 b 489 954 564 914 538 954 b 374 892 436 954 374 936 b 399 789 374 867 399 818 b 383 640 399 757 383 721 b 401 519 383 588 401 529 b 390 447 401 489 390 474 b 371 426 390 432 382 426 b 346 486 350 426 346 446 b 351 511 346 493 351 501 b 329 571 351 538 331 563 b 308 721 324 594 329 681 b 240 867 265 806 240 807 b 246 919 240 885 246 900 b 175 957 246 944 224 957 b 78 890 106 957 78 926 b 86 801 78 867 86 829 b 63 719 86 792 63 749 b 86 625 63 685 86 657 b 63 504 86 593 63 522 b 86 400 63 492 86 435 b 49 281 86 356 49 321 b 60 193 49 250 60 206 b 38 74 60 149 38 114 b 40 25 38 57 40 42 b 38 -35 40 13 38 -1 b 69 -121 38 -67 56 -121 b 88 -81 74 -121 88 -115 b 76 -32 88 -68 76 -40 b 101 -12 76 -17 92 -12 b 158 -78 111 -12 154 -18 b 175 -108 160 -97 167 -108 b 193 -87 188 -108 193 -101 b 190 -40 193 -78 190 -61 b 217 19 190 -33 217 -8 b 208 83 217 39 208 40 b 194 157 208 103 194 138 b 215 214 194 176 215 194 b 206 293 215 243 206 279 b 211 349 206 315 211 332 b 203 421 211 371 203 397 b 225 464 203 447 214 464 b 274 279 254 464 274 360 b 264 136 274 224 264 179 b 275 107 264 117 268 107 b 306 167 285 107 306 124 b 336 224 306 206 314 224 b 353 203 347 224 353 218 b 340 118 353 164 340 153 b 378 40 340 79 357 72 b 424 -60 396 10 404 -60 b 451 -19 435 -60 435 -19 b 471 -83 461 -19 471 -35 b 469 -111 471 -89 469 -104 b 492 -137 469 -128 478 -137 b 517 -115 503 -137 517 -132 b 507 -53 517 -100 507 -64 b 514 -36 507 -49 510 -42 b 539 25 536 -4 539 10 b 531 139 539 57 531 39 b 546 225 531 165 532 201 b 563 263 554 238 563 250 z "},"O":{"ha":554,"x_min":0,"x_max":0,"o":"m 236 764 b 276 711 258 764 263 711 b 314 786 293 711 299 786 b 343 746 336 786 343 765 b 331 650 343 714 331 686 b 349 461 331 565 349 517 b 340 411 349 444 346 428 b 329 340 329 375 329 367 b 332 247 329 321 332 271 b 331 201 332 224 331 207 b 335 164 331 192 335 171 b 278 108 335 133 310 108 b 221 176 250 108 250 117 b 210 208 214 189 210 199 b 238 392 210 265 238 310 b 218 528 238 415 218 497 b 224 617 218 547 224 558 b 213 719 224 647 213 681 b 236 764 213 736 219 764 z m 236 972 b 54 840 215 972 75 926 b 31 739 51 831 31 771 b 40 678 31 708 40 699 b 7 485 40 646 7 519 b 49 326 7 425 49 363 b 25 165 49 294 25 213 b 65 -14 25 106 47 -14 b 82 1 75 -14 82 -10 b 81 22 82 6 81 13 b 101 56 81 38 85 56 b 147 -19 111 56 124 49 b 196 -124 169 -83 164 -119 b 242 -46 218 -124 214 -46 b 283 -74 263 -46 272 -74 b 313 -56 294 -74 297 -56 b 332 -118 329 -56 328 -75 b 356 -164 335 -161 346 -164 b 396 -36 394 -164 358 -36 b 432 -86 411 -36 414 -86 b 468 74 451 -86 468 -26 b 507 324 468 175 507 140 l 507 375 b 531 686 507 468 531 544 b 486 864 531 785 517 826 b 236 972 442 917 317 972 z "},"P":{"ha":533,"x_min":0,"x_max":0,"o":"m 247 938 b 113 957 193 938 153 957 b 46 904 76 957 46 936 b 60 860 46 892 60 869 b 39 789 60 833 39 808 b 71 681 39 758 71 700 b 64 571 71 649 67 608 b 46 483 64 550 46 489 b 72 390 46 447 72 411 l 72 347 b 51 210 72 300 69 250 b 46 183 46 199 46 193 b 74 79 46 150 74 100 b 68 11 74 50 68 40 b 92 -75 68 -6 71 -75 b 136 -19 114 -75 92 -19 b 169 -43 150 -19 169 -24 b 149 -136 169 -78 149 -106 b 179 -161 149 -151 165 -161 b 203 -146 186 -161 203 -157 b 196 -71 203 -124 196 -101 b 235 0 196 -42 235 -28 b 224 40 235 11 224 24 b 246 93 224 56 246 71 b 213 181 246 115 213 161 b 226 290 213 201 226 260 b 219 342 226 303 219 331 b 253 367 219 358 231 367 b 354 346 275 367 343 365 b 376 310 368 321 367 310 b 393 336 390 310 393 328 b 465 444 393 385 447 408 b 514 568 488 488 475 540 b 557 638 525 576 557 594 b 514 756 557 651 544 699 b 488 831 504 774 496 799 b 338 949 469 894 421 949 b 247 938 315 949 290 938 z m 347 631 b 263 504 347 574 308 504 b 208 547 213 504 208 539 b 229 604 208 560 229 589 b 222 633 229 614 222 622 b 246 678 222 647 246 664 b 196 758 246 703 196 693 b 231 789 196 776 197 789 b 281 760 258 789 281 785 b 271 674 281 739 271 699 b 286 651 271 664 279 651 b 328 700 306 651 304 700 b 347 631 343 700 347 690 z "},"Q":{"ha":553,"x_min":0,"x_max":0,"o":"m 271 968 b 67 810 203 968 140 947 b 43 642 50 779 43 753 b 21 382 43 471 21 418 b 54 289 21 344 54 317 b 49 231 54 271 49 240 b 78 93 49 179 78 101 b 76 81 78 89 76 85 b 188 -15 76 38 110 39 b 233 -33 207 -29 221 -35 b 265 -29 247 -33 257 -29 b 304 -92 290 -29 278 -92 b 364 11 326 -92 340 11 b 374 0 371 11 374 7 b 364 -50 374 -14 364 -36 b 375 -60 364 -54 367 -60 b 407 -44 390 -60 396 -44 b 453 -110 426 -44 453 -89 b 451 -154 453 -115 451 -119 b 463 -167 451 -162 457 -167 b 504 -99 489 -167 488 -99 b 514 -135 515 -99 514 -125 b 511 -235 514 -146 511 -199 b 522 -254 511 -250 517 -254 b 554 -140 549 -254 554 -221 b 543 -11 554 -104 543 -35 b 550 60 543 14 550 38 b 525 103 550 68 544 97 b 479 138 496 110 479 111 b 501 260 479 156 501 207 b 497 354 501 279 497 313 b 546 504 497 468 546 460 b 515 599 546 522 515 576 b 531 679 515 629 531 660 b 467 864 531 707 515 739 b 271 968 442 928 375 968 z m 358 306 b 361 238 360 281 361 251 b 306 121 358 144 338 121 b 250 118 283 121 264 118 b 215 161 224 118 215 146 b 218 181 215 169 218 172 b 206 299 218 190 206 239 b 218 411 206 343 218 389 b 203 539 218 446 203 526 b 214 586 203 557 203 586 b 232 564 219 586 225 564 b 249 667 244 564 249 646 b 242 796 249 717 242 756 b 257 836 242 829 250 836 b 290 782 276 836 290 814 b 269 588 290 735 269 668 b 293 494 269 560 271 494 b 307 515 301 494 307 497 b 304 596 307 533 304 563 b 325 656 304 644 314 656 b 339 636 333 656 339 651 b 325 531 339 608 325 547 b 340 458 325 474 329 458 b 369 492 353 458 364 492 b 374 471 372 492 374 485 b 358 306 374 425 358 322 z "},"R":{"ha":549,"x_min":0,"x_max":0,"o":"m 539 33 b 488 138 539 63 496 115 b 475 250 478 160 483 221 b 451 307 469 268 467 272 b 443 342 446 319 443 331 b 450 378 443 357 450 367 b 429 435 450 397 429 415 b 436 442 429 438 432 442 b 475 413 449 442 463 413 b 500 443 488 413 500 426 b 496 475 500 449 496 457 b 504 601 496 508 504 568 b 519 690 504 624 519 668 b 507 801 519 732 514 763 b 310 936 501 833 489 904 b 311 936 310 936 310 936 b 200 943 279 936 232 943 b 143 936 186 943 158 936 b 78 957 131 936 93 957 b 51 935 67 957 51 949 b 57 906 51 925 57 911 b 49 835 57 885 49 853 b 67 760 49 818 65 779 b 92 661 69 744 92 700 b 61 535 92 617 61 576 b 83 375 61 510 83 415 b 58 229 83 356 58 285 b 83 92 58 210 83 139 b 60 18 83 76 60 28 b 85 -19 60 10 60 -4 b 117 -76 118 -40 117 -56 b 115 -111 117 -86 115 -106 b 129 -139 115 -124 115 -139 b 146 -125 142 -139 146 -133 b 138 -65 146 -119 138 -86 b 172 -24 138 -46 156 -24 b 210 -81 196 -24 179 -81 b 225 -15 224 -81 225 -65 b 210 100 225 26 210 64 b 219 240 210 150 219 224 b 213 331 219 249 213 318 b 221 356 213 347 215 356 b 249 300 239 356 229 301 b 257 308 251 300 257 301 b 253 343 257 317 253 321 b 282 381 253 375 268 381 b 294 365 290 381 294 375 b 289 322 294 347 289 343 b 317 243 289 300 317 275 b 314 211 317 232 314 224 b 351 93 314 189 326 147 b 368 22 363 68 368 46 b 360 -32 368 1 360 -25 b 372 -43 360 -40 367 -43 b 410 -22 386 -43 386 -22 b 431 -118 424 -22 431 -89 b 428 -168 431 -126 428 -146 b 440 -190 428 -182 431 -190 b 467 -103 456 -190 467 -149 b 461 -61 467 -81 461 -67 b 539 33 461 -19 539 -24 z m 344 617 b 304 526 344 565 329 526 b 257 567 282 526 271 567 b 233 561 250 567 244 561 b 217 579 224 561 217 569 b 224 621 217 594 224 604 b 214 728 224 633 214 715 b 221 746 214 740 217 746 b 253 697 240 746 232 697 b 261 713 258 697 261 701 b 260 736 261 717 260 731 b 283 781 260 757 267 781 b 339 714 321 781 339 751 b 335 679 339 704 335 699 b 344 617 335 667 344 663 z "},"S":{"ha":515,"x_min":0,"x_max":0,"o":"m 482 269 b 481 315 481 276 481 294 b 408 415 481 379 432 388 b 342 504 397 428 385 479 b 201 685 264 549 201 615 b 233 782 201 725 211 782 b 253 756 243 782 253 778 b 249 704 253 732 249 726 b 269 683 249 692 260 683 b 292 711 286 683 292 694 b 290 731 292 717 290 725 b 304 756 290 744 293 756 b 358 621 343 756 308 621 b 407 700 382 621 363 700 b 457 554 440 700 414 554 b 472 642 469 554 472 592 b 483 733 472 668 483 700 b 394 908 483 793 429 876 b 276 960 361 938 322 956 b 268 961 274 960 271 960 b 135 908 254 961 143 911 b 32 799 104 892 39 831 b 24 685 25 764 24 713 b 11 597 24 636 11 618 b 35 536 11 568 18 536 b 76 588 54 536 57 588 b 115 493 99 588 99 524 b 201 399 142 442 185 424 b 294 263 236 349 224 326 b 319 214 310 249 319 233 b 263 125 319 169 303 125 b 169 221 231 125 192 144 b 110 271 158 257 140 271 b 15 182 65 271 15 239 b 71 3 15 118 29 3 b 99 39 85 3 86 39 b 131 0 115 39 118 14 b 175 -107 158 -35 175 -28 b 201 -132 175 -119 179 -132 b 215 -117 211 -132 215 -126 b 211 -71 215 -107 211 -82 b 235 -39 211 -49 219 -39 b 289 -246 285 -39 238 -246 b 306 -215 304 -246 306 -235 b 304 -153 306 -196 304 -174 b 356 -8 304 -40 318 -8 b 413 -92 397 -8 413 -24 b 432 -112 413 -103 417 -112 b 450 -92 446 -112 450 -101 b 449 -44 450 -72 449 -51 b 479 146 449 -11 450 75 b 492 200 489 168 492 183 b 482 269 492 221 488 247 z "},"T":{"ha":425,"x_min":0,"x_max":0,"o":"m 404 950 b 318 931 385 950 358 931 b 176 949 251 931 239 949 b 60 919 142 949 113 919 b -10 940 35 919 14 940 b -28 924 -21 940 -28 936 b -15 858 -28 913 -15 874 b -35 806 -15 842 -35 817 b -1 778 -35 789 -17 778 b 64 686 44 778 32 686 b 128 778 101 686 89 778 b 167 750 140 778 167 778 b 149 617 167 725 154 665 b 132 424 142 556 132 454 b 139 331 132 403 139 393 b 103 94 139 299 103 179 b 135 -32 103 64 114 -32 b 160 -8 149 -32 147 -8 b 185 -124 185 -8 185 -76 b 171 -194 185 -147 171 -169 b 204 -221 171 -212 182 -221 b 244 -193 231 -221 244 -208 b 228 -81 244 -147 228 -119 b 301 24 228 3 297 -17 b 285 85 301 40 285 69 b 289 117 285 93 289 107 b 276 204 289 146 276 164 b 301 365 276 260 301 294 b 274 547 301 461 274 476 b 282 643 274 571 282 601 b 276 688 282 653 276 674 b 315 764 276 743 285 764 b 364 733 339 764 346 733 b 393 768 376 733 378 768 b 428 675 411 768 392 675 b 444 699 440 675 444 682 b 439 744 444 708 439 714 b 460 850 439 772 460 828 b 404 950 460 885 443 950 z "},"U":{"ha":568,"x_min":0,"x_max":0,"o":"m 386 960 b 324 911 364 960 324 960 b 350 742 324 869 350 767 b 338 575 350 682 338 629 b 351 304 338 501 351 432 b 294 135 351 174 328 135 b 196 260 274 135 196 163 b 206 379 196 279 200 331 b 239 688 210 425 239 558 b 224 858 239 744 232 792 b 124 972 211 954 182 972 b 24 910 94 972 24 951 b 54 821 24 875 50 871 b 56 772 56 808 56 792 b 33 528 56 678 33 606 b 39 390 33 481 39 432 b 36 289 39 354 36 322 b 139 25 36 199 65 106 b 183 -81 185 -25 183 -67 b 175 -190 183 -100 175 -139 b 204 -226 175 -215 185 -226 b 240 -186 232 -226 240 -201 b 224 -60 240 -128 224 -81 b 240 -33 224 -39 231 -33 b 278 -57 247 -33 268 -57 b 308 -36 293 -57 294 -37 b 335 -61 324 -36 335 -50 b 331 -100 335 -65 331 -83 b 356 -129 331 -118 335 -129 b 382 -103 371 -129 382 -122 b 374 -50 382 -89 374 -78 b 406 11 374 -28 383 -7 b 496 96 461 58 492 88 b 515 224 514 139 515 144 b 514 301 515 250 514 278 b 521 382 514 336 521 354 b 501 536 521 435 501 507 b 506 603 501 561 506 576 b 501 671 506 622 501 650 b 547 842 501 735 547 782 b 518 953 547 915 539 953 b 476 942 503 953 497 942 b 386 960 457 942 418 960 z "},"V":{"ha":506,"x_min":0,"x_max":0,"o":"m 379 957 b 325 836 342 957 340 925 b 288 550 286 732 299 696 b 257 471 283 497 274 471 b 219 521 236 471 219 501 b 224 565 219 533 224 560 b 197 690 224 571 197 631 b 201 764 197 700 201 744 b 131 949 201 857 189 949 b 78 936 118 949 90 936 b 24 949 61 936 33 949 b -15 907 1 949 -15 936 b -11 857 -15 894 -11 888 b 1 778 -11 829 1 806 b -24 700 1 746 -24 717 b 0 674 -24 688 -15 674 b 17 675 6 674 13 675 b 60 621 44 675 60 657 b 56 578 60 610 56 590 b 86 328 56 504 86 415 b 71 232 86 301 71 257 b 106 150 71 207 89 176 b 151 54 135 103 151 82 b 149 6 151 49 149 17 b 179 -36 149 -15 160 -36 b 233 -8 192 -36 217 -8 b 267 -82 258 -8 267 -24 b 264 -128 267 -99 264 -118 b 290 -158 264 -147 269 -158 b 319 -121 313 -158 319 -146 b 314 -53 319 -107 314 -81 b 357 90 314 -40 349 38 b 388 249 363 121 381 194 b 431 432 400 356 394 392 b 444 489 446 449 443 453 b 450 553 446 528 450 540 b 440 633 450 568 440 607 b 476 725 440 679 463 725 b 499 724 486 725 488 724 b 515 756 511 724 515 733 b 535 869 515 804 535 857 b 472 940 535 910 506 940 b 435 938 465 940 443 938 b 379 957 406 938 403 957 z "},"W":{"ha":725,"x_min":0,"x_max":0,"o":"m 693 947 b 625 940 676 947 656 940 b 544 869 557 940 547 919 b 499 593 533 690 549 593 b 464 665 471 593 464 617 b 468 735 464 685 468 707 b 454 865 468 772 454 829 b 465 929 454 882 465 913 b 432 967 465 957 458 967 b 382 953 417 967 401 953 b 299 979 358 953 326 979 b 249 911 263 979 249 942 b 271 756 249 889 271 810 b 240 583 271 660 240 642 b 243 549 240 568 243 558 b 222 501 243 514 236 501 b 154 604 172 501 154 575 b 168 892 154 654 168 714 b 68 971 168 940 143 971 b -1 935 32 971 -1 964 b 11 797 -1 914 -1 826 b 60 568 44 713 60 653 b 25 153 60 313 25 250 b 44 135 25 142 32 135 b 111 165 65 135 81 165 b 143 124 126 165 143 146 b 106 -11 143 81 106 8 b 124 -28 106 -22 113 -28 b 172 -8 142 -28 161 -8 b 222 -150 217 -10 199 -150 b 238 -118 231 -150 238 -140 b 225 -40 238 -90 225 -58 b 247 -19 225 -26 232 -19 b 300 -69 268 -19 282 -69 b 336 6 326 -69 336 -50 b 311 114 336 32 311 71 b 328 269 311 149 328 233 b 325 353 328 294 325 308 b 367 471 325 400 326 471 b 389 407 383 471 389 450 b 394 304 389 342 394 326 b 382 178 394 258 382 218 b 393 151 382 161 386 151 b 422 165 400 151 415 165 b 442 94 436 165 442 147 b 438 6 442 79 438 40 b 468 -82 438 -40 447 -82 b 510 -11 503 -82 488 -11 b 544 -56 538 -11 544 -31 b 535 -157 544 -87 535 -132 b 568 -204 535 -187 551 -204 b 594 -111 590 -204 594 -178 b 575 -14 594 -86 575 -36 b 597 79 575 17 596 64 b 628 178 606 168 628 151 b 604 249 628 197 604 224 b 632 292 604 276 610 292 b 660 250 647 292 660 278 b 656 204 660 235 656 219 b 674 182 656 190 661 182 b 694 215 688 182 694 190 b 675 311 694 232 675 274 b 699 481 675 364 699 429 b 692 589 699 507 692 519 b 732 906 692 776 732 857 b 693 947 732 933 719 947 z "},"X":{"ha":490,"x_min":0,"x_max":0,"o":"m 494 -208 b 515 -178 510 -208 515 -199 b 504 -110 515 -167 504 -132 b 517 -19 504 -76 517 -53 b 478 74 517 13 482 54 b 451 200 471 106 464 156 b 401 319 438 244 422 283 b 354 421 378 360 353 386 b 356 447 354 426 356 443 b 354 475 356 457 354 464 b 358 496 354 489 356 496 b 389 485 364 496 375 485 b 428 525 414 485 428 503 b 415 614 428 543 415 608 b 414 674 415 636 414 656 b 426 707 414 696 417 707 b 465 668 436 707 439 668 b 490 692 486 668 490 675 b 474 785 490 717 474 742 b 489 913 474 817 489 882 b 411 964 489 957 460 964 b 260 796 301 964 260 883 b 265 714 260 765 265 726 b 250 689 265 694 261 689 b 179 864 193 689 183 840 b 161 921 175 886 169 907 b 31 963 143 957 128 963 b -12 921 3 963 -12 951 b 51 703 -12 875 51 772 b 26 572 51 621 26 615 b 54 526 26 556 38 526 b 114 644 100 526 68 644 b 154 482 140 644 154 593 b 117 378 154 456 139 436 b 69 213 94 322 86 268 b 3 -26 43 129 3 47 b 8 -119 3 -53 8 -82 b 4 -208 8 -157 4 -172 b 33 -253 4 -231 11 -253 b 79 -219 64 -253 79 -242 b 51 -62 79 -178 51 -93 b 90 -22 51 -26 67 -22 b 136 -90 129 -22 97 -90 b 207 143 200 -90 146 143 b 240 58 226 143 214 58 b 301 108 256 58 281 108 b 375 -24 340 108 375 28 b 367 -68 375 -42 367 -54 b 399 -97 367 -85 378 -97 b 428 -65 408 -97 428 -86 b 425 -40 428 -56 425 -47 b 447 -14 425 -32 433 -14 b 494 -208 475 -14 436 -208 z "},"Y":{"ha":451,"x_min":0,"x_max":0,"o":"m 407 975 b 301 925 374 975 301 961 b 307 871 301 903 307 883 b 269 788 307 831 285 817 b 219 700 253 758 253 700 b 186 849 197 700 194 828 b 64 961 150 944 121 961 b 0 960 53 961 26 960 b -33 910 -29 960 -33 939 b 7 786 -33 889 -18 851 b 58 575 40 700 18 651 b 150 260 144 408 150 358 b 144 71 150 150 144 111 b 150 8 144 54 147 33 b 190 -96 163 -85 171 -96 b 232 -19 210 -96 208 -19 b 258 -67 250 -19 258 -28 b 249 -183 258 -137 249 -162 b 274 -217 249 -204 253 -217 b 301 -186 293 -217 301 -208 b 294 -121 301 -169 294 -146 b 303 -17 294 -106 303 -75 b 294 200 303 32 294 119 b 301 342 294 231 301 292 b 318 382 301 368 307 382 b 356 339 335 382 340 339 b 378 389 375 339 378 361 b 372 483 378 406 372 428 b 396 649 372 614 382 649 b 421 618 407 649 421 635 b 413 561 421 592 413 582 b 435 539 413 547 422 539 b 458 700 458 539 458 643 b 449 801 458 746 449 785 b 469 910 449 811 469 857 b 407 975 469 951 444 975 z "},"Z":{"ha":497,"x_min":0,"x_max":0,"o":"m 361 150 b 275 142 336 150 283 142 b 206 190 251 142 206 156 b 285 350 206 265 285 251 b 281 386 285 363 281 376 b 304 417 281 407 292 417 b 338 379 331 417 338 399 b 335 272 338 369 335 346 b 356 246 335 260 340 246 b 376 276 371 246 376 261 b 374 467 376 346 374 407 b 410 632 374 619 385 632 b 425 619 419 632 425 628 b 419 572 425 594 419 589 b 443 553 419 558 429 553 b 475 697 478 553 467 606 b 483 831 482 767 483 811 b 422 958 483 892 481 958 b 164 932 350 958 193 932 b 69 968 113 932 97 968 b 42 932 49 968 42 953 b 60 850 42 907 60 907 b 42 781 60 821 42 808 b 56 768 42 775 44 768 b 79 769 63 768 69 769 b 118 724 106 769 118 749 b 104 644 118 683 104 667 b 133 613 104 631 114 613 b 208 786 178 613 129 786 b 240 682 229 786 238 688 b 246 653 244 674 246 663 b 185 514 246 619 193 542 b 90 347 168 453 90 368 b 139 315 90 326 139 342 b 115 267 139 306 131 289 b 39 83 42 164 39 129 b 58 -85 39 44 58 -15 b 32 -253 58 -143 32 -199 b 65 -308 32 -286 46 -308 b 113 -235 100 -308 113 -276 b 103 -119 113 -221 103 -156 b 179 7 103 -64 139 7 b 215 -29 201 7 215 -4 b 197 -119 215 -61 197 -86 b 219 -140 197 -132 207 -140 b 265 -65 244 -140 235 -65 b 282 -94 279 -65 282 -76 b 268 -187 282 -110 268 -143 b 300 -229 268 -204 276 -229 b 326 -196 321 -229 326 -212 b 318 -125 326 -186 318 -140 b 385 -8 318 -40 356 -8 b 431 -17 397 -8 419 -17 b 449 -6 442 -17 449 -14 b 443 19 449 7 443 7 b 478 94 443 42 478 78 b 361 150 478 142 389 150 z "},"[":{"ha":422,"x_min":0,"x_max":0,"o":"m 300 -175 b 329 -178 311 -176 321 -178 b 374 -74 361 -178 374 -161 b 303 11 374 -3 346 11 b 256 108 263 26 256 72 b 253 231 256 150 253 192 b 286 533 253 340 286 432 b 282 654 286 574 282 615 b 292 774 282 696 292 732 b 288 790 292 779 288 785 b 303 838 288 789 297 828 b 392 963 336 897 392 811 b 353 1050 392 1008 389 1050 b 211 1054 306 1050 274 1054 b 158 974 171 1054 158 1006 b 147 776 158 908 147 842 b 154 590 147 706 154 649 b 149 489 151 557 149 521 b 150 265 149 397 150 329 b 149 167 150 217 150 192 b 133 93 146 142 133 118 b 126 -31 133 43 126 14 b 239 -167 126 -144 132 -167 b 300 -175 267 -167 283 -175 z "},"\\":{"ha":526,"x_min":0,"x_max":0,"o":"m 33 946 b 19 893 25 931 19 913 b 26 849 19 881 22 865 b 72 665 68 713 47 665 b 93 690 82 665 93 675 b 90 722 93 700 90 718 b 110 750 90 733 96 750 b 132 686 119 750 126 728 b 199 485 142 608 168 557 b 338 118 288 274 290 242 b 354 22 349 86 353 54 b 346 -58 354 6 346 -26 b 364 -132 346 -118 353 -132 b 400 -83 386 -132 390 -83 b 431 -267 426 -83 404 -267 b 469 -154 465 -267 442 -154 b 501 -185 479 -154 492 -185 b 522 -160 508 -185 518 -172 b 543 -104 539 -118 543 -119 b 481 0 543 -74 483 -6 b 363 358 465 32 410 240 b 240 646 326 447 269 549 b 192 843 238 660 207 778 b 146 960 172 931 178 960 b 107 950 139 960 117 950 b 56 960 101 950 67 960 b 33 946 46 960 40 958 z "},"]":{"ha":422,"x_min":0,"x_max":0,"o":"m 218 -175 b 279 -167 235 -175 251 -167 b 392 -31 386 -167 392 -144 b 385 93 392 14 385 43 b 369 167 385 118 371 142 b 368 265 367 192 368 217 b 369 489 368 329 369 397 b 364 590 369 521 367 557 b 371 776 364 649 371 706 b 360 974 371 842 360 908 b 307 1054 360 1006 347 1054 b 165 1050 244 1054 213 1050 b 126 963 129 1050 126 1008 b 215 838 126 811 182 897 b 231 790 221 828 231 789 b 226 774 231 785 226 779 b 236 654 226 732 236 696 b 232 533 236 615 232 574 b 265 231 232 432 265 340 b 263 108 265 192 263 150 b 215 11 263 72 256 26 b 144 -74 172 11 144 -3 b 189 -178 144 -161 157 -178 b 218 -175 197 -178 207 -176 z "},"^":{"ha":626,"x_min":0,"x_max":0,"o":"m 479 319 b 501 268 479 272 494 268 b 525 283 507 268 525 274 b 597 442 525 417 597 407 b 315 960 597 532 388 960 b 36 450 231 960 79 542 b 35 442 36 449 35 443 b 71 410 35 426 54 415 b 92 375 79 408 82 403 l 92 289 b 118 244 92 250 111 244 b 149 296 132 244 149 253 l 149 376 b 168 425 149 413 164 419 b 196 472 185 443 174 438 b 251 518 203 488 250 503 b 265 557 261 533 265 544 b 251 610 265 579 253 596 b 321 717 271 628 301 717 b 335 700 328 717 335 708 b 382 571 336 594 364 571 b 463 426 400 571 432 475 b 479 319 468 417 479 386 z "},"_":{"ha":658,"x_min":0,"x_max":0,"o":"m 594 -93 b 156 -108 578 -93 221 -108 b 54 -89 118 -108 88 -89 b 13 -146 26 -89 13 -115 b 50 -207 13 -183 31 -190 b 92 -244 67 -222 74 -244 b 149 -222 118 -244 119 -222 b 215 -217 163 -222 189 -217 b 250 -221 226 -217 239 -218 b 296 -258 268 -225 274 -258 b 354 -225 317 -258 331 -229 b 388 -222 364 -222 376 -222 b 476 -232 421 -222 454 -228 b 547 -279 532 -242 540 -279 b 590 -232 563 -279 574 -232 b 629 -290 594 -232 615 -290 b 650 -219 650 -290 643 -240 b 674 -153 657 -200 674 -172 b 594 -93 674 -111 629 -93 z "},"`":{"ha":411,"x_min":0,"x_max":0,"o":"m 331 1014 b 388 1069 354 1014 388 1047 b 188 1233 388 1114 239 1233 b 107 1149 153 1233 107 1185 b 331 1014 107 1099 292 1014 z "},"a":{"ha":508,"x_min":0,"x_max":0,"o":"m 174 957 b 115 690 125 957 132 782 b 82 475 89 547 99 532 b 68 414 74 449 68 428 b 75 390 68 401 75 399 b 69 357 75 383 74 372 l 39 231 l 26 169 b 22 68 21 144 22 103 b 13 -32 22 1 13 -7 b 28 -49 13 -43 18 -49 b 64 -14 39 -49 53 -14 b 106 -85 92 -14 69 -85 b 125 -40 125 -85 125 -62 b 178 49 125 46 178 0 b 168 94 178 65 168 83 b 196 131 168 113 196 119 b 188 171 196 150 188 151 b 197 188 188 181 192 188 b 251 138 208 188 233 138 b 290 200 275 138 271 200 b 318 122 311 200 318 167 b 335 11 318 81 333 43 b 361 -110 336 -36 335 -110 b 378 -83 369 -110 378 -101 b 374 -37 378 -68 374 -47 b 382 -12 374 -21 376 -14 b 415 -75 397 -12 396 -75 b 446 -14 436 -75 422 -14 b 458 -31 454 -14 458 -18 b 456 -61 458 -39 456 -51 b 478 -85 456 -76 461 -85 b 513 -28 500 -85 513 -67 b 481 131 513 13 508 28 b 461 247 464 188 461 226 b 431 408 461 304 431 331 b 386 642 431 497 386 636 b 378 743 381 674 378 708 b 383 797 378 758 383 785 b 374 851 382 813 378 833 l 361 897 b 328 954 350 940 353 954 b 247 936 304 954 286 936 b 174 957 219 936 190 953 z m 232 518 b 251 450 247 518 232 450 b 275 499 269 450 261 499 b 286 396 281 499 286 489 b 292 351 286 376 292 361 b 250 333 292 342 282 333 b 207 350 222 333 207 339 b 217 385 207 371 217 379 b 207 422 215 394 207 403 b 232 518 207 456 215 518 z "},"b":{"ha":558,"x_min":0,"x_max":0,"o":"m 367 186 b 278 135 367 165 331 135 b 251 158 269 135 269 158 b 236 156 247 158 240 156 b 222 176 226 156 222 165 b 213 231 222 207 213 214 b 224 246 213 240 215 246 b 251 235 232 246 246 235 b 263 244 258 235 263 238 b 239 318 263 257 239 282 b 269 396 239 365 257 396 b 281 378 278 396 281 392 b 276 339 281 357 276 349 b 300 290 276 313 286 290 b 321 347 318 290 301 347 b 343 315 335 347 343 335 b 329 224 343 296 329 257 b 367 186 328 203 365 208 z m 351 674 b 339 629 351 664 339 644 b 344 600 339 621 344 610 b 300 535 344 568 325 535 b 207 610 275 535 207 560 b 226 674 207 631 226 651 b 224 708 226 682 224 694 b 242 789 224 731 225 789 b 265 744 257 789 250 744 b 288 781 272 744 265 781 b 322 758 304 781 322 774 b 306 682 322 725 306 706 b 322 664 306 665 319 664 b 347 690 333 664 344 690 b 351 674 350 690 351 686 z m 515 178 b 519 272 517 217 519 242 b 493 361 519 307 518 336 b 481 381 485 371 481 376 b 488 401 481 385 488 390 b 413 471 488 429 413 429 b 431 481 413 482 415 481 b 460 499 447 481 449 499 b 478 490 468 499 468 490 b 507 603 504 490 493 533 b 515 683 514 639 515 664 b 506 776 515 689 506 722 b 367 914 506 832 454 893 b 304 940 360 915 324 940 b 247 931 289 940 258 931 b 207 940 238 931 211 940 b 154 931 186 940 164 931 b 113 942 143 931 121 942 b 61 878 88 942 61 910 b 71 775 61 876 71 825 b 64 718 71 764 64 732 b 47 617 64 672 47 647 b 58 576 47 594 49 576 b 93 633 75 576 74 633 b 101 594 99 633 101 621 b 83 350 101 572 100 518 b 58 171 69 218 58 206 b 74 118 58 149 74 150 b 61 0 74 71 61 39 b 94 -57 61 -25 94 -14 b 126 -92 94 -87 118 -92 b 164 -4 156 -92 132 -4 b 207 -99 186 -4 167 -99 b 228 -69 224 -99 228 -83 b 224 -21 228 -60 224 -37 b 236 6 224 -10 225 6 b 269 -17 250 6 257 -17 b 292 -7 278 -17 279 -7 b 331 -31 308 -7 319 -31 b 356 -8 344 -31 344 -8 b 369 -24 367 -8 369 -14 b 368 -87 369 -31 368 -76 b 382 -112 368 -96 371 -112 b 411 15 406 -112 382 15 b 449 -6 425 15 433 -6 b 486 90 476 -6 468 90 b 506 81 490 90 492 81 b 526 110 519 81 526 90 b 515 178 526 119 515 164 z "},"c":{"ha":546,"x_min":0,"x_max":0,"o":"m 250 974 b 126 910 232 974 214 947 b 47 726 74 886 47 825 b 56 367 47 593 56 464 b 39 243 56 293 39 275 b 46 233 39 238 40 233 b 58 242 51 233 53 242 b 63 225 63 242 63 235 b 54 186 63 219 54 200 b 67 158 54 172 67 175 b 60 118 67 144 60 138 b 72 78 60 89 64 78 b 83 93 81 78 79 93 b 117 18 92 93 97 35 b 138 8 122 13 131 11 b 172 -57 157 1 157 -57 b 194 -11 192 -57 174 -11 b 231 -99 226 -11 211 -99 b 272 -29 267 -99 242 -29 b 319 -83 288 -29 308 -83 b 342 -36 332 -83 335 -42 b 404 8 356 -15 392 -4 b 490 136 465 65 490 93 b 488 189 490 158 488 175 b 517 301 488 232 517 265 b 482 350 517 326 506 347 b 456 339 476 350 465 339 b 424 347 443 339 435 347 b 396 336 414 347 407 336 b 361 350 386 336 374 350 b 349 329 353 350 349 342 b 351 289 349 317 351 308 b 289 115 351 239 340 118 b 257 126 279 115 267 126 b 224 121 249 126 229 121 b 194 156 208 121 194 131 b 203 203 194 172 194 188 b 211 219 208 208 211 214 b 192 258 211 233 192 249 b 211 278 192 265 194 272 b 240 315 233 286 240 304 b 235 389 240 321 235 342 b 219 439 235 408 229 425 b 193 494 199 467 193 481 b 214 597 193 521 214 567 b 200 661 214 621 200 618 b 210 681 200 668 200 681 b 233 675 219 681 224 675 b 251 700 243 675 251 686 b 229 757 251 711 229 736 b 250 779 229 768 239 779 b 265 751 263 779 265 768 b 263 704 265 738 263 719 b 286 640 263 693 265 640 b 304 668 300 640 304 653 b 294 738 304 689 294 719 b 315 799 294 772 304 799 b 335 689 332 799 335 754 b 333 660 335 675 333 667 b 360 586 333 611 349 607 b 381 540 369 568 358 540 b 414 615 413 540 382 615 b 439 594 419 615 432 594 b 457 604 443 594 451 604 b 486 568 461 604 476 568 b 506 594 500 568 506 582 b 499 647 506 608 499 617 b 507 735 499 669 507 715 b 403 922 507 804 456 906 b 250 974 356 942 276 974 z "},"d":{"ha":567,"x_min":0,"x_max":0,"o":"m 522 313 b 531 474 522 325 531 376 b 490 625 531 508 490 579 b 515 693 490 646 515 626 b 514 722 515 701 514 713 b 356 921 492 840 432 915 b 279 940 325 924 308 939 b 224 925 265 940 239 925 b 171 946 208 926 186 946 b 114 933 164 946 133 933 b 82 936 110 933 88 936 b 36 885 46 936 36 914 b 40 811 36 863 40 863 b 89 735 40 778 89 767 b 69 642 89 728 69 689 b 81 589 69 636 81 608 b 64 415 81 532 64 479 b 49 315 64 389 49 342 b 56 294 49 308 51 301 b 74 247 71 265 74 261 b 65 164 74 233 65 196 b 72 49 65 142 72 125 b 61 -4 72 21 61 13 b 72 -21 61 -11 64 -21 b 90 -14 82 -21 85 -14 b 107 -44 107 -14 107 -40 b 101 -90 107 -54 101 -75 b 122 -115 101 -110 115 -115 b 146 -93 140 -115 146 -107 b 125 -39 146 -78 125 -50 b 158 3 125 -29 132 3 b 267 -36 232 3 244 -36 b 304 -18 281 -36 282 -18 b 371 -97 339 -18 353 -97 b 381 -86 378 -97 381 -93 b 378 -53 381 -78 378 -67 b 400 -11 378 -33 383 -11 b 454 -47 413 -11 439 -47 b 471 -26 465 -47 471 -40 b 469 7 471 -10 469 -1 b 504 68 469 35 504 56 b 496 126 504 101 496 92 b 526 174 496 144 526 146 b 514 235 526 189 514 204 b 522 313 514 272 522 292 z m 367 354 l 367 319 b 293 150 367 167 335 150 b 254 151 281 150 268 151 b 204 257 217 151 204 240 b 221 275 204 264 208 275 b 240 271 224 275 239 271 b 250 283 247 271 250 275 b 229 336 250 304 236 319 b 219 401 221 358 219 376 b 240 540 219 468 240 478 b 211 649 240 571 211 608 b 224 710 211 676 224 692 b 217 757 224 717 217 756 b 229 794 217 765 218 794 b 250 758 239 794 250 775 b 243 715 250 749 243 725 b 275 674 243 692 253 674 b 282 683 279 674 282 676 b 274 736 282 694 274 722 b 283 751 274 747 276 751 b 304 722 303 751 304 740 b 303 669 304 710 303 696 b 294 583 303 663 294 624 b 306 561 294 568 299 561 b 347 613 326 561 324 613 b 374 568 368 613 374 594 b 367 381 374 504 367 440 z "},"e":{"ha":485,"x_min":0,"x_max":0,"o":"m 465 99 b 422 142 465 119 443 142 b 403 140 415 142 408 140 b 329 151 385 140 349 151 b 297 150 317 151 306 150 b 218 201 238 150 218 179 b 238 275 218 217 238 254 b 228 364 238 339 228 353 b 246 378 228 375 233 378 b 275 372 256 378 265 372 b 313 326 290 372 296 326 b 342 378 336 326 313 378 b 383 301 376 378 356 301 b 417 361 396 301 417 336 b 390 483 417 382 390 454 b 403 532 390 497 403 522 b 379 567 403 551 393 567 b 321 563 372 567 342 567 b 268 553 315 563 272 553 b 194 682 247 553 194 600 b 232 757 194 725 201 757 b 250 754 238 757 242 754 b 299 789 265 754 268 789 b 350 764 315 789 332 776 b 364 714 354 757 357 746 b 379 703 365 707 371 703 b 408 794 407 703 383 794 b 421 704 417 794 421 753 b 418 651 421 700 418 663 b 438 631 418 638 425 631 b 465 657 457 631 465 640 b 446 871 465 707 446 835 b 429 940 446 922 439 940 b 393 931 408 940 403 931 b 364 938 383 931 378 938 b 317 922 344 938 331 922 b 251 944 296 922 271 944 b 224 936 238 944 233 936 b 188 949 214 936 200 949 b 136 936 167 949 161 936 b 108 938 126 936 114 938 b 56 906 78 938 56 928 b 69 868 56 894 69 878 b 65 843 69 861 65 850 b 72 794 65 829 72 806 b 69 746 72 782 69 760 b 83 679 69 726 83 689 b 65 563 83 644 65 610 b 46 461 65 532 63 490 b 40 435 40 449 40 442 b 53 411 40 426 42 411 b 72 415 58 411 67 415 b 93 396 88 415 93 408 b 75 308 93 389 75 342 b 65 121 75 265 65 165 l 65 90 b 64 56 65 81 64 63 l 64 29 b 83 -32 67 18 58 -32 b 106 -24 89 -32 100 -24 b 146 -44 115 -24 136 -44 b 172 -24 158 -44 168 -24 b 231 -110 196 -24 188 -110 b 250 -79 242 -110 250 -106 b 242 -50 250 -69 242 -61 b 276 -14 242 -40 256 -14 b 338 -117 301 -14 317 -118 b 351 -101 350 -117 351 -112 b 336 -35 351 -65 340 -58 b 365 -6 336 -18 349 -6 b 435 -19 382 -6 425 -19 b 456 4 449 -19 456 -12 b 453 49 456 25 453 42 b 465 99 453 61 465 83 z "},"f":{"ha":439,"x_min":0,"x_max":0,"o":"m 444 928 b 424 943 440 936 435 942 b 382 933 407 943 393 933 b 313 943 379 933 336 943 b 229 931 285 943 244 931 b 183 938 218 931 196 938 b 142 931 172 938 151 931 b 78 944 115 931 96 944 b 56 924 64 944 56 936 b 71 875 56 911 71 883 b 46 744 71 836 46 790 b 76 532 46 650 76 628 b 39 401 76 433 39 435 b 49 381 39 394 42 386 b 81 329 85 347 81 340 b 64 176 81 304 64 264 b 69 64 64 126 69 108 b 57 17 69 50 57 35 b 76 -4 57 3 65 -4 b 97 -3 81 -4 92 -3 b 142 -42 114 -3 121 -42 b 171 -24 157 -42 156 -24 b 182 -36 176 -24 182 -28 b 175 -72 182 -40 175 -54 b 193 -87 175 -85 186 -87 b 226 40 221 -87 226 10 b 217 204 226 90 217 131 b 228 261 217 211 228 231 b 213 360 228 293 213 324 b 236 401 213 383 217 401 b 283 367 253 401 275 367 b 328 399 299 367 313 399 b 367 329 353 399 339 329 b 388 353 382 329 388 336 b 382 444 386 382 382 415 b 401 547 382 500 401 514 b 386 561 401 557 396 561 b 357 551 382 557 367 551 b 313 564 343 551 324 564 b 250 544 290 564 272 544 b 224 579 235 544 224 564 b 250 669 224 596 250 642 b 239 732 250 683 239 722 b 257 753 239 743 246 753 b 271 751 261 753 267 751 b 292 772 276 751 282 772 b 317 668 314 772 317 682 b 346 621 318 646 322 621 b 356 649 353 621 356 629 b 350 749 356 693 350 739 b 372 781 350 761 356 781 b 397 746 386 781 397 763 b 389 714 397 736 389 718 b 403 700 389 707 394 700 b 428 708 407 700 422 708 b 439 700 433 708 439 706 b 431 650 439 689 431 668 b 438 633 431 639 433 633 b 458 656 451 633 458 643 b 449 808 458 685 449 763 b 461 876 449 817 461 851 b 457 899 461 883 460 890 z "},"g":{"ha":547,"x_min":0,"x_max":0,"o":"m 500 72 b 488 140 500 92 488 128 b 497 261 488 172 497 229 b 485 353 497 283 485 336 b 496 432 485 372 496 410 b 451 461 496 458 490 461 b 368 490 429 461 390 490 b 315 482 356 490 322 482 b 293 483 311 482 300 483 b 238 404 256 483 238 450 b 257 317 238 368 257 344 b 256 285 257 310 256 290 b 274 260 256 268 261 260 b 292 286 285 260 292 269 b 283 350 292 308 283 328 b 303 363 283 358 296 363 b 339 325 308 363 339 353 b 319 257 339 313 319 272 b 332 204 319 246 332 219 b 274 128 332 164 306 128 b 214 214 219 128 224 172 b 201 271 207 239 200 257 b 211 358 201 282 211 311 b 197 504 211 413 197 497 b 225 582 197 531 225 554 b 214 676 225 607 214 617 b 247 750 214 703 228 750 b 260 729 250 750 260 744 b 251 686 260 717 251 700 b 271 669 251 674 263 669 b 292 724 285 669 292 697 b 283 776 292 738 283 767 b 304 792 283 786 290 792 b 342 726 313 792 342 788 b 331 664 342 713 331 679 b 388 581 331 615 388 622 b 382 547 388 575 382 553 b 408 532 382 540 386 532 b 439 592 426 532 414 592 b 458 574 451 592 458 585 b 454 526 458 549 454 535 b 468 493 454 511 457 493 b 488 521 486 493 488 506 b 485 594 488 544 485 579 b 499 710 485 647 499 697 b 283 961 499 842 426 961 b 153 919 215 961 210 942 b 53 753 65 885 63 860 l 53 697 b 40 624 53 676 40 636 b 46 579 40 601 46 599 b 40 519 46 568 40 536 b 42 478 40 515 42 489 b 19 403 42 446 19 428 b 46 319 19 371 46 364 b 44 279 46 310 44 290 b 51 221 44 275 51 238 b 44 186 51 210 44 197 b 61 103 44 165 61 125 b 53 36 61 74 53 47 b 64 24 53 28 57 24 b 96 60 79 24 86 60 b 107 50 103 60 107 54 b 96 6 107 44 96 21 b 124 -24 96 -14 111 -24 b 150 -7 135 -24 142 -7 b 175 -99 163 -7 175 -24 b 174 -124 175 -104 174 -119 b 194 -149 174 -142 181 -149 b 214 -42 217 -149 214 -97 b 264 -12 214 -18 254 -12 b 307 -61 278 -12 297 -19 b 328 -78 310 -72 319 -78 b 374 -18 346 -78 374 -65 b 368 26 374 -14 368 7 b 383 60 368 49 374 60 b 393 49 390 60 393 56 b 389 -7 393 29 389 11 b 408 -33 389 -24 396 -33 b 425 -10 415 -33 419 -10 b 467 -72 435 -10 438 -72 b 488 -44 475 -72 488 -65 b 468 0 488 -26 468 -8 b 500 72 468 19 500 44 z "},"h":{"ha":576,"x_min":0,"x_max":0,"o":"m 532 315 b 535 329 533 322 535 328 b 519 389 535 340 519 372 b 529 453 519 406 529 435 b 524 521 529 458 524 482 l 524 540 b 501 676 524 554 501 628 b 507 715 501 692 503 704 l 519 743 b 529 829 526 760 529 803 b 490 954 529 896 525 947 b 456 946 485 954 461 946 b 390 951 447 946 429 951 b 329 914 361 951 329 933 b 350 872 329 906 350 896 b 339 804 350 860 339 825 b 340 696 339 793 340 774 l 340 625 b 350 574 340 611 350 576 b 338 560 349 565 344 560 b 289 571 339 560 307 571 b 264 567 281 571 271 567 b 221 644 235 567 221 600 b 254 710 221 715 254 685 b 222 861 254 746 222 764 b 186 946 222 894 219 946 b 164 943 176 946 171 943 b 128 947 153 943 135 947 b 63 879 86 947 63 910 b 65 796 63 856 65 832 b 39 604 65 736 39 635 b 49 583 39 592 42 585 b 65 596 53 583 60 596 b 92 514 74 596 92 544 b 64 340 92 503 64 415 l 64 288 b 40 207 64 267 40 225 b 81 129 40 146 81 175 b 60 75 81 118 60 86 b 72 26 60 65 72 40 b 61 -32 72 10 60 -31 b 72 -44 61 -40 67 -44 b 119 -14 79 -44 104 -14 b 139 -44 132 -14 139 -24 b 135 -83 139 -54 136 -67 b 154 -104 135 -94 144 -104 b 171 -89 165 -104 171 -99 b 154 -50 171 -79 154 -61 b 211 -17 161 -22 192 -17 b 221 -18 217 -17 218 -18 b 246 21 231 -18 246 6 b 231 86 246 22 231 54 b 232 100 231 92 232 94 b 224 154 232 124 224 139 b 232 232 224 167 232 210 b 218 304 232 250 218 292 b 226 315 218 311 222 315 b 261 281 240 315 253 281 b 274 301 269 281 274 293 l 274 319 b 268 356 274 343 268 354 b 282 374 268 367 276 374 b 311 367 286 374 304 367 b 356 404 321 367 347 404 b 372 375 365 404 372 394 b 364 288 372 357 364 301 b 338 181 364 256 338 208 b 339 161 338 171 339 167 b 336 129 339 157 336 136 b 347 19 336 117 346 35 l 347 -10 b 361 -36 347 -26 353 -36 b 408 -14 376 -36 393 -14 b 428 -53 421 -14 428 -25 l 428 -76 b 435 -99 428 -92 431 -99 b 451 -82 446 -99 451 -93 b 442 -36 451 -85 442 -47 b 461 -19 442 -19 457 -19 b 486 -24 465 -19 481 -24 b 529 50 499 -24 529 15 b 500 232 529 67 500 129 b 532 315 500 274 529 307 z "},"i":{"ha":289,"x_min":0,"x_max":0,"o":"m 250 583 b 257 600 254 583 257 589 b 229 783 257 640 229 743 b 251 881 229 814 251 847 b 179 946 251 925 204 946 b 138 936 165 946 151 936 b 81 949 121 936 92 949 b 50 919 63 949 50 938 b 60 860 50 903 56 885 b 39 781 60 840 39 800 b 53 747 39 763 40 765 b 74 697 72 718 71 707 b 67 633 74 683 67 643 b 75 511 67 625 75 579 b 40 376 75 461 40 421 b 69 303 40 335 69 331 b 56 186 69 283 56 244 b 40 75 56 133 40 78 b 67 6 40 53 43 36 b 89 -29 83 -15 89 -21 b 86 -78 89 -33 86 -56 b 100 -94 86 -90 92 -94 b 138 -22 122 -94 115 -22 b 146 -56 144 -22 146 -33 b 144 -122 146 -69 144 -108 b 154 -158 144 -146 147 -158 b 182 -108 175 -158 182 -124 b 174 -31 182 -97 174 -46 b 235 1 174 -6 235 -32 b 217 49 235 8 217 39 b 224 118 217 63 224 94 b 222 168 224 128 222 153 b 235 265 222 206 235 243 b 214 385 235 303 214 363 b 222 488 214 393 222 421 b 211 561 222 513 211 538 b 236 585 211 582 226 585 b 250 583 240 585 246 583 z "},"j":{"ha":340,"x_min":0,"x_max":0,"o":"m 303 683 b 278 763 303 710 278 728 b 290 857 278 782 290 831 b 283 910 290 879 283 875 b 286 924 283 914 286 918 b 231 960 286 947 249 960 b 172 947 214 960 192 947 b 132 963 165 947 147 963 b 118 950 128 963 118 963 b 128 907 118 932 128 917 b 101 831 128 883 101 858 b 139 678 101 807 139 788 b 144 618 139 661 144 640 b 142 593 144 610 143 601 b 119 451 129 538 133 496 b 115 425 115 442 115 433 b 143 351 115 417 143 364 b 131 286 143 346 131 306 b 139 238 131 278 139 265 b 82 167 139 211 121 186 b 8 125 58 154 8 169 b 24 49 8 100 24 75 b 11 -37 24 35 11 6 b 31 -90 11 -69 15 -90 b 53 -67 46 -90 53 -78 b 49 -28 53 -35 49 -35 b 56 -4 49 -12 50 -4 b 76 -18 65 -4 72 -18 b 107 -12 86 -18 94 -12 b 142 -87 129 -12 142 -26 b 139 -142 142 -101 139 -119 b 144 -174 139 -162 139 -174 b 176 -37 167 -174 172 -86 b 218 25 179 -4 206 25 b 243 10 226 25 231 10 b 286 143 253 10 286 119 b 267 206 286 153 267 178 b 286 289 267 224 286 258 b 278 382 286 296 278 326 b 293 515 278 440 293 497 b 271 611 293 547 271 607 b 303 683 271 640 303 656 z "},"k":{"ha":540,"x_min":0,"x_max":0,"o":"m 107 946 b 58 889 74 946 58 939 b 67 739 58 843 67 776 b 57 649 67 714 57 682 b 71 542 57 611 71 572 b 60 413 71 456 60 447 b 63 356 60 403 63 382 b 26 214 63 240 26 256 b 61 149 26 197 61 179 b 54 90 61 132 54 115 b 92 -85 54 68 65 -78 b 122 -37 117 -85 106 -37 b 157 -157 136 -37 135 -157 b 179 -99 169 -157 179 -140 b 174 -62 179 -90 174 -71 b 197 -25 174 -51 176 -40 b 232 24 233 1 232 11 b 217 88 232 44 217 65 b 243 274 217 171 224 211 b 250 321 250 296 250 311 b 229 378 250 335 229 365 b 261 418 229 406 243 418 b 274 379 267 418 274 414 b 321 211 274 317 306 264 b 356 94 331 172 347 132 b 369 15 357 79 356 36 b 407 -25 379 0 394 -11 b 421 -62 410 -31 408 -61 b 444 -39 426 -62 435 -39 b 461 -57 456 -39 461 -47 b 458 -87 461 -64 458 -82 b 481 -143 458 -108 463 -143 b 503 -86 494 -143 503 -93 b 490 -31 503 -74 490 -44 b 542 26 490 -10 539 3 b 535 75 540 49 535 64 b 536 85 535 79 535 82 b 463 226 536 124 454 242 b 407 417 425 343 444 336 b 390 482 396 439 390 461 b 393 532 390 496 393 519 b 379 599 393 551 379 585 b 403 638 379 614 385 638 b 425 632 408 638 418 632 b 439 654 435 632 439 640 b 429 710 439 671 429 689 b 457 763 429 731 442 763 b 469 739 468 763 469 749 b 467 681 469 729 467 707 b 485 660 467 672 472 660 b 501 690 494 660 501 665 b 492 764 501 718 492 744 b 521 936 492 796 521 918 b 504 956 521 946 515 956 b 457 943 489 956 474 943 b 415 947 446 943 425 947 b 379 914 407 947 390 944 b 332 850 375 903 358 879 b 282 746 304 819 313 815 b 242 619 250 672 257 619 b 215 651 222 619 215 638 b 222 701 215 661 222 688 b 213 750 222 706 213 729 b 246 793 213 769 246 771 b 232 889 246 828 232 832 b 235 924 232 893 235 917 b 210 949 235 943 224 949 b 160 938 197 949 174 938 b 107 946 143 938 124 946 z "},"l":{"ha":444,"x_min":0,"x_max":0,"o":"m 413 143 b 372 142 401 143 388 142 b 347 143 363 142 358 143 b 282 132 331 143 297 132 b 222 199 246 132 222 158 b 224 238 222 217 224 224 b 214 301 224 254 214 271 b 224 411 214 331 224 382 b 214 490 224 429 214 486 b 232 551 214 515 232 532 b 224 599 232 556 224 588 b 254 660 224 618 254 642 b 226 725 254 679 226 714 b 240 776 226 739 240 764 b 232 840 240 793 232 824 b 243 889 232 853 243 879 b 183 933 243 925 215 933 b 90 960 147 933 113 960 b 50 915 65 960 50 946 b 65 856 50 904 65 871 b 51 749 65 807 51 758 b 85 633 51 714 85 688 b 64 522 85 601 64 551 b 65 447 64 503 65 475 b 64 408 65 435 65 422 b 35 297 63 381 35 331 b 51 153 35 257 51 207 l 51 60 b 58 -1 51 42 54 13 b 85 -43 63 -17 83 -33 b 107 -107 89 -74 90 -107 b 121 -92 117 -107 121 -101 b 118 -61 121 -86 118 -67 b 179 -19 118 -29 146 -19 b 228 -39 190 -19 213 -39 b 257 -28 235 -39 249 -28 b 308 -108 308 -28 279 -108 b 331 -14 328 -108 310 -14 b 361 -65 356 -14 361 -43 b 358 -104 361 -79 358 -94 b 375 -121 358 -117 367 -121 b 394 -99 383 -121 394 -114 b 383 -43 394 -75 383 -57 b 426 -3 383 -36 396 -15 b 450 24 442 4 450 13 b 439 65 450 33 439 54 b 457 110 439 71 457 94 b 413 143 457 126 447 143 z "},"m":{"ha":739,"x_min":0,"x_max":0,"o":"m 496 958 b 451 917 469 958 451 936 b 460 874 451 904 460 890 b 435 792 460 853 439 813 b 408 647 429 758 425 671 b 382 586 385 617 382 597 b 388 525 382 576 388 574 b 360 432 388 451 382 432 b 331 649 339 432 331 551 b 258 914 331 738 290 872 b 108 949 229 951 132 949 b 58 906 83 949 58 944 b 72 863 58 896 72 874 b 60 783 72 822 60 806 b 72 707 60 764 72 722 b 51 539 72 656 51 567 b 61 410 51 504 61 431 b 51 326 61 388 51 349 b 61 274 51 311 56 289 b 83 133 65 256 83 196 b 65 -19 83 92 65 38 b 81 -39 65 -32 71 -39 b 108 -22 90 -39 104 -22 b 115 -74 113 -22 115 -28 b 113 -140 115 -89 113 -122 l 113 -164 b 121 -210 113 -192 115 -210 b 154 -119 139 -210 154 -168 b 149 -37 154 -93 149 -62 b 168 -6 149 -15 156 -6 b 186 -8 172 -6 181 -8 b 221 42 213 -8 221 11 b 200 240 221 69 200 128 b 203 322 200 272 203 297 b 197 390 203 332 197 376 b 232 456 197 449 232 456 b 256 426 251 456 256 446 b 244 286 256 408 244 332 b 311 151 244 215 307 236 b 306 50 311 146 306 75 b 328 -21 306 28 311 -21 b 354 -11 336 -21 349 -11 b 378 -50 369 -11 378 -24 b 374 -100 378 -60 374 -79 b 388 -119 374 -111 376 -119 b 413 -72 406 -119 413 -93 b 401 -7 413 -40 401 -21 b 442 157 401 38 442 99 b 488 406 442 228 483 306 b 501 492 490 463 488 492 b 524 363 521 492 524 403 b 506 204 524 301 506 254 b 524 106 506 169 524 183 b 508 32 524 85 508 54 b 524 -26 508 10 508 6 b 529 -50 528 -33 529 -40 b 521 -114 529 -61 521 -89 b 546 -174 521 -140 529 -174 b 564 -79 564 -174 564 -171 b 558 -32 564 -46 560 -42 b 578 -12 558 -22 564 -12 b 643 -58 594 -12 621 -58 b 689 39 679 -58 689 -3 b 672 90 689 71 672 75 b 693 163 672 126 693 142 b 679 292 693 204 679 222 b 700 360 679 322 700 331 b 672 493 700 397 672 460 b 676 589 672 514 676 536 b 711 700 676 646 711 661 b 679 832 711 746 679 803 b 688 907 679 881 688 888 b 642 949 688 947 651 949 b 563 939 625 949 600 939 b 496 958 532 939 515 958 z "},"n":{"ha":603,"x_min":0,"x_max":0,"o":"m 563 263 b 540 331 563 279 540 326 b 543 365 540 344 543 353 b 522 482 543 389 522 465 b 542 554 522 499 531 540 b 582 622 560 574 582 590 b 544 774 582 676 544 722 b 564 857 544 790 564 844 b 489 954 564 914 538 954 b 374 892 436 954 374 936 b 399 789 374 867 399 818 b 383 640 399 757 383 721 b 401 519 383 588 401 529 b 390 447 401 489 390 474 b 371 426 390 432 382 426 b 346 486 350 426 346 446 b 351 511 346 493 351 501 b 329 571 351 538 331 563 b 308 721 324 594 329 681 b 240 867 265 806 240 807 b 246 919 240 885 246 900 b 175 957 246 944 224 957 b 78 890 106 957 78 926 b 86 801 78 867 86 829 b 63 719 86 792 63 749 b 86 625 63 685 86 657 b 63 504 86 593 63 522 b 86 400 63 492 86 435 b 49 281 86 356 49 321 b 60 193 49 250 60 206 b 38 74 60 149 38 114 b 40 25 38 57 40 42 b 38 -35 40 13 38 -1 b 69 -121 38 -67 56 -121 b 88 -81 74 -121 88 -115 b 76 -32 88 -68 76 -40 b 101 -12 76 -17 92 -12 b 158 -78 111 -12 154 -18 b 175 -108 160 -97 167 -108 b 193 -87 188 -108 193 -101 b 190 -40 193 -78 190 -61 b 217 19 190 -33 217 -8 b 208 83 217 39 208 40 b 194 157 208 103 194 138 b 215 214 194 176 215 194 b 206 293 215 243 206 279 b 211 349 206 315 211 332 b 203 421 211 371 203 397 b 225 464 203 447 214 464 b 274 279 254 464 274 360 b 264 136 274 224 264 179 b 275 107 264 117 268 107 b 306 167 285 107 306 124 b 336 224 306 206 314 224 b 353 203 347 224 353 218 b 340 118 353 164 340 153 b 378 40 340 79 357 72 b 424 -60 396 10 404 -60 b 451 -19 435 -60 435 -19 b 471 -83 461 -19 471 -35 b 469 -111 471 -89 469 -104 b 492 -137 469 -128 478 -137 b 517 -115 503 -137 517 -132 b 507 -53 517 -100 507 -64 b 514 -36 507 -49 510 -42 b 539 25 536 -4 539 10 b 531 139 539 57 531 39 b 546 225 531 165 532 201 b 563 263 554 238 563 250 z "},"o":{"ha":554,"x_min":0,"x_max":0,"o":"m 236 764 b 276 711 258 764 263 711 b 314 786 293 711 299 786 b 343 746 336 786 343 765 b 331 650 343 714 331 686 b 349 461 331 565 349 517 b 340 411 349 444 346 428 b 329 340 329 375 329 367 b 332 247 329 321 332 271 b 331 201 332 224 331 207 b 335 164 331 192 335 171 b 278 108 335 133 310 108 b 221 176 250 108 250 117 b 210 208 214 189 210 199 b 238 392 210 265 238 310 b 218 528 238 415 218 497 b 224 617 218 547 224 558 b 213 719 224 647 213 681 b 236 764 213 736 219 764 z m 236 972 b 54 840 215 972 75 926 b 31 739 51 831 31 771 b 40 678 31 708 40 699 b 7 485 40 646 7 519 b 49 326 7 425 49 363 b 25 165 49 294 25 213 b 65 -14 25 106 47 -14 b 82 1 75 -14 82 -10 b 81 22 82 6 81 13 b 101 56 81 38 85 56 b 147 -19 111 56 124 49 b 196 -124 169 -83 164 -119 b 242 -46 218 -124 214 -46 b 283 -74 263 -46 272 -74 b 313 -56 294 -74 297 -56 b 332 -118 329 -56 328 -75 b 356 -164 335 -161 346 -164 b 396 -36 394 -164 358 -36 b 432 -86 411 -36 414 -86 b 468 74 451 -86 468 -26 b 507 324 468 175 507 140 l 507 375 b 531 686 507 468 531 544 b 486 864 531 785 517 826 b 236 972 442 917 317 972 z "},"p":{"ha":533,"x_min":0,"x_max":0,"o":"m 247 938 b 113 957 193 938 153 957 b 46 904 76 957 46 936 b 60 860 46 892 60 869 b 39 789 60 833 39 808 b 71 681 39 758 71 700 b 64 571 71 649 67 608 b 46 483 64 550 46 489 b 72 390 46 447 72 411 l 72 347 b 51 210 72 300 69 250 b 46 183 46 199 46 193 b 74 79 46 150 74 100 b 68 11 74 50 68 40 b 92 -75 68 -6 71 -75 b 136 -19 114 -75 92 -19 b 169 -43 150 -19 169 -24 b 149 -136 169 -78 149 -106 b 179 -161 149 -151 165 -161 b 203 -146 186 -161 203 -157 b 196 -71 203 -124 196 -101 b 235 0 196 -42 235 -28 b 224 40 235 11 224 24 b 246 93 224 56 246 71 b 213 181 246 115 213 161 b 226 290 213 201 226 260 b 219 342 226 303 219 331 b 253 367 219 358 231 367 b 354 346 275 367 343 365 b 376 310 368 321 367 310 b 393 336 390 310 393 328 b 465 444 393 385 447 408 b 514 568 488 488 475 540 b 557 638 525 576 557 594 b 514 756 557 651 544 699 b 488 831 504 774 496 799 b 338 949 469 894 421 949 b 247 938 315 949 290 938 z m 347 631 b 263 504 347 574 308 504 b 208 547 213 504 208 539 b 229 604 208 560 229 589 b 222 633 229 614 222 622 b 246 678 222 647 246 664 b 196 758 246 703 196 693 b 231 789 196 776 197 789 b 281 760 258 789 281 785 b 271 674 281 739 271 699 b 286 651 271 664 279 651 b 328 700 306 651 304 700 b 347 631 343 700 347 690 z "},"q":{"ha":553,"x_min":0,"x_max":0,"o":"m 271 968 b 67 810 203 968 140 947 b 43 642 50 779 43 753 b 21 382 43 471 21 418 b 54 289 21 344 54 317 b 49 231 54 271 49 240 b 78 93 49 179 78 101 b 76 81 78 89 76 85 b 188 -15 76 38 110 39 b 233 -33 207 -29 221 -35 b 265 -29 247 -33 257 -29 b 304 -92 290 -29 278 -92 b 364 11 326 -92 340 11 b 374 0 371 11 374 7 b 364 -50 374 -14 364 -36 b 375 -60 364 -54 367 -60 b 407 -44 390 -60 396 -44 b 453 -110 426 -44 453 -89 b 451 -154 453 -115 451 -119 b 463 -167 451 -162 457 -167 b 504 -99 489 -167 488 -99 b 514 -135 515 -99 514 -125 b 511 -235 514 -146 511 -199 b 522 -254 511 -250 517 -254 b 554 -140 549 -254 554 -221 b 543 -11 554 -104 543 -35 b 550 60 543 14 550 38 b 525 103 550 68 544 97 b 479 138 496 110 479 111 b 501 260 479 156 501 207 b 497 354 501 279 497 313 b 546 504 497 468 546 460 b 515 599 546 522 515 576 b 531 679 515 629 531 660 b 467 864 531 707 515 739 b 271 968 442 928 375 968 z m 358 306 b 361 238 360 281 361 251 b 306 121 358 144 338 121 b 250 118 283 121 264 118 b 215 161 224 118 215 146 b 218 181 215 169 218 172 b 206 299 218 190 206 239 b 218 411 206 343 218 389 b 203 539 218 446 203 526 b 214 586 203 557 203 586 b 232 564 219 586 225 564 b 249 667 244 564 249 646 b 242 796 249 717 242 756 b 257 836 242 829 250 836 b 290 782 276 836 290 814 b 269 588 290 735 269 668 b 293 494 269 560 271 494 b 307 515 301 494 307 497 b 304 596 307 533 304 563 b 325 656 304 644 314 656 b 339 636 333 656 339 651 b 325 531 339 608 325 547 b 340 458 325 474 329 458 b 369 492 353 458 364 492 b 374 471 372 492 374 485 b 358 306 374 425 358 322 z "},"r":{"ha":549,"x_min":0,"x_max":0,"o":"m 539 33 b 488 138 539 63 496 115 b 475 250 478 160 483 221 b 451 307 469 268 467 272 b 443 342 446 319 443 331 b 450 378 443 357 450 367 b 429 435 450 397 429 415 b 436 442 429 438 432 442 b 475 413 449 442 463 413 b 500 443 488 413 500 426 b 496 475 500 449 496 457 b 504 601 496 508 504 568 b 519 690 504 624 519 668 b 507 801 519 732 514 763 b 310 936 501 833 489 904 b 311 936 310 936 310 936 b 200 943 279 936 232 943 b 143 936 186 943 158 936 b 78 957 131 936 93 957 b 51 935 67 957 51 949 b 57 906 51 925 57 911 b 49 835 57 885 49 853 b 67 760 49 818 65 779 b 92 661 69 744 92 700 b 61 535 92 617 61 576 b 83 375 61 510 83 415 b 58 229 83 356 58 285 b 83 92 58 210 83 139 b 60 18 83 76 60 28 b 85 -19 60 10 60 -4 b 117 -76 118 -40 117 -56 b 115 -111 117 -86 115 -106 b 129 -139 115 -124 115 -139 b 146 -125 142 -139 146 -133 b 138 -65 146 -119 138 -86 b 172 -24 138 -46 156 -24 b 210 -81 196 -24 179 -81 b 225 -15 224 -81 225 -65 b 210 100 225 26 210 64 b 219 240 210 150 219 224 b 213 331 219 249 213 318 b 221 356 213 347 215 356 b 249 300 239 356 229 301 b 257 308 251 300 257 301 b 253 343 257 317 253 321 b 282 381 253 375 268 381 b 294 365 290 381 294 375 b 289 322 294 347 289 343 b 317 243 289 300 317 275 b 314 211 317 232 314 224 b 351 93 314 189 326 147 b 368 22 363 68 368 46 b 360 -32 368 1 360 -25 b 372 -43 360 -40 367 -43 b 410 -22 386 -43 386 -22 b 431 -118 424 -22 431 -89 b 428 -168 431 -126 428 -146 b 440 -190 428 -182 431 -190 b 467 -103 456 -190 467 -149 b 461 -61 467 -81 461 -67 b 539 33 461 -19 539 -24 z m 344 617 b 304 526 344 565 329 526 b 257 567 282 526 271 567 b 233 561 250 567 244 561 b 217 579 224 561 217 569 b 224 621 217 594 224 604 b 214 728 224 633 214 715 b 221 746 214 740 217 746 b 253 697 240 746 232 697 b 261 713 258 697 261 701 b 260 736 261 717 260 731 b 283 781 260 757 267 781 b 339 714 321 781 339 751 b 335 679 339 704 335 699 b 344 617 335 667 344 663 z "},"s":{"ha":515,"x_min":0,"x_max":0,"o":"m 482 269 b 481 315 481 276 481 294 b 408 415 481 379 432 388 b 342 504 397 428 385 479 b 201 685 264 549 201 615 b 233 782 201 725 211 782 b 253 756 243 782 253 778 b 249 704 253 732 249 726 b 269 683 249 692 260 683 b 292 711 286 683 292 694 b 290 731 292 717 290 725 b 304 756 290 744 293 756 b 358 621 343 756 308 621 b 407 700 382 621 363 700 b 457 554 440 700 414 554 b 472 642 469 554 472 592 b 483 733 472 668 483 700 b 394 908 483 793 429 876 b 276 960 361 938 322 956 b 268 961 274 960 271 960 b 135 908 254 961 143 911 b 32 799 104 892 39 831 b 24 685 25 764 24 713 b 11 597 24 636 11 618 b 35 536 11 568 18 536 b 76 588 54 536 57 588 b 115 493 99 588 99 524 b 201 399 142 442 185 424 b 294 263 236 349 224 326 b 319 214 310 249 319 233 b 263 125 319 169 303 125 b 169 221 231 125 192 144 b 110 271 158 257 140 271 b 15 182 65 271 15 239 b 71 3 15 118 29 3 b 99 39 85 3 86 39 b 131 0 115 39 118 14 b 175 -107 158 -35 175 -28 b 201 -132 175 -119 179 -132 b 215 -117 211 -132 215 -126 b 211 -71 215 -107 211 -82 b 235 -39 211 -49 219 -39 b 289 -246 285 -39 238 -246 b 306 -215 304 -246 306 -235 b 304 -153 306 -196 304 -174 b 356 -8 304 -40 318 -8 b 413 -92 397 -8 413 -24 b 432 -112 413 -103 417 -112 b 450 -92 446 -112 450 -101 b 449 -44 450 -72 449 -51 b 479 146 449 -11 450 75 b 492 200 489 168 492 183 b 482 269 492 221 488 247 z "},"t":{"ha":425,"x_min":0,"x_max":0,"o":"m 404 950 b 318 931 385 950 358 931 b 176 949 251 931 239 949 b 60 919 142 949 113 919 b -10 940 35 919 14 940 b -28 924 -21 940 -28 936 b -15 858 -28 913 -15 874 b -35 806 -15 842 -35 817 b -1 778 -35 789 -17 778 b 64 686 44 778 32 686 b 128 778 101 686 89 778 b 167 750 140 778 167 778 b 149 617 167 725 154 665 b 132 424 142 556 132 454 b 139 331 132 403 139 393 b 103 94 139 299 103 179 b 135 -32 103 64 114 -32 b 160 -8 149 -32 147 -8 b 185 -124 185 -8 185 -76 b 171 -194 185 -147 171 -169 b 204 -221 171 -212 182 -221 b 244 -193 231 -221 244 -208 b 228 -81 244 -147 228 -119 b 301 24 228 3 297 -17 b 285 85 301 40 285 69 b 289 117 285 93 289 107 b 276 204 289 146 276 164 b 301 365 276 260 301 294 b 274 547 301 461 274 476 b 282 643 274 571 282 601 b 276 688 282 653 276 674 b 315 764 276 743 285 764 b 364 733 339 764 346 733 b 393 768 376 733 378 768 b 428 675 411 768 392 675 b 444 699 440 675 444 682 b 439 744 444 708 439 714 b 460 850 439 772 460 828 b 404 950 460 885 443 950 z "},"u":{"ha":568,"x_min":0,"x_max":0,"o":"m 386 960 b 324 911 364 960 324 960 b 350 742 324 869 350 767 b 338 575 350 682 338 629 b 351 304 338 501 351 432 b 294 135 351 174 328 135 b 196 260 274 135 196 163 b 206 379 196 279 200 331 b 239 688 210 425 239 558 b 224 858 239 744 232 792 b 124 972 211 954 182 972 b 24 910 94 972 24 951 b 54 821 24 875 50 871 b 56 772 56 808 56 792 b 33 528 56 678 33 606 b 39 390 33 481 39 432 b 36 289 39 354 36 322 b 139 25 36 199 65 106 b 183 -81 185 -25 183 -67 b 175 -190 183 -100 175 -139 b 204 -226 175 -215 185 -226 b 240 -186 232 -226 240 -201 b 224 -60 240 -128 224 -81 b 240 -33 224 -39 231 -33 b 278 -57 247 -33 268 -57 b 308 -36 293 -57 294 -37 b 335 -61 324 -36 335 -50 b 331 -100 335 -65 331 -83 b 356 -129 331 -118 335 -129 b 382 -103 371 -129 382 -122 b 374 -50 382 -89 374 -78 b 406 11 374 -28 383 -7 b 496 96 461 58 492 88 b 515 224 514 139 515 144 b 514 301 515 250 514 278 b 521 382 514 336 521 354 b 501 536 521 435 501 507 b 506 603 501 561 506 576 b 501 671 506 622 501 650 b 547 842 501 735 547 782 b 518 953 547 915 539 953 b 476 942 503 953 497 942 b 386 960 457 942 418 960 z "},"v":{"ha":506,"x_min":0,"x_max":0,"o":"m 379 957 b 325 836 342 957 340 925 b 288 550 286 732 299 696 b 257 471 283 497 274 471 b 219 521 236 471 219 501 b 224 565 219 533 224 560 b 197 690 224 571 197 631 b 201 764 197 700 201 744 b 131 949 201 857 189 949 b 78 936 118 949 90 936 b 24 949 61 936 33 949 b -15 907 1 949 -15 936 b -11 857 -15 894 -11 888 b 1 778 -11 829 1 806 b -24 700 1 746 -24 717 b 0 674 -24 688 -15 674 b 17 675 6 674 13 675 b 60 621 44 675 60 657 b 56 578 60 610 56 590 b 86 328 56 504 86 415 b 71 232 86 301 71 257 b 106 150 71 207 89 176 b 151 54 135 103 151 82 b 149 6 151 49 149 17 b 179 -36 149 -15 160 -36 b 233 -8 192 -36 217 -8 b 267 -82 258 -8 267 -24 b 264 -128 267 -99 264 -118 b 290 -158 264 -147 269 -158 b 319 -121 313 -158 319 -146 b 314 -53 319 -107 314 -81 b 357 90 314 -40 349 38 b 388 249 363 121 381 194 b 431 432 400 356 394 392 b 444 489 446 449 443 453 b 450 553 446 528 450 540 b 440 633 450 568 440 607 b 476 725 440 679 463 725 b 499 724 486 725 488 724 b 515 756 511 724 515 733 b 535 869 515 804 535 857 b 472 940 535 910 506 940 b 435 938 465 940 443 938 b 379 957 406 938 403 957 z "},"w":{"ha":725,"x_min":0,"x_max":0,"o":"m 693 947 b 625 940 676 947 656 940 b 544 869 557 940 547 919 b 499 593 533 690 549 593 b 464 665 471 593 464 617 b 468 735 464 685 468 707 b 454 865 468 772 454 829 b 465 929 454 882 465 913 b 432 967 465 957 458 967 b 382 953 417 967 401 953 b 299 979 358 953 326 979 b 249 911 263 979 249 942 b 271 756 249 889 271 810 b 240 583 271 660 240 642 b 243 549 240 568 243 558 b 222 501 243 514 236 501 b 154 604 172 501 154 575 b 168 892 154 654 168 714 b 68 971 168 940 143 971 b -1 935 32 971 -1 964 b 11 797 -1 914 -1 826 b 60 568 44 713 60 653 b 25 153 60 313 25 250 b 44 135 25 142 32 135 b 111 165 65 135 81 165 b 143 124 126 165 143 146 b 106 -11 143 81 106 8 b 124 -28 106 -22 113 -28 b 172 -8 142 -28 161 -8 b 222 -150 217 -10 199 -150 b 238 -118 231 -150 238 -140 b 225 -40 238 -90 225 -58 b 247 -19 225 -26 232 -19 b 300 -69 268 -19 282 -69 b 336 6 326 -69 336 -50 b 311 114 336 32 311 71 b 328 269 311 149 328 233 b 325 353 328 294 325 308 b 367 471 325 400 326 471 b 389 407 383 471 389 450 b 394 304 389 342 394 326 b 382 178 394 258 382 218 b 393 151 382 161 386 151 b 422 165 400 151 415 165 b 442 94 436 165 442 147 b 438 6 442 79 438 40 b 468 -82 438 -40 447 -82 b 510 -11 503 -82 488 -11 b 544 -56 538 -11 544 -31 b 535 -157 544 -87 535 -132 b 568 -204 535 -187 551 -204 b 594 -111 590 -204 594 -178 b 575 -14 594 -86 575 -36 b 597 79 575 17 596 64 b 628 178 606 168 628 151 b 604 249 628 197 604 224 b 632 292 604 276 610 292 b 660 250 647 292 660 278 b 656 204 660 235 656 219 b 674 182 656 190 661 182 b 694 215 688 182 694 190 b 675 311 694 232 675 274 b 699 481 675 364 699 429 b 692 589 699 507 692 519 b 732 906 692 776 732 857 b 693 947 732 933 719 947 z "},"x":{"ha":490,"x_min":0,"x_max":0,"o":"m 494 -208 b 515 -178 510 -208 515 -199 b 504 -110 515 -167 504 -132 b 517 -19 504 -76 517 -53 b 478 74 517 13 482 54 b 451 200 471 106 464 156 b 401 319 438 244 422 283 b 354 421 378 360 353 386 b 356 447 354 426 356 443 b 354 475 356 457 354 464 b 358 496 354 489 356 496 b 389 485 364 496 375 485 b 428 525 414 485 428 503 b 415 614 428 543 415 608 b 414 674 415 636 414 656 b 426 707 414 696 417 707 b 465 668 436 707 439 668 b 490 692 486 668 490 675 b 474 785 490 717 474 742 b 489 913 474 817 489 882 b 411 964 489 957 460 964 b 260 796 301 964 260 883 b 265 714 260 765 265 726 b 250 689 265 694 261 689 b 179 864 193 689 183 840 b 161 921 175 886 169 907 b 31 963 143 957 128 963 b -12 921 3 963 -12 951 b 51 703 -12 875 51 772 b 26 572 51 621 26 615 b 54 526 26 556 38 526 b 114 644 100 526 68 644 b 154 482 140 644 154 593 b 117 378 154 456 139 436 b 69 213 94 322 86 268 b 3 -26 43 129 3 47 b 8 -119 3 -53 8 -82 b 4 -208 8 -157 4 -172 b 33 -253 4 -231 11 -253 b 79 -219 64 -253 79 -242 b 51 -62 79 -178 51 -93 b 90 -22 51 -26 67 -22 b 136 -90 129 -22 97 -90 b 207 143 200 -90 146 143 b 240 58 226 143 214 58 b 301 108 256 58 281 108 b 375 -24 340 108 375 28 b 367 -68 375 -42 367 -54 b 399 -97 367 -85 378 -97 b 428 -65 408 -97 428 -86 b 425 -40 428 -56 425 -47 b 447 -14 425 -32 433 -14 b 494 -208 475 -14 436 -208 z "},"y":{"ha":451,"x_min":0,"x_max":0,"o":"m 407 975 b 301 925 374 975 301 961 b 307 871 301 903 307 883 b 269 788 307 831 285 817 b 219 700 253 758 253 700 b 186 849 197 700 194 828 b 64 961 150 944 121 961 b 0 960 53 961 26 960 b -33 910 -29 960 -33 939 b 7 786 -33 889 -18 851 b 58 575 40 700 18 651 b 150 260 144 408 150 358 b 144 71 150 150 144 111 b 150 8 144 54 147 33 b 190 -96 163 -85 171 -96 b 232 -19 210 -96 208 -19 b 258 -67 250 -19 258 -28 b 249 -183 258 -137 249 -162 b 274 -217 249 -204 253 -217 b 301 -186 293 -217 301 -208 b 294 -121 301 -169 294 -146 b 303 -17 294 -106 303 -75 b 294 200 303 32 294 119 b 301 342 294 231 301 292 b 318 382 301 368 307 382 b 356 339 335 382 340 339 b 378 389 375 339 378 361 b 372 483 378 406 372 428 b 396 649 372 614 382 649 b 421 618 407 649 421 635 b 413 561 421 592 413 582 b 435 539 413 547 422 539 b 458 700 458 539 458 643 b 449 801 458 746 449 785 b 469 910 449 811 469 857 b 407 975 469 951 444 975 z "},"z":{"ha":497,"x_min":0,"x_max":0,"o":"m 361 150 b 275 142 336 150 283 142 b 206 190 251 142 206 156 b 285 350 206 265 285 251 b 281 386 285 363 281 376 b 304 417 281 407 292 417 b 338 379 331 417 338 399 b 335 272 338 369 335 346 b 356 246 335 260 340 246 b 376 276 371 246 376 261 b 374 467 376 346 374 407 b 410 632 374 619 385 632 b 425 619 419 632 425 628 b 419 572 425 594 419 589 b 443 553 419 558 429 553 b 475 697 478 553 467 606 b 483 831 482 767 483 811 b 422 958 483 892 481 958 b 164 932 350 958 193 932 b 69 968 113 932 97 968 b 42 932 49 968 42 953 b 60 850 42 907 60 907 b 42 781 60 821 42 808 b 56 768 42 775 44 768 b 79 769 63 768 69 769 b 118 724 106 769 118 749 b 104 644 118 683 104 667 b 133 613 104 631 114 613 b 208 786 178 613 129 786 b 240 682 229 786 238 688 b 246 653 244 674 246 663 b 185 514 246 619 193 542 b 90 347 168 453 90 368 b 139 315 90 326 139 342 b 115 267 139 306 131 289 b 39 83 42 164 39 129 b 58 -85 39 44 58 -15 b 32 -253 58 -143 32 -199 b 65 -308 32 -286 46 -308 b 113 -235 100 -308 113 -276 b 103 -119 113 -221 103 -156 b 179 7 103 -64 139 7 b 215 -29 201 7 215 -4 b 197 -119 215 -61 197 -86 b 219 -140 197 -132 207 -140 b 265 -65 244 -140 235 -65 b 282 -94 279 -65 282 -76 b 268 -187 282 -110 268 -143 b 300 -229 268 -204 276 -229 b 326 -196 321 -229 326 -212 b 318 -125 326 -186 318 -140 b 385 -8 318 -40 356 -8 b 431 -17 397 -8 419 -17 b 449 -6 442 -17 449 -14 b 443 19 449 7 443 7 b 478 94 443 42 478 78 b 361 150 478 142 389 150 z "},"{":{"ha":521,"x_min":0,"x_max":0,"o":"m 369 -183 b 476 -122 413 -183 476 -169 b 424 -15 476 -43 436 -18 b 264 101 360 -3 264 -1 b 354 356 264 189 354 292 b 311 457 354 414 311 422 b 346 522 311 476 346 482 b 333 608 346 560 338 579 b 271 797 317 674 271 729 b 456 931 271 924 407 896 b 499 1022 497 960 499 1019 b 379 1086 499 1085 417 1086 b 174 843 356 1086 174 1074 b 231 558 174 729 231 583 b 151 501 231 503 185 528 b 124 465 142 496 124 478 b 214 353 124 365 214 414 b 158 83 214 265 158 175 b 369 -183 158 -86 251 -183 z "},"|":{"ha":224,"x_min":0,"x_max":0,"o":"m 67 1086 b 46 1049 53 1086 46 1074 b 53 974 46 1026 53 1006 b 39 872 53 953 39 876 b 63 765 39 833 63 803 b 58 688 63 756 58 700 b 64 532 58 675 64 621 b 40 364 64 471 40 386 b 60 274 40 331 60 304 b 40 -17 60 251 40 15 b 72 -162 40 -79 72 -146 b 69 -210 72 -169 69 -199 b 81 -232 69 -225 74 -232 b 106 -140 92 -232 92 -140 b 113 -182 110 -140 113 -154 b 110 -226 113 -199 110 -211 b 118 -246 110 -242 113 -246 b 136 -208 131 -246 136 -231 b 131 -150 136 -199 131 -171 b 172 -111 131 -126 172 -140 b 160 -21 172 -85 160 -62 b 172 224 160 53 172 147 b 157 375 172 271 157 347 b 163 504 157 383 163 410 b 156 594 163 536 156 565 b 188 646 156 647 188 607 b 168 876 188 650 168 822 b 176 985 168 910 176 956 b 135 1082 176 1063 149 1082 b 104 1068 124 1082 111 1068 b 67 1086 93 1068 82 1086 z "},"}":{"ha":521,"x_min":0,"x_max":0,"o":"m 169 -183 b 381 83 288 -183 381 -86 b 325 353 381 175 325 265 b 415 465 325 414 415 365 b 388 501 415 478 397 496 b 308 558 354 528 308 503 b 365 843 308 583 365 729 b 160 1086 365 1074 183 1086 b 40 1022 122 1086 40 1085 b 83 931 40 1019 42 960 b 268 797 132 896 268 924 b 206 608 268 729 222 674 b 193 522 201 579 193 560 b 228 457 193 482 228 476 b 185 356 228 422 185 414 b 275 101 185 292 275 189 b 115 -15 275 -1 179 -3 b 63 -122 103 -18 63 -43 b 169 -183 63 -169 126 -183 z "},"~":{"ha":438,"x_min":0,"x_max":0,"o":"m 392 597 b 304 549 356 563 347 549 b 132 613 240 549 197 613 b 13 475 61 613 13 542 b 43 421 13 451 17 421 b 121 475 54 432 100 475 b 179 414 149 475 146 414 b 222 422 194 414 207 422 b 289 407 246 422 265 407 b 422 550 368 407 422 476 b 392 597 422 572 421 597 z "},"":{"ha":268,"x_min":0,"x_max":0,"o":""},"":{"ha":282,"x_min":0,"x_max":0,"o":"m 128 935 b 90 947 114 935 103 947 b 61 864 79 947 64 940 b 54 814 60 850 54 825 b 83 768 54 793 65 768 b 113 771 94 768 106 771 b 185 757 138 771 178 757 b 242 819 225 757 242 797 b 233 876 242 831 235 861 b 199 928 229 922 222 928 b 150 938 176 928 165 938 b 128 935 142 938 135 935 z m 53 8 b 108 -56 78 -22 107 -33 b 139 -129 111 -93 108 -129 b 171 -81 167 -129 171 -112 b 168 -40 171 -67 168 -56 b 183 -22 168 -28 175 -22 b 224 -79 206 -22 199 -79 b 239 -42 233 -79 239 -64 b 258 47 239 -17 258 18 b 239 149 258 65 239 121 b 244 188 239 169 244 172 b 199 256 244 224 199 214 b 215 346 199 276 215 306 b 211 418 215 367 211 404 b 219 504 211 446 219 479 b 183 679 219 538 183 675 b 186 718 183 696 186 711 b 157 747 186 740 172 747 b 140 711 146 747 140 740 b 119 669 140 699 136 688 b 99 582 99 647 107 604 b 81 503 82 542 81 518 b 100 431 81 467 100 453 b 81 364 100 417 85 386 b 76 264 76 343 76 321 b 31 71 76 224 31 99 b 53 8 31 49 39 28 z "},"":{"ha":468,"x_min":0,"x_max":0,"o":"m 203 685 b 232 669 208 668 219 669 b 271 724 264 669 263 690 b 304 651 306 724 304 679 b 301 594 304 629 303 608 b 329 569 306 578 311 569 b 444 654 338 569 435 639 b 446 697 444 661 446 690 b 361 867 446 768 425 828 b 293 989 317 894 299 989 l 210 989 l 196 972 b 179 889 194 954 192 911 b 10 443 -8 822 10 611 b 58 229 10 364 17 281 b 196 -58 169 92 188 146 b 222 -81 197 -71 208 -81 b 331 154 283 -81 324 149 b 344 153 335 154 340 153 b 453 367 443 153 453 283 b 369 421 453 422 415 421 b 324 419 363 421 331 419 b 243 299 274 394 325 299 b 183 422 193 299 183 361 b 188 540 183 482 188 513 b 196 676 188 582 188 669 z "},"":{"ha":615,"x_min":0,"x_max":0,"o":"m 382 379 b 472 367 419 379 439 367 b 514 467 514 367 514 439 b 483 522 514 482 507 522 l 361 522 b 293 774 317 522 293 733 b 292 810 293 783 292 797 b 308 860 292 832 294 853 b 353 833 315 840 333 833 b 378 838 361 833 369 835 b 400 633 404 772 386 700 b 414 624 403 624 408 624 b 453 678 436 624 449 669 b 463 676 456 676 460 676 b 543 717 489 676 532 696 b 343 1013 543 886 524 1013 b 118 664 135 1013 118 851 b 172 539 135 621 172 589 b 89 429 172 532 89 507 b 117 367 89 406 86 367 b 183 390 142 367 151 390 l 210 390 b 235 311 231 378 235 342 b 233 208 235 275 233 246 b 218 200 229 200 224 200 b 126 218 186 200 160 218 b 13 110 65 218 13 175 b 108 -28 13 60 46 -28 b 271 28 160 -28 217 28 b 461 -19 338 28 388 -19 b 475 -18 465 -19 469 -18 b 506 -57 478 -29 488 -57 b 597 142 551 -57 597 121 b 529 210 597 186 574 210 b 396 118 469 210 467 118 b 354 140 381 118 354 119 b 382 186 354 157 371 172 z "},"":{"ha":342,"x_min":0,"x_max":0,"o":"m 126 664 b 60 725 100 664 96 725 b 13 660 31 725 13 688 b 43 567 13 625 43 600 b 13 319 43 485 13 396 b 69 179 13 318 47 179 b 122 263 103 179 85 263 b 149 254 122 263 143 254 b 211 279 171 260 194 279 b 267 247 238 279 240 247 b 317 311 299 247 317 285 b 301 361 317 331 310 346 l 293 549 b 326 618 293 579 326 581 b 263 732 326 649 306 732 b 196 664 229 732 224 664 z m 169 382 b 118 488 115 382 118 457 b 131 521 118 499 119 521 b 164 496 146 521 147 496 b 203 514 179 496 188 514 b 218 479 217 514 218 493 b 169 382 218 461 217 382 z "},"":{"ha":510,"x_min":0,"x_max":0,"o":"m 469 147 b 454 165 467 160 461 165 l 406 165 b 361 160 393 165 376 160 b 331 200 339 160 331 178 b 347 233 331 225 339 233 b 382 179 371 233 363 179 b 407 244 394 179 388 244 b 422 242 411 243 417 242 b 435 244 426 242 432 244 b 457 211 444 244 456 211 b 478 268 468 211 478 258 b 425 324 478 304 457 324 b 371 317 415 324 383 317 b 332 356 357 317 332 343 b 356 382 332 371 347 382 b 392 339 372 382 378 339 b 414 389 418 339 410 374 b 408 483 414 394 408 428 l 408 546 b 433 649 408 614 419 649 b 458 618 443 649 458 635 b 450 568 458 606 450 578 b 472 539 450 556 460 539 b 493 611 488 539 493 572 b 492 640 493 621 492 628 l 492 653 b 494 700 492 665 494 689 l 494 718 b 486 790 494 746 486 785 l 486 801 b 507 910 486 811 507 857 b 443 975 507 954 485 975 b 338 925 410 975 338 961 b 344 871 338 914 344 883 b 306 788 344 846 321 808 b 256 700 301 779 292 700 b 224 849 233 700 232 829 l 196 911 b 100 961 174 953 138 961 b 49 960 90 961 64 960 l 38 960 b 4 910 8 960 4 939 b 43 786 4 889 17 850 b 94 575 76 700 56 651 b 176 368 161 444 176 407 b 136 319 176 354 164 319 b 114 322 129 319 118 322 b 90 269 96 322 90 290 b 131 229 90 236 110 229 b 172 249 146 229 164 249 b 188 190 190 249 188 207 b 154 163 188 172 169 163 l 110 168 b 101 146 104 168 101 165 b 94 104 101 140 94 115 b 125 88 94 89 122 90 b 144 50 136 78 132 50 b 151 61 147 50 151 51 b 149 76 151 65 149 75 b 153 83 149 81 150 83 b 172 46 160 83 172 63 b 168 -7 172 40 168 15 b 193 -61 168 -28 176 -28 b 226 -96 197 -85 207 -96 b 269 -19 247 -96 246 -19 b 296 -67 286 -19 296 -28 b 285 -183 296 -137 285 -135 b 310 -217 285 -204 290 -217 b 338 -186 331 -217 338 -208 b 331 -121 338 -169 331 -126 l 331 -110 b 339 -17 331 -106 339 -75 l 339 8 b 335 61 339 28 335 47 b 361 89 335 78 340 89 l 365 89 b 390 65 374 89 382 65 b 426 82 393 65 418 82 l 439 82 b 454 61 446 82 454 75 b 449 33 454 56 449 32 b 456 19 449 29 453 19 b 461 35 458 19 460 25 l 464 57 b 465 67 465 60 465 64 b 461 104 465 74 461 94 l 461 113 b 469 143 461 118 469 133 z "},"":{"ha":224,"x_min":0,"x_max":0,"o":"m 60 274 b 40 -17 60 251 40 15 b 72 -162 40 -79 72 -146 b 69 -210 72 -169 69 -199 b 81 -232 69 -225 74 -232 b 106 -140 92 -232 92 -140 b 113 -182 110 -140 113 -154 b 110 -226 113 -199 110 -211 b 118 -246 110 -242 113 -246 b 136 -208 131 -246 136 -231 b 131 -150 136 -199 131 -171 b 172 -111 131 -126 172 -140 b 160 -21 172 -85 160 -62 b 172 224 160 53 172 147 b 94 388 172 276 168 388 b 51 343 60 388 51 368 b 60 274 51 319 60 292 z m 67 1086 b 46 1049 53 1086 46 1074 b 53 974 46 1026 53 1006 b 39 872 53 953 39 876 b 63 765 39 833 63 803 b 54 650 63 728 54 686 b 88 567 54 638 61 567 b 156 606 106 567 136 572 b 188 646 172 619 188 610 b 168 876 188 650 168 822 b 176 985 168 910 176 956 b 135 1082 176 1063 149 1082 b 104 1068 124 1082 111 1068 b 67 1086 93 1068 82 1086 z "},"":{"ha":456,"x_min":0,"x_max":0,"o":"m 293 -69 b 324 -93 297 -75 314 -93 b 392 -24 329 -93 375 -35 b 438 143 433 3 438 97 b 383 325 438 217 383 276 b 422 369 383 340 413 350 b 438 469 436 399 438 435 b 436 581 438 496 436 540 b 217 856 399 724 217 731 b 232 883 217 867 218 883 b 308 769 274 883 272 769 b 324 778 317 769 318 769 b 422 861 354 828 385 817 b 424 899 422 867 424 893 b 251 1036 424 1003 343 1036 b 50 865 140 1036 50 990 b 97 675 50 794 97 736 b 96 657 97 674 96 660 b 42 458 50 574 42 557 b 51 408 42 440 43 431 b 196 249 114 221 140 343 b 218 188 203 233 197 197 b 240 189 221 188 231 189 b 271 179 260 189 271 189 l 271 96 b 222 74 271 78 232 74 b 132 181 143 74 199 181 b 21 143 97 181 40 176 b 13 4 14 90 13 54 b 36 -40 13 -15 14 -40 b 63 -32 46 -40 53 -32 b 101 -93 90 -32 71 -93 b 143 -62 118 -93 121 -62 z m 201 551 b 214 560 201 557 210 560 b 269 513 251 560 224 513 b 285 514 274 513 278 513 b 293 490 288 510 293 493 b 244 407 293 458 288 407 b 201 431 236 407 201 415 z "},"":{"ha":494,"x_min":0,"x_max":0,"o":"m 90 1222 b 67 1192 82 1222 68 1199 b 161 1033 67 1106 65 1033 b 219 1147 219 1033 219 1111 b 218 1200 219 1156 218 1192 b 188 1222 214 1206 197 1222 z m 407 1050 l 429 1074 l 429 1201 b 351 1225 429 1225 367 1225 b 286 1201 326 1225 300 1224 b 278 1113 281 1165 278 1144 b 324 1043 278 1088 292 1043 z "},"":{"ha":967,"x_min":0,"x_max":0,"o":"m 946 621 b 488 1008 946 875 710 1008 b 13 486 167 1008 13 790 b 85 113 13 447 33 113 b 122 121 100 113 108 121 b 135 119 125 121 133 119 b 278 -40 165 97 271 -40 b 328 0 307 -40 304 0 b 388 -25 353 0 364 -25 b 542 0 436 -25 489 0 b 628 -54 589 0 592 -54 b 733 38 674 -54 682 38 b 774 29 749 38 758 29 b 946 385 817 29 946 324 z m 492 104 b 135 500 258 104 135 276 b 276 833 135 579 165 833 b 321 794 292 833 304 794 b 325 796 322 794 324 794 b 415 903 383 819 336 903 b 472 810 468 903 428 810 b 529 910 517 810 479 910 b 568 840 557 910 533 840 b 624 886 594 840 593 886 b 832 506 771 886 832 600 b 492 104 832 296 722 104 z m 438 318 b 354 504 360 318 354 463 b 408 651 354 538 356 651 b 469 614 435 651 439 614 b 525 668 500 614 500 668 b 597 544 550 668 596 571 b 614 538 600 538 607 538 b 704 618 649 538 704 578 b 504 781 704 724 597 781 b 240 496 325 781 240 668 l 240 451 b 256 363 240 422 242 400 b 408 167 261 349 404 167 b 446 203 429 167 432 194 b 464 201 454 201 460 201 b 525 213 494 201 496 213 b 571 165 554 213 546 165 b 650 233 589 165 603 218 b 704 382 672 240 704 360 b 647 425 704 417 676 425 b 621 424 643 425 624 424 b 529 318 583 401 586 318 z "},"":{"ha":331,"x_min":0,"x_max":0,"o":"m 125 894 b 96 761 101 894 104 807 b 79 654 83 690 88 682 b 72 624 75 640 72 631 b 76 611 72 617 76 615 b 74 594 76 608 75 603 l 51 501 b 50 478 50 494 50 486 l 50 450 b 44 400 50 417 44 413 b 53 392 44 394 47 392 b 71 410 58 392 65 410 b 92 374 85 410 74 374 b 101 396 101 374 101 385 b 128 440 101 439 128 417 b 122 464 128 449 122 458 b 136 482 122 472 136 476 b 132 501 136 492 132 492 b 138 510 132 507 135 510 b 164 485 143 510 156 485 b 183 517 176 485 174 517 b 197 478 194 517 197 500 b 206 422 197 457 206 438 b 219 361 207 399 206 361 b 228 375 224 361 228 365 b 225 397 228 382 225 393 b 229 410 225 406 226 410 b 246 379 238 410 236 379 b 261 410 257 379 250 410 b 268 401 265 410 268 407 b 267 386 268 397 267 390 b 278 374 267 378 269 374 b 294 403 289 374 294 383 b 279 482 294 422 293 431 b 269 540 271 510 269 529 b 254 621 269 568 254 582 b 232 738 254 665 232 735 b 228 788 229 753 228 771 b 231 815 228 796 231 808 b 225 842 231 822 228 833 l 219 865 b 203 893 214 886 214 893 b 163 885 190 893 182 885 b 125 894 149 885 133 893 z m 154 675 b 164 642 163 675 154 642 b 176 665 174 642 169 665 b 185 592 176 665 185 660 b 164 583 185 588 179 583 b 142 592 150 583 142 586 b 147 608 142 601 147 606 b 142 628 146 614 142 618 b 154 675 142 644 146 675 z "},"":{"ha":517,"x_min":0,"x_max":0,"o":"m 206 174 b 242 211 225 174 242 193 b 142 397 242 269 142 372 b 242 583 142 469 242 503 b 206 622 242 604 228 622 b 13 397 178 622 13 457 b 206 174 13 346 154 174 z m 464 174 b 500 211 483 174 500 193 b 400 397 500 269 400 372 b 500 583 400 469 500 503 b 464 622 500 604 486 622 b 271 397 436 622 271 457 b 464 174 271 346 413 174 z "},"":{"ha":526,"x_min":0,"x_max":0,"o":"m 400 -26 b 419 -49 400 -32 408 -49 b 444 -26 422 -49 436 -36 b 506 26 457 -12 506 15 l 506 540 l 490 557 b 392 564 488 558 419 564 b 218 565 385 564 264 565 b 43 564 192 565 69 564 b 11 464 7 551 11 506 b 47 365 11 421 14 365 b 58 367 49 365 57 367 b 114 406 76 403 86 406 b 169 396 135 406 147 396 b 313 421 218 396 260 421 b 400 406 346 421 400 421 z "},"":{"ha":618,"x_min":0,"x_max":0,"o":"m 378 344 b 400 329 382 331 389 329 b 444 358 419 329 433 346 b 479 343 458 346 464 343 b 597 660 551 343 597 607 b 310 951 597 842 493 951 b 19 654 124 951 19 835 b 18 601 19 632 18 617 b 28 533 18 581 21 565 b 176 275 32 513 168 275 b 240 344 219 275 206 344 z m 438 782 b 476 807 456 782 458 807 b 529 672 514 807 529 697 b 310 418 529 529 460 418 b 89 650 175 418 89 519 b 196 853 89 706 119 853 b 235 843 210 853 219 843 b 326 883 278 843 278 883 b 438 782 407 883 397 782 z m 203 533 b 260 464 203 503 253 464 b 294 594 296 464 293 590 b 308 601 297 601 301 601 b 400 481 367 543 292 558 b 439 525 426 481 439 501 b 399 631 439 565 399 592 b 424 724 399 664 424 688 b 349 806 424 754 414 806 l 269 806 b 203 768 214 806 203 790 z m 313 738 b 339 719 325 738 339 731 b 317 700 339 707 328 700 b 296 724 303 700 296 713 b 313 738 296 735 304 738 z "},"":{"ha":635,"x_min":0,"x_max":0,"o":"m 544 1064 l 568 1090 l 568 1133 b 553 1182 568 1151 568 1175 b 357 1192 492 1190 428 1192 b 133 1190 292 1192 218 1190 b 65 1104 74 1190 65 1163 b 101 1038 65 1079 67 1038 b 176 1054 126 1038 150 1054 b 235 1044 197 1054 215 1044 b 294 1064 258 1044 268 1049 z "},"":{"ha":296,"x_min":0,"x_max":0,"o":"m 278 858 b 146 1003 278 943 236 1003 b 13 849 49 1003 13 936 b 69 714 13 824 22 714 b 278 858 176 714 278 732 z m 201 903 b 210 878 208 896 210 886 b 150 788 210 836 201 788 b 81 861 103 788 81 814 b 126 933 81 889 92 933 b 192 901 164 933 146 901 b 201 903 194 901 197 903 z "},"":{"ha":650,"x_min":0,"x_max":0,"o":"m 254 308 b 286 163 254 246 286 179 b 283 115 286 156 283 126 b 294 93 283 100 288 93 b 319 185 306 93 306 185 b 326 143 324 185 326 171 b 324 99 326 126 324 114 b 332 79 324 83 326 79 b 350 117 344 79 350 94 b 344 175 350 126 344 154 b 386 214 344 199 386 185 b 374 304 386 240 374 263 b 357 367 374 324 363 339 b 379 399 357 400 369 396 b 407 379 386 388 393 379 b 453 417 431 379 442 399 b 478 414 463 414 471 414 b 543 433 510 414 510 433 b 589 415 564 433 571 415 b 636 496 632 415 636 465 b 604 561 636 514 636 561 l 375 561 b 369 649 372 596 369 629 b 378 757 369 682 378 728 b 336 854 378 835 350 854 b 306 840 325 854 313 840 b 268 858 294 840 283 858 b 247 821 254 858 247 846 b 254 746 247 799 254 778 b 240 644 254 725 240 649 b 261 561 240 614 254 589 l 43 561 b 11 457 7 561 11 490 b 47 379 11 419 14 379 b 89 425 69 379 83 408 b 151 415 114 425 129 415 b 206 439 174 415 182 439 b 261 432 225 439 242 433 b 264 381 261 418 264 401 b 254 308 264 357 254 332 z m 47 29 b 15 -51 18 29 15 -17 b 51 -153 15 -94 11 -153 b 93 -107 74 -153 88 -124 b 156 -117 118 -107 133 -117 b 210 -93 178 -117 186 -93 b 279 -100 233 -93 254 -100 b 339 -93 301 -100 318 -93 b 411 -153 383 -93 376 -153 b 457 -115 435 -153 446 -133 b 482 -118 467 -118 475 -118 b 547 -99 514 -118 514 -99 b 593 -117 568 -99 575 -117 b 640 -36 636 -117 640 -67 b 608 29 640 -18 640 29 z "},"":{"ha":321,"x_min":0,"x_max":0,"o":"m 256 839 b 264 821 263 839 264 829 b 263 806 264 817 263 811 b 272 794 263 799 264 794 b 285 867 282 794 285 844 b 183 1036 285 975 256 1036 b 88 975 139 1036 107 1010 b 61 918 61 931 61 925 b 75 860 61 890 64 860 b 86 865 78 860 82 865 b 110 806 100 865 92 806 b 121 854 122 806 121 828 b 119 875 121 856 119 869 b 128 888 119 883 121 888 b 135 879 132 888 135 885 b 132 858 135 867 132 861 b 140 846 132 851 136 846 b 156 906 150 846 143 906 b 171 857 167 906 157 857 b 175 865 174 857 175 860 b 172 908 175 871 172 900 b 189 960 172 922 175 960 b 204 871 201 960 204 886 b 90 679 204 818 144 743 b 50 586 64 649 64 632 b 44 563 47 575 44 568 b 60 542 44 556 49 542 b 85 556 69 542 76 556 b 106 549 90 556 101 549 b 114 550 110 549 111 550 b 138 514 122 550 125 514 b 160 554 150 514 149 554 b 189 486 185 554 171 486 b 200 510 199 486 200 496 b 199 522 200 514 199 518 b 215 551 199 538 201 551 b 233 542 221 551 228 542 b 254 549 240 543 247 549 b 265 535 257 549 265 549 b 264 515 265 531 264 518 b 271 506 264 508 265 506 b 279 525 279 506 279 515 b 272 579 279 539 272 565 b 282 610 272 586 282 603 b 271 621 282 618 275 621 b 256 617 264 621 261 617 b 213 632 243 617 228 632 b 186 625 207 632 192 625 b 171 642 176 625 171 632 b 179 675 171 657 176 667 b 201 722 182 685 185 690 b 228 772 224 765 219 772 b 232 763 231 772 232 769 b 231 743 232 757 231 750 b 238 725 231 726 232 725 b 256 839 247 725 246 839 z "},"":{"ha":306,"x_min":0,"x_max":0,"o":"m 265 588 b 269 626 268 603 269 614 b 264 701 269 650 264 690 b 253 769 264 732 264 747 b 231 804 243 788 231 794 b 264 850 231 817 264 818 b 260 892 264 858 260 881 b 156 1036 260 1017 218 1036 b 54 917 68 1036 54 971 b 58 890 54 908 58 903 b 56 865 58 886 56 879 b 68 838 56 847 58 838 b 82 853 78 838 82 843 b 81 874 82 858 81 868 b 89 889 81 881 82 889 b 110 881 94 889 106 881 b 135 928 128 881 118 928 b 149 915 139 928 144 915 b 168 942 163 915 156 942 b 185 915 179 942 185 932 b 147 838 185 865 168 838 b 135 839 146 838 140 839 b 113 792 122 839 113 818 b 122 756 113 781 114 756 b 136 765 126 756 132 765 b 151 715 153 765 144 746 b 188 678 157 692 188 707 b 151 618 188 649 176 618 b 121 665 132 618 121 638 b 124 690 121 676 124 681 b 121 696 124 694 122 696 b 106 692 117 696 113 692 b 69 701 96 692 78 701 b 44 675 50 701 44 683 b 60 628 44 672 50 657 b 67 596 65 617 67 606 b 64 572 67 588 64 578 b 71 565 64 568 67 565 b 83 568 75 565 79 568 b 132 513 108 568 132 550 b 138 507 132 510 133 507 b 160 536 147 507 151 536 b 167 529 163 536 167 535 b 163 476 167 521 163 496 b 174 457 163 464 165 457 b 185 474 182 457 185 465 b 181 508 185 483 181 489 b 201 546 181 517 193 546 b 210 538 203 546 210 544 b 207 524 210 535 207 526 b 213 518 207 519 210 518 b 219 524 217 518 219 519 b 218 539 219 526 218 535 b 238 574 218 567 229 574 b 253 568 247 574 249 568 b 265 588 258 568 261 574 z "},"":{"ha":406,"x_min":0,"x_max":0,"o":"m 208 1035 b 297 1150 228 1035 297 1136 b 221 1233 297 1188 239 1233 b 24 1082 163 1233 61 1122 b 69 1013 24 1050 50 1029 b 182 1043 117 1013 144 1036 b 206 1035 185 1043 204 1036 b 208 1035 207 1035 208 1035 z "},"":{"ha":593,"x_min":0,"x_max":0,"o":"m 388 -128 b 474 -204 388 -154 458 -204 b 533 -144 510 -204 513 -167 l 533 865 b 575 971 550 899 575 933 b 567 988 575 976 574 988 l 179 988 b 28 835 101 988 28 910 b 82 658 28 788 29 658 b 118 690 106 658 104 690 b 172 668 128 690 172 676 l 172 8 b 135 -53 172 -10 158 -53 l 36 -53 b 13 -114 19 -53 13 -103 b 169 -197 13 -164 129 -197 b 215 -172 190 -197 194 -172 b 264 -221 244 -172 232 -221 b 286 -204 275 -221 279 -217 b 321 -29 290 -144 296 -85 l 321 653 l 331 660 b 351 661 332 661 346 661 b 388 653 372 661 388 660 z "},"":{"ha":204,"x_min":0,"x_max":0,"o":"m 186 563 b 103 594 186 596 138 594 b 13 467 7 594 13 565 b 124 396 13 408 71 396 b 186 442 144 396 186 415 z "},"":{"ha":331,"x_min":0,"x_max":0,"o":"m 250 -143 b 224 -122 250 -125 239 -122 b 186 -124 219 -122 208 -124 b 100 -110 124 -124 114 -110 b 78 -126 92 -110 78 -114 b 81 -151 78 -133 81 -146 b 65 -200 81 -171 65 -186 b 99 -267 65 -229 81 -267 b 122 -231 118 -267 113 -231 b 136 -251 135 -231 136 -239 b 104 -312 136 -264 132 -278 b 96 -347 99 -319 96 -331 b 133 -408 96 -381 111 -408 b 196 -304 154 -408 157 -356 b 246 -215 218 -274 246 -247 b 233 -178 246 -210 233 -193 b 250 -143 233 -169 250 -151 z "},"":{"ha":233,"x_min":0,"x_max":0,"o":"m 196 642 b 181 714 196 665 185 692 b 176 768 176 729 176 751 b 194 861 176 799 182 824 b 197 883 196 868 197 876 b 182 963 197 908 182 944 b 190 1010 182 983 190 1000 b 161 1033 190 1024 174 1033 b 60 969 143 1033 113 1019 b 44 928 46 956 44 936 b 75 881 44 892 75 907 b 82 867 75 871 76 867 b 90 874 88 867 90 869 b 89 888 90 876 89 879 b 101 910 89 903 97 910 b 113 892 108 910 113 906 b 97 718 113 851 97 763 b 114 638 97 692 114 657 b 103 564 114 613 103 614 b 119 529 103 549 110 529 b 132 546 129 529 125 546 b 139 529 139 546 139 532 b 135 508 139 524 135 513 b 147 486 135 494 143 486 b 156 493 151 486 156 488 b 153 514 156 496 153 507 b 183 561 153 538 183 525 b 181 588 183 569 181 574 b 196 642 181 615 196 615 z "},"":{"ha":343,"x_min":0,"x_max":0,"o":"m 160 799 b 179 772 171 799 172 772 b 199 810 188 772 190 810 b 213 789 210 810 213 799 b 207 742 213 774 207 760 b 215 647 207 699 215 675 b 206 586 215 622 206 601 b 208 499 206 525 208 508 b 181 471 208 483 196 471 b 151 504 167 471 167 475 b 146 521 149 511 146 515 b 160 613 146 549 160 571 b 150 681 160 624 150 665 b 153 725 150 690 153 696 b 147 776 153 740 147 757 b 160 799 147 785 151 799 z m 160 903 b 57 786 129 903 57 864 b 61 756 57 771 61 765 b 44 658 61 739 44 676 b 65 579 44 629 65 597 b 54 499 65 564 54 522 b 74 410 54 469 65 410 b 92 444 90 410 72 444 b 139 354 107 444 125 357 b 163 393 150 354 149 393 b 183 379 172 393 178 379 b 197 389 189 379 190 389 b 219 335 210 389 203 335 b 239 399 239 335 221 399 b 257 374 247 399 249 374 b 275 453 267 374 275 403 b 294 578 275 504 294 486 l 294 604 b 307 760 294 650 307 689 b 285 849 307 808 300 829 b 160 903 263 875 200 903 z "},"":{"ha":525,"x_min":0,"x_max":0,"o":"m 118 385 b 43 265 108 367 54 283 b 13 213 33 251 13 231 b 51 174 13 192 31 174 b 247 397 114 174 247 346 b 50 621 247 442 86 621 b 19 583 31 621 19 600 b 118 389 19 489 118 439 z m 381 385 b 306 265 371 367 317 283 b 275 213 296 251 275 231 b 314 174 275 192 293 174 b 510 397 376 174 510 346 b 313 621 510 442 349 621 b 282 583 293 621 282 600 b 381 389 282 489 381 439 z "},"":{"ha":679,"x_min":0,"x_max":0,"o":"m 196 642 b 181 714 196 665 185 692 b 176 768 176 729 176 751 b 194 861 176 799 182 824 b 197 883 196 868 197 876 b 182 963 197 908 182 944 b 190 1010 182 983 190 1000 b 161 1033 190 1024 174 1033 b 60 969 143 1033 113 1019 b 44 928 46 956 44 936 b 75 881 44 892 75 907 b 82 867 75 871 76 867 b 90 874 88 867 90 869 b 89 888 90 876 89 879 b 101 910 89 903 97 910 b 113 892 108 910 113 906 b 97 718 113 851 97 763 b 114 638 97 692 114 657 b 103 564 114 613 103 614 b 119 529 103 549 110 529 b 132 546 129 529 125 546 b 139 529 139 546 139 532 b 135 508 139 524 135 513 b 147 486 135 494 143 486 b 156 493 151 486 156 488 b 153 514 156 496 153 507 b 183 561 153 538 183 525 b 181 588 183 569 181 574 b 196 642 181 615 196 615 z m 539 1028 b 503 1036 539 1036 510 1036 b 454 1013 482 1036 463 1035 b 135 160 393 842 197 340 b 81 -4 114 100 82 6 b 126 -57 81 -22 108 -57 b 175 28 157 -57 174 8 b 490 858 233 189 433 697 b 539 971 499 897 511 940 z m 631 75 b 643 107 638 75 643 96 b 638 165 643 118 638 129 b 615 190 638 189 626 186 b 579 274 603 193 579 257 b 594 304 579 282 585 304 b 604 300 599 304 603 300 b 610 313 608 300 610 303 b 593 372 610 342 593 354 b 604 443 593 414 604 426 b 560 476 604 468 585 476 b 504 419 522 476 517 444 b 400 151 436 286 400 226 b 413 68 400 111 413 90 b 428 42 413 57 413 42 b 433 51 432 42 433 46 b 429 88 433 57 429 79 b 451 108 429 104 439 108 b 482 71 465 108 468 71 b 500 107 497 71 483 107 b 518 81 514 107 518 99 b 513 24 518 72 513 32 b 533 -25 513 -4 533 -4 b 526 -62 533 -33 526 -57 b 539 -74 526 -71 531 -74 b 550 -53 549 -74 550 -64 l 550 -43 b 560 -22 550 -32 550 -22 b 576 -33 564 -22 571 -33 b 588 -15 586 -33 588 -24 b 585 35 588 -1 585 17 b 601 68 585 47 586 60 b 608 75 606 69 608 72 b 604 93 608 82 604 90 b 610 100 604 97 606 100 b 631 75 618 100 618 75 z m 518 158 b 496 181 511 158 503 181 b 479 176 493 181 482 176 b 468 192 472 176 468 185 b 475 201 468 196 471 201 b 488 194 481 201 485 194 b 494 201 493 194 494 197 b 489 229 494 210 489 222 b 493 233 489 232 490 233 b 510 221 499 233 506 221 b 517 235 514 221 517 224 b 514 263 517 249 514 256 b 518 276 514 268 515 276 b 528 253 524 276 528 268 b 518 158 528 206 525 158 z "},"":{"ha":678,"x_min":0,"x_max":0,"o":"m 196 642 b 181 714 196 665 185 692 b 176 768 176 729 176 751 b 194 861 176 799 182 824 b 197 883 196 868 197 876 b 182 963 197 908 182 944 b 190 1010 182 983 190 1000 b 161 1033 190 1024 174 1033 b 60 969 143 1033 113 1019 b 44 928 46 956 44 936 b 75 881 44 892 75 907 b 82 867 75 871 76 867 b 90 874 88 867 90 869 b 89 888 90 876 89 879 b 101 910 89 903 97 910 b 113 892 108 910 113 906 b 97 718 113 851 97 763 b 114 638 97 692 114 657 b 103 564 114 613 103 614 b 119 529 103 549 110 529 b 132 546 129 529 125 546 b 139 529 139 546 139 532 b 135 508 139 524 135 513 b 147 486 135 494 143 486 b 156 493 151 486 156 488 b 153 514 156 496 153 507 b 183 561 153 538 183 525 b 181 588 183 569 181 574 b 196 642 181 615 196 615 z m 540 1028 b 504 1036 540 1036 511 1036 b 456 1013 483 1036 464 1035 b 136 160 394 842 199 340 b 82 -4 115 100 83 6 b 128 -57 82 -22 110 -57 b 176 28 158 -57 175 8 b 492 858 235 189 435 697 b 540 971 500 897 513 940 z m 613 283 b 621 265 619 283 621 274 b 619 250 621 261 619 256 b 629 239 619 243 621 239 b 642 311 639 239 642 289 b 540 481 642 419 613 481 b 444 419 496 481 464 454 b 418 363 418 375 418 369 b 432 304 418 335 421 304 b 443 310 435 304 439 310 b 467 250 457 310 449 250 b 478 299 479 250 478 272 b 476 319 478 300 476 314 b 485 332 476 328 478 332 b 492 324 489 332 492 329 b 489 303 492 311 489 306 b 497 290 489 296 493 290 b 513 350 507 290 500 350 b 528 301 524 350 514 301 b 532 310 531 301 532 304 b 529 353 532 315 529 344 b 546 404 529 367 532 404 b 561 315 558 404 561 331 b 447 124 561 263 501 188 b 407 31 421 93 421 76 b 401 7 404 19 401 13 b 417 -14 401 0 406 -14 b 442 0 426 -14 433 0 b 463 -7 447 0 458 -7 b 471 -6 467 -7 468 -6 b 494 -42 479 -6 482 -42 b 517 -1 507 -42 506 -1 b 546 -69 542 -1 528 -69 b 557 -46 556 -69 557 -60 b 556 -33 557 -42 556 -37 b 572 -4 556 -18 558 -4 b 590 -14 578 -4 585 -14 b 611 -7 597 -12 604 -7 b 622 -21 614 -7 622 -7 b 621 -40 622 -25 621 -37 b 628 -50 621 -47 622 -50 b 636 -31 636 -50 636 -40 b 629 24 636 -17 629 10 b 639 54 629 31 639 47 b 628 65 639 63 632 65 b 613 61 621 65 618 61 b 569 76 600 61 585 76 b 543 69 564 76 549 69 b 528 86 533 69 528 76 b 536 119 528 101 533 111 b 558 167 539 129 542 135 b 585 217 581 210 576 217 b 589 207 588 217 589 214 b 588 188 589 201 588 194 b 594 169 588 171 589 169 b 613 283 604 169 603 283 z "},"":{"ha":726,"x_min":0,"x_max":0,"o":"m 265 588 b 269 626 268 603 269 614 b 264 701 269 650 264 690 b 253 769 264 732 264 747 b 231 804 243 788 231 794 b 264 850 231 817 264 818 b 260 892 264 858 260 881 b 156 1036 260 1017 218 1036 b 54 917 68 1036 54 971 b 58 890 54 908 58 903 b 56 865 58 886 56 879 b 68 838 56 847 58 838 b 82 853 78 838 82 843 b 81 874 82 858 81 868 b 89 889 81 881 82 889 b 110 881 94 889 106 881 b 135 928 128 881 118 928 b 149 915 139 928 144 915 b 168 942 163 915 156 942 b 185 915 179 942 185 932 b 147 838 185 865 168 838 b 135 839 146 838 140 839 b 113 792 122 839 113 818 b 122 756 113 781 114 756 b 136 765 126 756 132 765 b 151 715 153 765 144 746 b 188 678 157 692 188 707 b 151 618 188 649 176 618 b 121 665 132 618 121 638 b 124 690 121 676 124 681 b 121 696 124 694 122 696 b 106 692 117 696 113 692 b 69 701 96 692 78 701 b 44 675 50 701 44 683 b 60 628 44 672 50 657 b 67 596 65 617 67 606 b 64 572 67 588 64 578 b 71 565 64 568 67 565 b 83 568 75 565 79 568 b 132 513 108 568 132 550 b 138 507 132 510 133 507 b 160 536 147 507 151 536 b 167 529 163 536 167 535 b 163 476 167 521 163 496 b 174 457 163 464 165 457 b 185 474 182 457 185 465 b 181 508 185 483 181 489 b 201 546 181 517 193 546 b 210 538 203 546 210 544 b 207 524 210 535 207 526 b 213 518 207 519 210 518 b 219 524 217 518 219 519 b 218 539 219 526 218 535 b 238 574 218 567 229 574 b 253 568 247 574 249 568 b 265 588 258 568 261 574 z m 593 1028 b 557 1036 593 1036 564 1036 b 508 1013 536 1036 517 1035 b 189 160 447 842 251 340 b 135 -4 168 100 136 6 b 181 -57 135 -22 163 -57 b 229 28 211 -57 228 8 b 544 858 288 189 488 697 b 593 971 553 897 565 940 z m 678 75 b 690 107 685 75 690 96 b 685 165 690 118 685 129 b 663 190 685 189 674 186 b 626 274 650 193 626 257 b 642 304 626 282 632 304 b 651 300 646 304 650 300 b 657 313 656 300 657 303 b 640 372 657 342 640 354 b 651 443 640 414 651 426 b 607 476 651 468 632 476 b 551 419 569 476 564 444 b 447 151 483 286 447 226 b 460 68 447 111 460 90 b 475 42 460 57 460 42 b 481 51 479 42 481 46 b 476 88 481 57 476 79 b 499 108 476 104 486 108 b 529 71 513 108 515 71 b 547 107 544 71 531 107 b 565 81 561 107 565 99 b 560 24 565 72 560 32 b 581 -25 560 -4 581 -4 b 574 -62 581 -33 574 -57 b 586 -74 574 -71 578 -74 b 597 -53 596 -74 597 -64 l 597 -43 b 607 -22 597 -32 597 -22 b 624 -33 611 -22 618 -33 b 635 -15 633 -33 635 -24 b 632 35 635 -1 632 17 b 649 68 632 47 633 60 b 656 75 653 69 656 72 b 651 93 656 82 651 90 b 657 100 651 97 653 100 b 678 75 665 100 665 75 z m 565 158 b 543 181 558 158 550 181 b 526 176 540 181 529 176 b 515 192 519 176 515 185 b 522 201 515 196 518 201 b 535 194 528 201 532 194 b 542 201 540 194 542 197 b 536 229 542 210 536 222 b 540 233 536 232 538 233 b 557 221 546 233 553 221 b 564 235 561 221 564 224 b 561 263 564 249 561 256 b 565 276 561 268 563 276 b 575 253 571 276 575 268 b 565 158 575 206 572 158 z "},"":{"ha":406,"x_min":0,"x_max":0,"o":"m 114 900 b 131 853 114 890 131 867 b 119 793 131 853 119 822 l 119 778 b 161 739 129 733 161 756 b 163 699 161 725 163 711 b 144 650 164 674 150 669 l 131 599 l 131 588 b 142 519 131 568 142 531 l 142 511 b 69 310 142 456 88 328 b 3 125 28 268 3 203 b 104 -42 3 47 49 -7 b 146 -119 117 -50 99 -119 b 203 -57 186 -119 146 -57 b 251 -65 215 -57 238 -65 b 304 -199 297 -65 272 -199 b 340 -151 331 -199 340 -164 b 329 -79 340 -129 329 -103 b 407 101 329 -28 407 32 b 349 210 407 151 403 210 b 226 90 231 210 293 90 b 150 172 183 90 150 113 b 206 264 150 189 176 264 b 232 197 226 264 213 197 b 257 218 247 197 257 206 b 254 356 257 264 254 311 b 256 400 254 371 254 385 l 263 432 b 303 600 267 453 303 558 b 278 650 303 607 293 650 b 260 646 274 650 264 646 b 249 736 250 646 249 715 b 292 811 249 763 292 758 l 292 824 b 294 875 292 835 294 858 b 269 918 294 918 278 918 b 251 883 253 918 260 883 b 243 907 249 883 247 888 b 192 932 238 926 233 932 b 161 917 179 932 176 921 b 114 900 146 913 114 921 z m 200 742 b 208 671 203 725 208 690 b 204 656 208 661 207 656 b 186 711 192 656 186 689 b 193 750 186 732 188 750 b 200 742 197 750 199 746 z "},"":{"ha":508,"x_min":0,"x_max":0,"o":"m 174 957 b 115 690 125 957 132 782 b 82 475 89 547 99 532 b 68 414 74 449 68 428 b 75 390 68 401 75 399 b 69 357 75 383 74 372 l 39 231 l 26 169 b 22 68 21 144 22 103 b 13 -32 22 1 13 -7 b 28 -49 13 -43 18 -49 b 64 -14 39 -49 53 -14 b 106 -85 92 -14 69 -85 b 125 -40 125 -85 125 -62 b 178 49 125 46 178 0 b 168 94 178 65 168 83 b 196 131 168 113 196 119 b 188 171 196 150 188 151 b 197 188 188 181 192 188 b 251 138 208 188 233 138 b 290 200 275 138 271 200 b 318 122 311 200 318 167 b 335 11 318 81 333 43 b 361 -110 336 -36 335 -110 b 378 -83 369 -110 378 -101 b 374 -37 378 -68 374 -47 b 382 -12 374 -21 376 -14 b 415 -75 397 -12 396 -75 b 446 -14 436 -75 422 -14 b 458 -31 454 -14 458 -18 b 456 -61 458 -39 456 -51 b 478 -85 456 -76 461 -85 b 513 -28 500 -85 513 -67 b 481 131 513 13 508 28 b 461 247 464 188 461 226 b 431 408 461 304 431 331 b 386 642 431 497 386 636 b 378 743 381 674 378 708 b 383 797 378 758 383 785 b 374 851 382 813 378 833 l 361 897 b 328 954 350 940 353 954 b 247 936 304 954 286 936 b 174 957 219 936 190 953 z m 232 518 b 251 450 247 518 232 450 b 275 499 269 450 261 499 b 286 396 281 499 286 489 b 292 351 286 376 292 361 b 250 333 292 342 282 333 b 207 350 222 333 207 339 b 217 385 207 371 217 379 b 207 422 215 394 207 403 b 232 518 207 456 215 518 z m 338 1014 b 394 1069 361 1014 394 1047 b 194 1233 394 1114 246 1233 b 114 1149 160 1233 114 1185 b 338 1014 114 1099 299 1014 z "},"":{"ha":508,"x_min":0,"x_max":0,"o":"m 174 957 b 115 690 125 957 132 782 b 82 475 89 547 99 532 b 68 414 74 449 68 428 b 75 390 68 401 75 399 b 69 357 75 383 74 372 l 39 231 l 26 169 b 22 68 21 144 22 103 b 13 -32 22 1 13 -7 b 28 -49 13 -43 18 -49 b 64 -14 39 -49 53 -14 b 106 -85 92 -14 69 -85 b 125 -40 125 -85 125 -62 b 178 49 125 46 178 0 b 168 94 178 65 168 83 b 196 131 168 113 196 119 b 188 171 196 150 188 151 b 197 188 188 181 192 188 b 251 138 208 188 233 138 b 290 200 275 138 271 200 b 318 122 311 200 318 167 b 335 11 318 81 333 43 b 361 -110 336 -36 335 -110 b 378 -83 369 -110 378 -101 b 374 -37 378 -68 374 -47 b 382 -12 374 -21 376 -14 b 415 -75 397 -12 396 -75 b 446 -14 436 -75 422 -14 b 458 -31 454 -14 458 -18 b 456 -61 458 -39 456 -51 b 478 -85 456 -76 461 -85 b 513 -28 500 -85 513 -67 b 481 131 513 13 508 28 b 461 247 464 188 461 226 b 431 408 461 304 431 331 b 386 642 431 497 386 636 b 378 743 381 674 378 708 b 383 797 378 758 383 785 b 374 851 382 813 378 833 l 361 897 b 328 954 350 940 353 954 b 247 936 304 954 286 936 b 174 957 219 936 190 953 z m 232 518 b 251 450 247 518 232 450 b 275 499 269 450 261 499 b 286 396 281 499 286 489 b 292 351 286 376 292 361 b 250 333 292 342 282 333 b 207 350 222 333 207 339 b 217 385 207 371 217 379 b 207 422 215 394 207 403 b 232 518 207 456 215 518 z m 301 1035 b 390 1150 321 1035 390 1136 b 314 1233 390 1188 332 1233 b 117 1082 256 1233 154 1122 b 163 1013 117 1050 143 1029 b 275 1043 210 1013 238 1036 b 299 1035 278 1043 297 1036 b 301 1035 300 1035 301 1035 z "},"":{"ha":508,"x_min":0,"x_max":0,"o":"m 174 957 b 115 690 125 957 132 782 b 82 475 89 547 99 532 b 68 414 74 449 68 428 b 75 390 68 401 75 399 b 69 357 75 383 74 372 l 39 231 l 26 169 b 22 68 21 144 22 103 b 13 -32 22 1 13 -7 b 28 -49 13 -43 18 -49 b 64 -14 39 -49 53 -14 b 106 -85 92 -14 69 -85 b 125 -40 125 -85 125 -62 b 178 49 125 46 178 0 b 168 94 178 65 168 83 b 196 131 168 113 196 119 b 188 171 196 150 188 151 b 197 188 188 181 192 188 b 251 138 208 188 233 138 b 290 200 275 138 271 200 b 318 122 311 200 318 167 b 335 11 318 81 333 43 b 361 -110 336 -36 335 -110 b 378 -83 369 -110 378 -101 b 374 -37 378 -68 374 -47 b 382 -12 374 -21 376 -14 b 415 -75 397 -12 396 -75 b 446 -14 436 -75 422 -14 b 458 -31 454 -14 458 -18 b 456 -61 458 -39 456 -51 b 478 -85 456 -76 461 -85 b 513 -28 500 -85 513 -67 b 481 131 513 13 508 28 b 461 247 464 188 461 226 b 431 408 461 304 431 331 b 386 642 431 497 386 636 b 378 743 381 674 378 708 b 383 797 378 758 383 785 b 374 851 382 813 378 833 l 361 897 b 328 954 350 940 353 954 b 247 936 304 954 286 936 b 174 957 219 936 190 953 z m 232 518 b 251 450 247 518 232 450 b 275 499 269 450 261 499 b 286 396 281 499 286 489 b 292 351 286 376 292 361 b 250 333 292 342 282 333 b 207 350 222 333 207 339 b 217 385 207 371 217 379 b 207 422 215 394 207 403 b 232 518 207 456 215 518 z m 208 1233 b 108 1082 174 1233 117 1099 b 174 1029 114 1053 140 1029 b 249 1106 215 1029 218 1106 b 253 1104 250 1106 253 1106 b 332 1036 261 1061 283 1036 b 399 1088 364 1036 399 1051 b 299 1233 399 1115 338 1233 z "},"":{"ha":508,"x_min":0,"x_max":0,"o":"m 174 957 b 115 690 125 957 132 782 b 82 475 89 547 99 532 b 68 414 74 449 68 428 b 75 390 68 401 75 399 b 69 357 75 383 74 372 l 39 231 l 26 169 b 22 68 21 144 22 103 b 13 -32 22 1 13 -7 b 28 -49 13 -43 18 -49 b 64 -14 39 -49 53 -14 b 106 -85 92 -14 69 -85 b 125 -40 125 -85 125 -62 b 178 49 125 46 178 0 b 168 94 178 65 168 83 b 196 131 168 113 196 119 b 188 171 196 150 188 151 b 197 188 188 181 192 188 b 251 138 208 188 233 138 b 290 200 275 138 271 200 b 318 122 311 200 318 167 b 335 11 318 81 333 43 b 361 -110 336 -36 335 -110 b 378 -83 369 -110 378 -101 b 374 -37 378 -68 374 -47 b 382 -12 374 -21 376 -14 b 415 -75 397 -12 396 -75 b 446 -14 436 -75 422 -14 b 458 -31 454 -14 458 -18 b 456 -61 458 -39 456 -51 b 478 -85 456 -76 461 -85 b 513 -28 500 -85 513 -67 b 481 131 513 13 508 28 b 461 247 464 188 461 226 b 431 408 461 304 431 331 b 386 642 431 497 386 636 b 378 743 381 674 378 708 b 383 797 378 758 383 785 b 374 851 382 813 378 833 l 361 897 b 328 954 350 940 353 954 b 247 936 304 954 286 936 b 174 957 219 936 190 953 z m 232 518 b 251 450 247 518 232 450 b 275 499 269 450 261 499 b 286 396 281 499 286 489 b 292 351 286 376 292 361 b 250 333 292 342 282 333 b 207 350 222 333 207 339 b 217 385 207 371 217 379 b 207 422 215 394 207 403 b 232 518 207 456 215 518 z m 432 1053 b 465 1161 468 1053 465 1149 b 400 1206 465 1199 435 1206 b 321 1158 357 1206 358 1158 b 164 1199 265 1158 222 1199 b 40 1094 106 1199 40 1160 b 117 1039 40 1065 93 1039 b 203 1085 149 1039 179 1085 b 329 1053 246 1085 283 1053 b 400 1061 357 1053 376 1061 b 432 1053 411 1061 421 1053 z "},"":{"ha":508,"x_min":0,"x_max":0,"o":"m 174 957 b 115 690 125 957 132 782 b 82 475 89 547 99 532 b 68 414 74 449 68 428 b 75 390 68 401 75 399 b 69 357 75 383 74 372 l 39 231 l 26 169 b 22 68 21 144 22 103 b 13 -32 22 1 13 -7 b 28 -49 13 -43 18 -49 b 64 -14 39 -49 53 -14 b 106 -85 92 -14 69 -85 b 125 -40 125 -85 125 -62 b 178 49 125 46 178 0 b 168 94 178 65 168 83 b 196 131 168 113 196 119 b 188 171 196 150 188 151 b 197 188 188 181 192 188 b 251 138 208 188 233 138 b 290 200 275 138 271 200 b 318 122 311 200 318 167 b 335 11 318 81 333 43 b 361 -110 336 -36 335 -110 b 378 -83 369 -110 378 -101 b 374 -37 378 -68 374 -47 b 382 -12 374 -21 376 -14 b 415 -75 397 -12 396 -75 b 446 -14 436 -75 422 -14 b 458 -31 454 -14 458 -18 b 456 -61 458 -39 456 -51 b 478 -85 456 -76 461 -85 b 513 -28 500 -85 513 -67 b 481 131 513 13 508 28 b 461 247 464 188 461 226 b 431 408 461 304 431 331 b 386 642 431 497 386 636 b 378 743 381 674 378 708 b 383 797 378 758 383 785 b 374 851 382 813 378 833 l 361 897 b 328 954 350 940 353 954 b 247 936 304 954 286 936 b 174 957 219 936 190 953 z m 232 518 b 251 450 247 518 232 450 b 275 499 269 450 261 499 b 286 396 281 499 286 489 b 292 351 286 376 292 361 b 250 333 292 342 282 333 b 207 350 222 333 207 339 b 217 385 207 371 217 379 b 207 422 215 394 207 403 b 232 518 207 456 215 518 z m 97 1222 b 74 1192 89 1222 75 1199 b 168 1033 74 1106 72 1033 b 226 1147 226 1033 226 1111 b 225 1200 226 1156 225 1192 b 194 1222 221 1206 204 1222 z m 414 1050 l 436 1074 l 436 1201 b 358 1225 436 1225 374 1225 b 293 1201 333 1225 307 1224 b 285 1113 288 1165 285 1144 b 331 1043 285 1088 299 1043 z "},"":{"ha":508,"x_min":0,"x_max":0,"o":"m 174 957 b 115 690 125 957 132 782 b 82 475 89 547 99 532 b 68 414 74 449 68 428 b 75 390 68 401 75 399 b 69 357 75 383 74 372 l 39 231 l 26 169 b 22 68 21 144 22 103 b 13 -32 22 1 13 -7 b 28 -49 13 -43 18 -49 b 64 -14 39 -49 53 -14 b 106 -85 92 -14 69 -85 b 125 -40 125 -85 125 -62 b 178 49 125 46 178 0 b 168 94 178 65 168 83 b 196 131 168 113 196 119 b 188 171 196 150 188 151 b 197 188 188 181 192 188 b 251 138 208 188 233 138 b 290 200 275 138 271 200 b 318 122 311 200 318 167 b 335 11 318 81 333 43 b 361 -110 336 -36 335 -110 b 378 -83 369 -110 378 -101 b 374 -37 378 -68 374 -47 b 382 -12 374 -21 376 -14 b 415 -75 397 -12 396 -75 b 446 -14 436 -75 422 -14 b 458 -31 454 -14 458 -18 b 456 -61 458 -39 456 -51 b 478 -85 456 -76 461 -85 b 513 -28 500 -85 513 -67 b 481 131 513 13 508 28 b 461 247 464 188 461 226 b 431 408 461 304 431 331 b 386 642 431 497 386 636 b 378 743 381 674 378 708 b 383 797 378 758 383 785 b 374 851 382 813 378 833 l 361 897 b 328 954 350 940 353 954 b 247 936 304 954 286 936 b 174 957 219 936 190 953 z m 232 518 b 251 450 247 518 232 450 b 275 499 269 450 261 499 b 286 396 281 499 286 489 b 292 351 286 376 292 361 b 250 333 292 342 282 333 b 207 350 222 333 207 339 b 217 385 207 371 217 379 b 207 422 215 394 207 403 b 232 518 207 456 215 518 z m 281 981 b 303 999 281 988 282 990 b 386 1125 374 1026 386 1036 b 253 1233 386 1208 326 1233 b 121 1108 168 1233 121 1199 b 274 975 121 1044 214 975 b 281 981 281 975 281 976 z m 228 1082 b 204 1125 213 1093 204 1106 b 224 1143 204 1139 208 1143 b 253 1135 235 1143 243 1135 b 292 1151 268 1135 278 1151 b 304 1132 303 1151 304 1140 b 228 1082 304 1078 285 1082 z "},"":{"ha":771,"x_min":0,"x_max":0,"o":"m 756 103 b 713 146 756 124 733 146 b 693 144 706 146 700 144 b 619 156 675 144 639 156 b 588 154 607 156 596 154 b 508 206 528 154 508 183 b 528 278 508 221 528 258 b 518 368 528 343 518 356 b 536 382 518 379 524 382 b 565 376 546 382 556 376 b 603 331 581 376 586 331 b 632 382 626 331 603 382 b 674 304 667 382 646 304 b 707 365 686 304 707 340 b 681 488 707 386 681 458 b 693 536 681 501 693 526 b 669 569 693 556 683 569 b 611 567 663 569 632 569 b 558 557 606 567 563 557 b 485 686 538 557 485 604 b 522 761 485 729 492 761 b 540 758 528 761 532 758 b 589 793 556 758 558 793 b 640 768 606 793 622 779 b 654 718 644 761 647 750 b 669 707 656 711 661 707 b 699 799 697 707 674 799 b 711 708 707 799 711 757 b 708 656 711 703 708 667 b 728 635 708 642 715 635 b 756 661 747 635 756 644 b 736 875 756 711 736 839 b 719 944 736 926 729 944 b 683 935 700 944 693 935 b 654 942 674 935 668 942 b 607 926 635 942 621 926 b 542 949 586 926 561 949 b 514 939 528 949 524 939 b 431 950 479 939 463 950 b 350 936 411 950 388 936 b 278 957 322 936 294 957 b 193 690 229 957 219 782 b 139 475 153 547 163 532 b 119 410 126 446 119 424 b 124 392 119 401 124 399 b 117 357 124 386 121 374 b 40 68 47 146 49 107 b 21 -36 26 0 21 -8 b 35 -49 21 -44 26 -49 b 72 -14 44 -49 63 -14 b 107 -85 100 -14 71 -85 b 132 -40 126 -85 129 -62 b 193 54 140 49 193 -4 b 188 94 193 68 188 85 b 219 135 189 115 219 119 b 214 171 219 150 214 153 b 225 188 215 181 221 188 b 276 138 238 188 257 138 b 321 200 299 138 301 200 b 342 153 336 200 342 181 b 339 104 342 139 339 119 b 347 11 339 69 347 39 b 343 -58 347 -11 343 -36 b 361 -110 343 -89 347 -110 b 442 -15 394 -108 404 -15 b 467 -32 446 -15 467 -21 b 460 -65 467 -40 460 -56 b 479 -85 460 -78 464 -85 b 490 -82 483 -85 488 -83 b 521 -106 497 -94 506 -106 b 540 -75 532 -106 540 -101 b 532 -46 540 -67 532 -57 b 568 -10 532 -37 546 -10 b 628 -112 592 -10 607 -114 b 642 -97 640 -112 642 -108 b 626 -31 642 -61 631 -54 b 656 -1 626 -14 639 -1 b 725 -15 672 -1 715 -15 b 746 8 739 -15 746 -8 b 743 53 746 29 743 46 b 756 103 743 65 756 88 z m 294 518 b 300 511 299 518 300 517 b 297 472 300 504 297 488 b 306 450 297 461 300 450 b 333 499 324 450 321 499 b 340 475 338 499 340 496 b 335 388 340 460 335 432 b 336 356 335 375 336 364 b 293 333 336 344 332 333 b 251 350 264 333 251 339 b 265 385 254 371 264 379 b 258 417 264 393 258 401 b 294 518 258 449 278 518 z "},"":{"ha":546,"x_min":0,"x_max":0,"o":"m 250 974 b 126 910 232 974 214 947 b 47 726 74 886 47 825 b 56 367 47 593 56 464 b 39 243 56 293 39 275 b 46 233 39 238 40 233 b 58 242 51 233 53 242 b 63 225 63 242 63 235 b 54 186 63 219 54 200 b 67 158 54 172 67 175 b 60 118 67 144 60 138 b 72 78 60 89 64 78 b 83 93 81 78 79 93 b 117 18 92 93 97 35 b 138 8 122 13 131 11 b 172 -57 157 1 157 -57 b 194 -11 192 -57 174 -11 b 231 -99 226 -11 211 -99 b 272 -29 267 -99 242 -29 b 319 -83 288 -29 308 -83 b 342 -36 332 -83 335 -42 b 404 8 356 -15 392 -4 b 490 136 465 65 490 93 b 488 189 490 158 488 175 b 517 301 488 232 517 265 b 482 350 517 326 506 347 b 456 339 476 350 465 339 b 424 347 443 339 435 347 b 396 336 414 347 407 336 b 361 350 386 336 374 350 b 349 329 353 350 349 342 b 351 289 349 317 351 308 b 289 115 351 239 340 118 b 257 126 279 115 267 126 b 224 121 249 126 229 121 b 194 156 208 121 194 131 b 203 203 194 172 194 188 b 211 219 208 208 211 214 b 192 258 211 233 192 249 b 211 278 192 265 194 272 b 240 315 233 286 240 304 b 235 389 240 321 235 342 b 219 439 235 408 229 425 b 193 494 199 467 193 481 b 214 597 193 521 214 567 b 200 661 214 621 200 618 b 210 681 200 668 200 681 b 233 675 219 681 224 675 b 251 700 243 675 251 686 b 229 757 251 711 229 736 b 250 779 229 768 239 779 b 265 751 263 779 265 768 b 263 704 265 738 263 719 b 286 640 263 693 265 640 b 304 668 300 640 304 653 b 294 738 304 689 294 719 b 315 799 294 772 304 799 b 335 689 332 799 335 754 b 333 660 335 675 333 667 b 360 586 333 611 349 607 b 381 540 369 568 358 540 b 414 615 413 540 382 615 b 439 594 419 615 432 594 b 457 604 443 594 451 604 b 486 568 461 604 476 568 b 506 594 500 568 506 582 b 499 647 506 608 499 617 b 507 735 499 669 507 715 b 403 922 507 804 456 906 b 250 974 356 942 276 974 z m 358 -143 b 332 -122 358 -125 347 -122 b 294 -124 328 -122 317 -124 b 208 -110 232 -124 222 -110 b 186 -126 200 -110 186 -114 b 189 -151 186 -133 189 -146 b 174 -200 189 -171 174 -186 b 207 -267 174 -229 189 -267 b 231 -231 226 -267 221 -231 b 244 -251 243 -231 244 -239 b 213 -312 244 -264 240 -278 b 204 -347 207 -319 204 -331 b 242 -408 204 -381 219 -408 b 304 -304 263 -408 265 -356 b 354 -215 326 -274 354 -247 b 342 -178 354 -210 342 -193 b 358 -143 342 -169 358 -151 z "},"":{"ha":485,"x_min":0,"x_max":0,"o":"m 465 99 b 422 142 465 119 443 142 b 403 140 415 142 408 140 b 329 151 385 140 349 151 b 297 150 317 151 306 150 b 218 201 238 150 218 179 b 238 275 218 217 238 254 b 228 364 238 339 228 353 b 246 378 228 375 233 378 b 275 372 256 378 265 372 b 313 326 290 372 296 326 b 342 378 336 326 313 378 b 383 301 376 378 356 301 b 417 361 396 301 417 336 b 390 483 417 382 390 454 b 403 532 390 497 403 522 b 379 567 403 551 393 567 b 321 563 372 567 342 567 b 268 553 315 563 272 553 b 194 682 247 553 194 600 b 232 757 194 725 201 757 b 250 754 238 757 242 754 b 299 789 265 754 268 789 b 350 764 315 789 332 776 b 364 714 354 757 357 746 b 379 703 365 707 371 703 b 408 794 407 703 383 794 b 421 704 417 794 421 753 b 418 651 421 700 418 663 b 438 631 418 638 425 631 b 465 657 457 631 465 640 b 446 871 465 707 446 835 b 429 940 446 922 439 940 b 393 931 408 940 403 931 b 364 938 383 931 378 938 b 317 922 344 938 331 922 b 251 944 296 922 271 944 b 224 936 238 944 233 936 b 188 949 214 936 200 949 b 136 936 167 949 161 936 b 108 938 126 936 114 938 b 56 906 78 938 56 928 b 69 868 56 894 69 878 b 65 843 69 861 65 850 b 72 794 65 829 72 806 b 69 746 72 782 69 760 b 83 679 69 726 83 689 b 65 563 83 644 65 610 b 46 461 65 532 63 490 b 40 435 40 449 40 442 b 53 411 40 426 42 411 b 72 415 58 411 67 415 b 93 396 88 415 93 408 b 75 308 93 389 75 342 b 65 121 75 265 65 165 l 65 90 b 64 56 65 81 64 63 l 64 29 b 83 -32 67 18 58 -32 b 106 -24 89 -32 100 -24 b 146 -44 115 -24 136 -44 b 172 -24 158 -44 168 -24 b 231 -110 196 -24 188 -110 b 250 -79 242 -110 250 -106 b 242 -50 250 -69 242 -61 b 276 -14 242 -40 256 -14 b 338 -117 301 -14 317 -118 b 351 -101 350 -117 351 -112 b 336 -35 351 -65 340 -58 b 365 -6 336 -18 349 -6 b 435 -19 382 -6 425 -19 b 456 4 449 -19 456 -12 b 453 49 456 25 453 42 b 465 99 453 61 465 83 z m 326 1014 b 383 1069 350 1014 383 1047 b 183 1233 383 1114 235 1233 b 103 1149 149 1233 103 1185 b 326 1014 103 1099 288 1014 z "},"":{"ha":485,"x_min":0,"x_max":0,"o":"m 465 99 b 422 142 465 119 443 142 b 403 140 415 142 408 140 b 329 151 385 140 349 151 b 297 150 317 151 306 150 b 218 201 238 150 218 179 b 238 275 218 217 238 254 b 228 364 238 339 228 353 b 246 378 228 375 233 378 b 275 372 256 378 265 372 b 313 326 290 372 296 326 b 342 378 336 326 313 378 b 383 301 376 378 356 301 b 417 361 396 301 417 336 b 390 483 417 382 390 454 b 403 532 390 497 403 522 b 379 567 403 551 393 567 b 321 563 372 567 342 567 b 268 553 315 563 272 553 b 194 682 247 553 194 600 b 232 757 194 725 201 757 b 250 754 238 757 242 754 b 299 789 265 754 268 789 b 350 764 315 789 332 776 b 364 714 354 757 357 746 b 379 703 365 707 371 703 b 408 794 407 703 383 794 b 421 704 417 794 421 753 b 418 651 421 700 418 663 b 438 631 418 638 425 631 b 465 657 457 631 465 640 b 446 871 465 707 446 835 b 429 940 446 922 439 940 b 393 931 408 940 403 931 b 364 938 383 931 378 938 b 317 922 344 938 331 922 b 251 944 296 922 271 944 b 224 936 238 944 233 936 b 188 949 214 936 200 949 b 136 936 167 949 161 936 b 108 938 126 936 114 938 b 56 906 78 938 56 928 b 69 868 56 894 69 878 b 65 843 69 861 65 850 b 72 794 65 829 72 806 b 69 746 72 782 69 760 b 83 679 69 726 83 689 b 65 563 83 644 65 610 b 46 461 65 532 63 490 b 40 435 40 449 40 442 b 53 411 40 426 42 411 b 72 415 58 411 67 415 b 93 396 88 415 93 408 b 75 308 93 389 75 342 b 65 121 75 265 65 165 l 65 90 b 64 56 65 81 64 63 l 64 29 b 83 -32 67 18 58 -32 b 106 -24 89 -32 100 -24 b 146 -44 115 -24 136 -44 b 172 -24 158 -44 168 -24 b 231 -110 196 -24 188 -110 b 250 -79 242 -110 250 -106 b 242 -50 250 -69 242 -61 b 276 -14 242 -40 256 -14 b 338 -117 301 -14 317 -118 b 351 -101 350 -117 351 -112 b 336 -35 351 -65 340 -58 b 365 -6 336 -18 349 -6 b 435 -19 382 -6 425 -19 b 456 4 449 -19 456 -12 b 453 49 456 25 453 42 b 465 99 453 61 465 83 z m 290 1035 b 379 1150 310 1035 379 1136 b 303 1233 379 1188 321 1233 b 106 1082 244 1233 143 1122 b 151 1013 106 1050 132 1029 b 264 1043 199 1013 226 1036 b 288 1035 267 1043 286 1036 b 290 1035 289 1035 290 1035 z "},"":{"ha":485,"x_min":0,"x_max":0,"o":"m 465 99 b 422 142 465 119 443 142 b 403 140 415 142 408 140 b 329 151 385 140 349 151 b 297 150 317 151 306 150 b 218 201 238 150 218 179 b 238 275 218 217 238 254 b 228 364 238 339 228 353 b 246 378 228 375 233 378 b 275 372 256 378 265 372 b 313 326 290 372 296 326 b 342 378 336 326 313 378 b 383 301 376 378 356 301 b 417 361 396 301 417 336 b 390 483 417 382 390 454 b 403 532 390 497 403 522 b 379 567 403 551 393 567 b 321 563 372 567 342 567 b 268 553 315 563 272 553 b 194 682 247 553 194 600 b 232 757 194 725 201 757 b 250 754 238 757 242 754 b 299 789 265 754 268 789 b 350 764 315 789 332 776 b 364 714 354 757 357 746 b 379 703 365 707 371 703 b 408 794 407 703 383 794 b 421 704 417 794 421 753 b 418 651 421 700 418 663 b 438 631 418 638 425 631 b 465 657 457 631 465 640 b 446 871 465 707 446 835 b 429 940 446 922 439 940 b 393 931 408 940 403 931 b 364 938 383 931 378 938 b 317 922 344 938 331 922 b 251 944 296 922 271 944 b 224 936 238 944 233 936 b 188 949 214 936 200 949 b 136 936 167 949 161 936 b 108 938 126 936 114 938 b 56 906 78 938 56 928 b 69 868 56 894 69 878 b 65 843 69 861 65 850 b 72 794 65 829 72 806 b 69 746 72 782 69 760 b 83 679 69 726 83 689 b 65 563 83 644 65 610 b 46 461 65 532 63 490 b 40 435 40 449 40 442 b 53 411 40 426 42 411 b 72 415 58 411 67 415 b 93 396 88 415 93 408 b 75 308 93 389 75 342 b 65 121 75 265 65 165 l 65 90 b 64 56 65 81 64 63 l 64 29 b 83 -32 67 18 58 -32 b 106 -24 89 -32 100 -24 b 146 -44 115 -24 136 -44 b 172 -24 158 -44 168 -24 b 231 -110 196 -24 188 -110 b 250 -79 242 -110 250 -106 b 242 -50 250 -69 242 -61 b 276 -14 242 -40 256 -14 b 338 -117 301 -14 317 -118 b 351 -101 350 -117 351 -112 b 336 -35 351 -65 340 -58 b 365 -6 336 -18 349 -6 b 435 -19 382 -6 425 -19 b 456 4 449 -19 456 -12 b 453 49 456 25 453 42 b 465 99 453 61 465 83 z m 197 1233 b 97 1082 163 1233 106 1099 b 163 1029 103 1053 129 1029 b 238 1106 204 1029 207 1106 b 242 1104 239 1106 242 1106 b 321 1036 250 1061 272 1036 b 388 1088 353 1036 388 1051 b 288 1233 388 1115 326 1233 z "},"":{"ha":485,"x_min":0,"x_max":0,"o":"m 465 99 b 422 142 465 119 443 142 b 403 140 415 142 408 140 b 329 151 385 140 349 151 b 297 150 317 151 306 150 b 218 201 238 150 218 179 b 238 275 218 217 238 254 b 228 364 238 339 228 353 b 246 378 228 375 233 378 b 275 372 256 378 265 372 b 313 326 290 372 296 326 b 342 378 336 326 313 378 b 383 301 376 378 356 301 b 417 361 396 301 417 336 b 390 483 417 382 390 454 b 403 532 390 497 403 522 b 379 567 403 551 393 567 b 321 563 372 567 342 567 b 268 553 315 563 272 553 b 194 682 247 553 194 600 b 232 757 194 725 201 757 b 250 754 238 757 242 754 b 299 789 265 754 268 789 b 350 764 315 789 332 776 b 364 714 354 757 357 746 b 379 703 365 707 371 703 b 408 794 407 703 383 794 b 421 704 417 794 421 753 b 418 651 421 700 418 663 b 438 631 418 638 425 631 b 465 657 457 631 465 640 b 446 871 465 707 446 835 b 429 940 446 922 439 940 b 393 931 408 940 403 931 b 364 938 383 931 378 938 b 317 922 344 938 331 922 b 251 944 296 922 271 944 b 224 936 238 944 233 936 b 188 949 214 936 200 949 b 136 936 167 949 161 936 b 108 938 126 936 114 938 b 56 906 78 938 56 928 b 69 868 56 894 69 878 b 65 843 69 861 65 850 b 72 794 65 829 72 806 b 69 746 72 782 69 760 b 83 679 69 726 83 689 b 65 563 83 644 65 610 b 46 461 65 532 63 490 b 40 435 40 449 40 442 b 53 411 40 426 42 411 b 72 415 58 411 67 415 b 93 396 88 415 93 408 b 75 308 93 389 75 342 b 65 121 75 265 65 165 l 65 90 b 64 56 65 81 64 63 l 64 29 b 83 -32 67 18 58 -32 b 106 -24 89 -32 100 -24 b 146 -44 115 -24 136 -44 b 172 -24 158 -44 168 -24 b 231 -110 196 -24 188 -110 b 250 -79 242 -110 250 -106 b 242 -50 250 -69 242 -61 b 276 -14 242 -40 256 -14 b 338 -117 301 -14 317 -118 b 351 -101 350 -117 351 -112 b 336 -35 351 -65 340 -58 b 365 -6 336 -18 349 -6 b 435 -19 382 -6 425 -19 b 456 4 449 -19 456 -12 b 453 49 456 25 453 42 b 465 99 453 61 465 83 z m 86 1222 b 63 1192 78 1222 64 1199 b 157 1033 63 1106 61 1033 b 215 1147 215 1033 215 1111 b 214 1200 215 1156 214 1192 b 183 1222 210 1206 193 1222 z m 403 1050 l 425 1074 l 425 1201 b 347 1225 425 1225 363 1225 b 282 1201 322 1225 296 1224 b 274 1113 276 1165 274 1144 b 319 1043 274 1088 288 1043 z "},"":{"ha":289,"x_min":0,"x_max":0,"o":"m 250 583 b 257 600 254 583 257 589 b 229 783 257 640 229 743 b 251 881 229 814 251 847 b 179 946 251 925 204 946 b 138 936 165 946 151 936 b 81 949 121 936 92 949 b 50 919 63 949 50 938 b 60 860 50 903 56 885 b 39 781 60 840 39 800 b 53 747 39 763 40 765 b 74 697 72 718 71 707 b 67 633 74 683 67 643 b 75 511 67 625 75 579 b 40 376 75 461 40 421 b 69 303 40 335 69 331 b 56 186 69 283 56 244 b 40 75 56 133 40 78 b 67 6 40 53 43 36 b 89 -29 83 -15 89 -21 b 86 -78 89 -33 86 -56 b 100 -94 86 -90 92 -94 b 138 -22 122 -94 115 -22 b 146 -56 144 -22 146 -33 b 144 -122 146 -69 144 -108 b 154 -158 144 -146 147 -158 b 182 -108 175 -158 182 -124 b 174 -31 182 -97 174 -46 b 235 1 174 -6 235 -32 b 217 49 235 8 217 39 b 224 118 217 63 224 94 b 222 168 224 128 222 153 b 235 265 222 206 235 243 b 214 385 235 303 214 363 b 222 488 214 393 222 421 b 211 561 222 513 211 538 b 236 585 211 582 226 585 b 250 583 240 585 246 583 z m 228 1014 b 285 1069 251 1014 285 1047 b 85 1233 285 1114 136 1233 b 4 1149 50 1233 4 1185 b 228 1014 4 1099 189 1014 z "},"":{"ha":289,"x_min":0,"x_max":0,"o":"m 250 583 b 257 600 254 583 257 589 b 229 783 257 640 229 743 b 251 881 229 814 251 847 b 179 946 251 925 204 946 b 138 936 165 946 151 936 b 81 949 121 936 92 949 b 50 919 63 949 50 938 b 60 860 50 903 56 885 b 39 781 60 840 39 800 b 53 747 39 763 40 765 b 74 697 72 718 71 707 b 67 633 74 683 67 643 b 75 511 67 625 75 579 b 40 376 75 461 40 421 b 69 303 40 335 69 331 b 56 186 69 283 56 244 b 40 75 56 133 40 78 b 67 6 40 53 43 36 b 89 -29 83 -15 89 -21 b 86 -78 89 -33 86 -56 b 100 -94 86 -90 92 -94 b 138 -22 122 -94 115 -22 b 146 -56 144 -22 146 -33 b 144 -122 146 -69 144 -108 b 154 -158 144 -146 147 -158 b 182 -108 175 -158 182 -124 b 174 -31 182 -97 174 -46 b 235 1 174 -6 235 -32 b 217 49 235 8 217 39 b 224 118 217 63 224 94 b 222 168 224 128 222 153 b 235 265 222 206 235 243 b 214 385 235 303 214 363 b 222 488 214 393 222 421 b 211 561 222 513 211 538 b 236 585 211 582 226 585 b 250 583 240 585 246 583 z m 193 1035 b 282 1150 213 1035 282 1136 b 206 1233 282 1188 224 1233 b 8 1082 147 1233 46 1122 b 54 1013 8 1050 35 1029 b 167 1043 101 1013 129 1036 b 190 1035 169 1043 189 1036 b 193 1035 192 1035 193 1035 z "},"":{"ha":289,"x_min":0,"x_max":0,"o":"m 250 583 b 257 600 254 583 257 589 b 229 783 257 640 229 743 b 251 881 229 814 251 847 b 179 946 251 925 204 946 b 138 936 165 946 151 936 b 81 949 121 936 92 949 b 50 919 63 949 50 938 b 60 860 50 903 56 885 b 39 781 60 840 39 800 b 53 747 39 763 40 765 b 74 697 72 718 71 707 b 67 633 74 683 67 643 b 75 511 67 625 75 579 b 40 376 75 461 40 421 b 69 303 40 335 69 331 b 56 186 69 283 56 244 b 40 75 56 133 40 78 b 67 6 40 53 43 36 b 89 -29 83 -15 89 -21 b 86 -78 89 -33 86 -56 b 100 -94 86 -90 92 -94 b 138 -22 122 -94 115 -22 b 146 -56 144 -22 146 -33 b 144 -122 146 -69 144 -108 b 154 -158 144 -146 147 -158 b 182 -108 175 -158 182 -124 b 174 -31 182 -97 174 -46 b 235 1 174 -6 235 -32 b 217 49 235 8 217 39 b 224 118 217 63 224 94 b 222 168 224 128 222 153 b 235 265 222 206 235 243 b 214 385 235 303 214 363 b 222 488 214 393 222 421 b 211 561 222 513 211 538 b 236 585 211 582 226 585 b 250 583 240 585 246 583 z m 100 1233 b 0 1082 65 1233 8 1099 b 65 1029 6 1053 32 1029 b 140 1106 107 1029 110 1106 b 144 1104 142 1106 144 1106 b 224 1036 153 1061 175 1036 b 290 1088 256 1036 290 1051 b 190 1233 290 1115 229 1233 z "},"":{"ha":289,"x_min":0,"x_max":0,"o":"m 250 583 b 257 600 254 583 257 589 b 229 783 257 640 229 743 b 251 881 229 814 251 847 b 179 946 251 925 204 946 b 138 936 165 946 151 936 b 81 949 121 936 92 949 b 50 919 63 949 50 938 b 60 860 50 903 56 885 b 39 781 60 840 39 800 b 53 747 39 763 40 765 b 74 697 72 718 71 707 b 67 633 74 683 67 643 b 75 511 67 625 75 579 b 40 376 75 461 40 421 b 69 303 40 335 69 331 b 56 186 69 283 56 244 b 40 75 56 133 40 78 b 67 6 40 53 43 36 b 89 -29 83 -15 89 -21 b 86 -78 89 -33 86 -56 b 100 -94 86 -90 92 -94 b 138 -22 122 -94 115 -22 b 146 -56 144 -22 146 -33 b 144 -122 146 -69 144 -108 b 154 -158 144 -146 147 -158 b 182 -108 175 -158 182 -124 b 174 -31 182 -97 174 -46 b 235 1 174 -6 235 -32 b 217 49 235 8 217 39 b 224 118 217 63 224 94 b 222 168 224 128 222 153 b 235 265 222 206 235 243 b 214 385 235 303 214 363 b 222 488 214 393 222 421 b 211 561 222 513 211 538 b 236 585 211 582 226 585 b 250 583 240 585 246 583 z m -12 1222 b -36 1192 -21 1222 -35 1199 b 58 1033 -36 1106 -37 1033 b 117 1147 117 1033 117 1111 b 115 1200 117 1156 115 1192 b 85 1222 111 1206 94 1222 z m 304 1050 l 326 1074 l 326 1201 b 249 1225 326 1225 264 1225 b 183 1201 224 1225 197 1224 b 175 1113 178 1165 175 1144 b 221 1043 175 1088 189 1043 z "},"":{"ha":567,"x_min":0,"x_max":0,"o":"m 522 313 b 531 446 522 325 531 376 b 490 635 531 508 490 579 b 514 722 490 667 514 613 b 356 921 514 838 432 915 b 279 940 325 924 308 939 b 224 925 265 940 239 925 b 171 946 208 925 186 946 b 114 933 146 946 133 933 b 82 936 110 933 88 936 b 36 885 46 936 36 914 b 40 825 36 872 40 863 b 89 735 40 778 89 767 b 69 642 89 696 69 697 b 81 582 69 621 81 604 b 61 504 81 557 79 504 b 13 518 42 504 31 518 b -28 461 -14 518 -28 490 b 42 367 -28 410 6 382 b 54 351 51 363 54 357 b 49 315 54 342 49 331 b 67 272 49 308 51 301 b 74 247 72 263 74 258 b 65 182 74 233 65 196 b 72 49 65 171 72 125 b 61 -1 72 38 61 13 b 72 -21 61 -14 65 -21 b 90 -14 76 -21 85 -14 b 107 -44 107 -14 107 -40 b 101 -90 107 -54 101 -75 b 126 -115 101 -110 119 -115 b 146 -93 140 -115 146 -107 b 125 -39 146 -78 125 -50 b 158 3 125 -29 132 3 b 267 -36 189 3 231 -36 b 304 -18 282 -36 292 -18 b 371 -97 339 -18 353 -97 b 381 -79 378 -97 381 -90 b 378 -53 381 -68 378 -57 b 400 -11 378 -33 383 -11 b 454 -47 426 -11 439 -47 b 471 -26 465 -47 471 -40 b 469 7 471 -10 469 -1 b 504 68 469 63 504 22 b 496 126 504 101 496 97 b 526 174 496 144 526 146 b 514 235 526 189 514 229 b 518 271 514 242 517 258 b 522 313 522 301 522 307 z m 267 514 b 240 540 250 514 240 525 b 211 649 240 571 211 642 b 224 710 211 674 224 690 b 217 757 224 725 217 733 b 229 794 217 765 218 794 b 250 758 239 794 250 775 b 243 715 250 749 243 725 b 275 674 243 692 256 674 b 282 683 279 674 282 676 b 274 736 282 696 274 722 b 283 751 274 747 276 751 b 304 722 303 751 304 740 b 303 669 304 710 303 696 b 294 583 303 633 294 633 b 306 561 294 568 299 561 b 347 613 326 561 324 613 b 374 568 368 613 374 594 b 367 306 374 525 367 525 b 310 151 367 201 350 151 b 204 257 229 151 217 153 b 221 275 204 264 208 275 b 240 271 224 275 239 271 b 250 283 247 271 250 275 b 231 332 250 303 242 301 b 263 375 254 356 244 375 b 304 340 267 375 289 340 b 324 368 324 340 324 360 b 322 394 324 382 322 385 b 344 454 322 408 344 435 b 267 514 344 496 301 514 z "},"":{"ha":603,"x_min":0,"x_max":0,"o":"m 563 263 b 540 331 563 279 540 326 b 543 365 540 344 543 353 b 522 482 543 389 522 465 b 542 554 522 499 531 540 b 582 622 560 574 582 590 b 544 774 582 676 544 722 b 564 857 544 790 564 844 b 489 954 564 914 538 954 b 374 892 436 954 374 936 b 399 789 374 867 399 818 b 383 640 399 757 383 721 b 401 519 383 588 401 529 b 390 447 401 489 390 474 b 371 426 390 432 382 426 b 346 486 350 426 346 446 b 351 511 346 493 351 501 b 329 571 351 538 331 563 b 308 721 324 594 329 681 b 240 867 265 806 240 807 b 246 919 240 885 246 900 b 175 957 246 944 224 957 b 78 890 106 957 78 926 b 86 801 78 867 86 829 b 63 719 86 792 63 749 b 86 625 63 685 86 657 b 63 504 86 593 63 522 b 86 400 63 492 86 435 b 49 281 86 356 49 321 b 60 193 49 250 60 206 b 38 74 60 149 38 114 b 40 25 38 57 40 42 b 38 -35 40 13 38 -1 b 69 -121 38 -67 56 -121 b 88 -81 74 -121 88 -115 b 76 -32 88 -68 76 -40 b 101 -12 76 -17 92 -12 b 158 -78 111 -12 154 -18 b 175 -108 160 -97 167 -108 b 193 -87 188 -108 193 -101 b 190 -40 193 -78 190 -61 b 217 19 190 -33 217 -8 b 208 83 217 39 208 40 b 194 157 208 103 194 138 b 215 214 194 176 215 194 b 206 293 215 243 206 279 b 211 349 206 315 211 332 b 203 421 211 371 203 397 b 225 464 203 447 214 464 b 274 279 254 464 274 360 b 264 136 274 224 264 179 b 275 107 264 117 268 107 b 306 167 285 107 306 124 b 336 224 306 206 314 224 b 353 203 347 224 353 218 b 340 118 353 164 340 153 b 378 40 340 79 357 72 b 424 -60 396 10 404 -60 b 451 -19 435 -60 435 -19 b 471 -83 461 -19 471 -35 b 469 -111 471 -89 469 -104 b 492 -137 469 -128 478 -137 b 517 -115 503 -137 517 -132 b 507 -53 517 -100 507 -64 b 514 -36 507 -49 510 -42 b 539 25 536 -4 539 10 b 531 139 539 57 531 39 b 546 225 531 165 532 201 b 563 263 554 238 563 250 z m 479 1053 b 513 1161 515 1053 513 1149 b 447 1206 513 1199 482 1206 b 368 1158 404 1206 406 1158 b 211 1199 313 1158 269 1199 b 88 1094 153 1199 88 1160 b 164 1039 88 1065 140 1039 b 250 1085 196 1039 226 1085 b 376 1053 293 1085 331 1053 b 447 1061 404 1053 424 1061 b 479 1053 458 1061 468 1053 z "},"":{"ha":554,"x_min":0,"x_max":0,"o":"m 236 764 b 276 711 258 764 263 711 b 314 786 293 711 299 786 b 343 746 336 786 343 765 b 331 650 343 714 331 686 b 349 461 331 565 349 517 b 340 411 349 444 346 428 b 329 340 329 375 329 367 b 332 247 329 321 332 271 b 331 201 332 224 331 207 b 335 164 331 192 335 171 b 278 108 335 133 310 108 b 221 176 250 108 250 117 b 210 208 214 189 210 199 b 238 392 210 265 238 310 b 218 528 238 415 218 497 b 224 617 218 547 224 558 b 213 719 224 647 213 681 b 236 764 213 736 219 764 z m 236 972 b 54 840 215 972 75 926 b 31 739 51 831 31 771 b 40 678 31 708 40 699 b 7 485 40 646 7 519 b 49 326 7 425 49 363 b 25 165 49 294 25 213 b 65 -14 25 106 47 -14 b 82 1 75 -14 82 -10 b 81 22 82 6 81 13 b 101 56 81 38 85 56 b 147 -19 111 56 124 49 b 196 -124 169 -83 164 -119 b 242 -46 218 -124 214 -46 b 283 -74 263 -46 272 -74 b 313 -56 294 -74 297 -56 b 332 -118 329 -56 328 -75 b 356 -164 335 -161 346 -164 b 396 -36 394 -164 358 -36 b 432 -86 411 -36 414 -86 b 468 74 451 -86 468 -26 b 507 324 468 175 507 140 l 507 375 b 531 686 507 468 531 544 b 486 864 531 785 517 826 b 236 972 442 917 317 972 z m 360 1014 b 417 1069 383 1014 417 1047 b 217 1233 417 1114 268 1233 b 136 1149 182 1233 136 1185 b 360 1014 136 1099 321 1014 z "},"":{"ha":554,"x_min":0,"x_max":0,"o":"m 236 764 b 276 711 258 764 263 711 b 314 786 293 711 299 786 b 343 746 336 786 343 765 b 331 650 343 714 331 686 b 349 461 331 565 349 517 b 340 411 349 444 346 428 b 329 340 329 375 329 367 b 332 247 329 321 332 271 b 331 201 332 224 331 207 b 335 164 331 192 335 171 b 278 108 335 133 310 108 b 221 176 250 108 250 117 b 210 208 214 189 210 199 b 238 392 210 265 238 310 b 218 528 238 415 218 497 b 224 617 218 547 224 558 b 213 719 224 647 213 681 b 236 764 213 736 219 764 z m 236 972 b 54 840 215 972 75 926 b 31 739 51 831 31 771 b 40 678 31 708 40 699 b 7 485 40 646 7 519 b 49 326 7 425 49 363 b 25 165 49 294 25 213 b 65 -14 25 106 47 -14 b 82 1 75 -14 82 -10 b 81 22 82 6 81 13 b 101 56 81 38 85 56 b 147 -19 111 56 124 49 b 196 -124 169 -83 164 -119 b 242 -46 218 -124 214 -46 b 283 -74 263 -46 272 -74 b 313 -56 294 -74 297 -56 b 332 -118 329 -56 328 -75 b 356 -164 335 -161 346 -164 b 396 -36 394 -164 358 -36 b 432 -86 411 -36 414 -86 b 468 74 451 -86 468 -26 b 507 324 468 175 507 140 l 507 375 b 531 686 507 468 531 544 b 486 864 531 785 517 826 b 236 972 442 917 317 972 z m 325 1035 b 414 1150 344 1035 414 1136 b 338 1233 414 1188 356 1233 b 140 1082 279 1233 178 1122 b 186 1013 140 1050 167 1029 b 299 1043 233 1013 261 1036 b 322 1035 301 1043 321 1036 b 325 1035 324 1035 325 1035 z "},"":{"ha":554,"x_min":0,"x_max":0,"o":"m 236 764 b 276 711 258 764 263 711 b 314 786 293 711 299 786 b 343 746 336 786 343 765 b 331 650 343 714 331 686 b 349 461 331 565 349 517 b 340 411 349 444 346 428 b 329 340 329 375 329 367 b 332 247 329 321 332 271 b 331 201 332 224 331 207 b 335 164 331 192 335 171 b 278 108 335 133 310 108 b 221 176 250 108 250 117 b 210 208 214 189 210 199 b 238 392 210 265 238 310 b 218 528 238 415 218 497 b 224 617 218 547 224 558 b 213 719 224 647 213 681 b 236 764 213 736 219 764 z m 236 972 b 54 840 215 972 75 926 b 31 739 51 831 31 771 b 40 678 31 708 40 699 b 7 485 40 646 7 519 b 49 326 7 425 49 363 b 25 165 49 294 25 213 b 65 -14 25 106 47 -14 b 82 1 75 -14 82 -10 b 81 22 82 6 81 13 b 101 56 81 38 85 56 b 147 -19 111 56 124 49 b 196 -124 169 -83 164 -119 b 242 -46 218 -124 214 -46 b 283 -74 263 -46 272 -74 b 313 -56 294 -74 297 -56 b 332 -118 329 -56 328 -75 b 356 -164 335 -161 346 -164 b 396 -36 394 -164 358 -36 b 432 -86 411 -36 414 -86 b 468 74 451 -86 468 -26 b 507 324 468 175 507 140 l 507 375 b 531 686 507 468 531 544 b 486 864 531 785 517 826 b 236 972 442 917 317 972 z m 232 1233 b 132 1082 197 1233 140 1099 b 197 1029 138 1053 164 1029 b 272 1106 239 1029 242 1106 b 276 1104 274 1106 276 1106 b 356 1036 285 1061 307 1036 b 422 1088 388 1036 422 1051 b 322 1233 422 1115 361 1233 z "},"":{"ha":554,"x_min":0,"x_max":0,"o":"m 236 764 b 276 711 258 764 263 711 b 314 786 293 711 299 786 b 343 746 336 786 343 765 b 331 650 343 714 331 686 b 349 461 331 565 349 517 b 340 411 349 444 346 428 b 329 340 329 375 329 367 b 332 247 329 321 332 271 b 331 201 332 224 331 207 b 335 164 331 192 335 171 b 278 108 335 133 310 108 b 221 176 250 108 250 117 b 210 208 214 189 210 199 b 238 392 210 265 238 310 b 218 528 238 415 218 497 b 224 617 218 547 224 558 b 213 719 224 647 213 681 b 236 764 213 736 219 764 z m 236 972 b 54 840 215 972 75 926 b 31 739 51 831 31 771 b 40 678 31 708 40 699 b 7 485 40 646 7 519 b 49 326 7 425 49 363 b 25 165 49 294 25 213 b 65 -14 25 106 47 -14 b 82 1 75 -14 82 -10 b 81 22 82 6 81 13 b 101 56 81 38 85 56 b 147 -19 111 56 124 49 b 196 -124 169 -83 164 -119 b 242 -46 218 -124 214 -46 b 283 -74 263 -46 272 -74 b 313 -56 294 -74 297 -56 b 332 -118 329 -56 328 -75 b 356 -164 335 -161 346 -164 b 396 -36 394 -164 358 -36 b 432 -86 411 -36 414 -86 b 468 74 451 -86 468 -26 b 507 324 468 175 507 140 l 507 375 b 531 686 507 468 531 544 b 486 864 531 785 517 826 b 236 972 442 917 317 972 z m 456 1053 b 489 1161 492 1053 489 1149 b 424 1206 489 1199 458 1206 b 344 1158 381 1206 382 1158 b 188 1199 289 1158 246 1199 b 64 1094 129 1199 64 1160 b 140 1039 64 1065 117 1039 b 226 1085 172 1039 203 1085 b 353 1053 269 1085 307 1053 b 424 1061 381 1053 400 1061 b 456 1053 435 1061 444 1053 z "},"":{"ha":554,"x_min":0,"x_max":0,"o":"m 236 764 b 276 711 258 764 263 711 b 314 786 293 711 299 786 b 343 746 336 786 343 765 b 331 650 343 714 331 686 b 349 461 331 565 349 517 b 340 411 349 444 346 428 b 329 340 329 375 329 367 b 332 247 329 321 332 271 b 331 201 332 224 331 207 b 335 164 331 192 335 171 b 278 108 335 133 310 108 b 221 176 250 108 250 117 b 210 208 214 189 210 199 b 238 392 210 265 238 310 b 218 528 238 415 218 497 b 224 617 218 547 224 558 b 213 719 224 647 213 681 b 236 764 213 736 219 764 z m 236 972 b 54 840 215 972 75 926 b 31 739 51 831 31 771 b 40 678 31 708 40 699 b 7 485 40 646 7 519 b 49 326 7 425 49 363 b 25 165 49 294 25 213 b 65 -14 25 106 47 -14 b 82 1 75 -14 82 -10 b 81 22 82 6 81 13 b 101 56 81 38 85 56 b 147 -19 111 56 124 49 b 196 -124 169 -83 164 -119 b 242 -46 218 -124 214 -46 b 283 -74 263 -46 272 -74 b 313 -56 294 -74 297 -56 b 332 -118 329 -56 328 -75 b 356 -164 335 -161 346 -164 b 396 -36 394 -164 358 -36 b 432 -86 411 -36 414 -86 b 468 74 451 -86 468 -26 b 507 324 468 175 507 140 l 507 375 b 531 686 507 468 531 544 b 486 864 531 785 517 826 b 236 972 442 917 317 972 z m 119 1222 b 96 1192 111 1222 97 1199 b 190 1033 96 1106 94 1033 b 249 1147 249 1033 249 1111 b 247 1200 249 1156 247 1192 b 217 1222 243 1206 226 1222 z m 436 1050 l 458 1074 l 458 1201 b 381 1225 458 1225 396 1225 b 315 1201 356 1225 329 1224 b 307 1113 310 1165 307 1144 b 353 1043 307 1088 321 1043 z "},"":{"ha":521,"x_min":0,"x_max":0,"o":"m 214 293 l 214 369 b 263 400 214 379 256 400 l 271 400 b 435 232 319 372 386 232 b 506 325 467 232 506 292 b 490 354 506 338 503 340 b 361 490 471 375 382 469 l 361 514 b 461 582 361 563 443 549 b 506 679 472 604 503 675 b 436 749 506 710 467 749 b 414 740 429 749 422 747 l 271 604 l 249 604 l 104 740 b 82 749 96 747 90 749 b 13 674 46 749 13 706 b 157 496 13 593 157 556 l 157 490 b 13 319 125 460 13 375 b 96 218 13 304 68 218 b 143 293 131 218 118 293 z "},"":{"ha":554,"x_min":0,"x_max":0,"o":"m 408 1022 b 338 953 382 1022 360 953 b 236 972 303 964 267 972 b 54 840 215 972 75 926 b 31 739 51 831 31 771 b 40 678 31 708 40 699 b 7 485 40 646 7 519 b 49 326 7 425 49 363 b 25 165 49 294 25 213 b 39 40 25 132 39 79 b -7 -72 39 -12 -7 -40 b 14 -128 -7 -87 -3 -86 b 35 -153 18 -140 28 -153 b 67 -122 44 -153 57 -122 b 106 -235 94 -122 71 -235 b 136 -51 132 -235 110 -51 b 169 -99 146 -51 150 -94 b 196 -124 174 -114 181 -121 b 242 -46 218 -124 214 -46 b 283 -74 263 -46 272 -74 b 313 -56 294 -74 297 -56 b 332 -118 329 -56 328 -75 b 356 -164 335 -161 346 -164 b 396 -36 394 -164 358 -36 b 432 -86 411 -36 414 -86 b 468 74 451 -86 468 -26 b 507 324 468 175 507 140 l 507 375 b 531 686 507 468 531 544 b 506 856 531 782 506 821 b 526 972 506 899 526 938 b 408 1022 526 1003 433 1022 z m 349 461 b 340 411 349 444 346 428 b 329 340 329 375 329 367 b 332 247 329 321 332 271 b 331 201 332 224 331 207 b 335 164 331 192 335 171 b 278 108 335 133 310 108 b 221 192 243 108 221 163 b 332 486 221 246 317 486 b 349 461 340 486 349 478 z m 236 764 b 276 711 258 764 263 711 b 307 769 289 711 294 769 b 315 756 308 769 315 767 b 243 542 315 736 278 624 b 231 531 239 533 235 531 b 221 549 224 531 221 539 b 224 617 221 564 224 581 b 213 719 224 647 213 681 b 236 764 213 736 219 764 z "},"":{"ha":568,"x_min":0,"x_max":0,"o":"m 386 960 b 324 911 364 960 324 960 b 350 742 324 869 350 767 b 338 575 350 682 338 629 b 351 304 338 501 351 432 b 294 135 351 174 328 135 b 196 260 274 135 196 163 b 206 379 196 279 200 331 b 239 688 210 425 239 558 b 224 858 239 744 232 792 b 124 972 211 954 182 972 b 24 910 94 972 24 951 b 54 821 24 875 50 871 b 56 772 56 808 56 792 b 33 528 56 678 33 606 b 39 390 33 481 39 432 b 36 289 39 354 36 322 b 139 25 36 199 65 106 b 183 -81 185 -25 183 -67 b 175 -190 183 -100 175 -139 b 204 -226 175 -215 185 -226 b 240 -186 232 -226 240 -201 b 224 -60 240 -128 224 -81 b 240 -33 224 -39 231 -33 b 278 -57 247 -33 268 -57 b 308 -36 293 -57 294 -37 b 335 -61 324 -36 335 -50 b 331 -100 335 -65 331 -83 b 356 -129 331 -118 335 -129 b 382 -103 371 -129 382 -122 b 374 -50 382 -89 374 -78 b 406 11 374 -28 383 -7 b 496 96 461 58 492 88 b 515 224 514 139 515 144 b 514 301 515 250 514 278 b 521 382 514 336 521 354 b 501 536 521 435 501 507 b 506 603 501 561 506 576 b 501 671 506 622 501 650 b 547 842 501 735 547 782 b 518 953 547 915 539 953 b 476 942 503 953 497 942 b 386 960 457 942 418 960 z m 367 1014 b 424 1069 390 1014 424 1047 b 224 1233 424 1114 275 1233 b 143 1149 189 1233 143 1185 b 367 1014 143 1099 328 1014 z "},"":{"ha":568,"x_min":0,"x_max":0,"o":"m 386 960 b 324 911 364 960 324 960 b 350 742 324 869 350 767 b 338 575 350 682 338 629 b 351 304 338 501 351 432 b 294 135 351 174 328 135 b 196 260 274 135 196 163 b 206 379 196 279 200 331 b 239 688 210 425 239 558 b 224 858 239 744 232 792 b 124 972 211 954 182 972 b 24 910 94 972 24 951 b 54 821 24 875 50 871 b 56 772 56 808 56 792 b 33 528 56 678 33 606 b 39 390 33 481 39 432 b 36 289 39 354 36 322 b 139 25 36 199 65 106 b 183 -81 185 -25 183 -67 b 175 -190 183 -100 175 -139 b 204 -226 175 -215 185 -226 b 240 -186 232 -226 240 -201 b 224 -60 240 -128 224 -81 b 240 -33 224 -39 231 -33 b 278 -57 247 -33 268 -57 b 308 -36 293 -57 294 -37 b 335 -61 324 -36 335 -50 b 331 -100 335 -65 331 -83 b 356 -129 331 -118 335 -129 b 382 -103 371 -129 382 -122 b 374 -50 382 -89 374 -78 b 406 11 374 -28 383 -7 b 496 96 461 58 492 88 b 515 224 514 139 515 144 b 514 301 515 250 514 278 b 521 382 514 336 521 354 b 501 536 521 435 501 507 b 506 603 501 561 506 576 b 501 671 506 622 501 650 b 547 842 501 735 547 782 b 518 953 547 915 539 953 b 476 942 503 953 497 942 b 386 960 457 942 418 960 z m 332 1035 b 421 1150 351 1035 421 1136 b 344 1233 421 1188 363 1233 b 147 1082 286 1233 185 1122 b 193 1013 147 1050 174 1029 b 306 1043 240 1013 268 1036 b 329 1035 308 1043 328 1036 b 332 1035 331 1035 332 1035 z "},"":{"ha":568,"x_min":0,"x_max":0,"o":"m 386 960 b 324 911 364 960 324 960 b 350 742 324 869 350 767 b 338 575 350 682 338 629 b 351 304 338 501 351 432 b 294 135 351 174 328 135 b 196 260 274 135 196 163 b 206 379 196 279 200 331 b 239 688 210 425 239 558 b 224 858 239 744 232 792 b 124 972 211 954 182 972 b 24 910 94 972 24 951 b 54 821 24 875 50 871 b 56 772 56 808 56 792 b 33 528 56 678 33 606 b 39 390 33 481 39 432 b 36 289 39 354 36 322 b 139 25 36 199 65 106 b 183 -81 185 -25 183 -67 b 175 -190 183 -100 175 -139 b 204 -226 175 -215 185 -226 b 240 -186 232 -226 240 -201 b 224 -60 240 -128 224 -81 b 240 -33 224 -39 231 -33 b 278 -57 247 -33 268 -57 b 308 -36 293 -57 294 -37 b 335 -61 324 -36 335 -50 b 331 -100 335 -65 331 -83 b 356 -129 331 -118 335 -129 b 382 -103 371 -129 382 -122 b 374 -50 382 -89 374 -78 b 406 11 374 -28 383 -7 b 496 96 461 58 492 88 b 515 224 514 139 515 144 b 514 301 515 250 514 278 b 521 382 514 336 521 354 b 501 536 521 435 501 507 b 506 603 501 561 506 576 b 501 671 506 622 501 650 b 547 842 501 735 547 782 b 518 953 547 915 539 953 b 476 942 503 953 497 942 b 386 960 457 942 418 960 z m 239 1233 b 139 1082 204 1233 147 1099 b 204 1029 144 1053 171 1029 b 279 1106 246 1029 249 1106 b 283 1104 281 1106 283 1106 b 363 1036 292 1061 314 1036 b 429 1088 394 1036 429 1051 b 329 1233 429 1115 368 1233 z "},"":{"ha":568,"x_min":0,"x_max":0,"o":"m 386 960 b 324 911 364 960 324 960 b 350 742 324 869 350 767 b 338 575 350 682 338 629 b 351 304 338 501 351 432 b 294 135 351 174 328 135 b 196 260 274 135 196 163 b 206 379 196 279 200 331 b 239 688 210 425 239 558 b 224 858 239 744 232 792 b 124 972 211 954 182 972 b 24 910 94 972 24 951 b 54 821 24 875 50 871 b 56 772 56 808 56 792 b 33 528 56 678 33 606 b 39 390 33 481 39 432 b 36 289 39 354 36 322 b 139 25 36 199 65 106 b 183 -81 185 -25 183 -67 b 175 -190 183 -100 175 -139 b 204 -226 175 -215 185 -226 b 240 -186 232 -226 240 -201 b 224 -60 240 -128 224 -81 b 240 -33 224 -39 231 -33 b 278 -57 247 -33 268 -57 b 308 -36 293 -57 294 -37 b 335 -61 324 -36 335 -50 b 331 -100 335 -65 331 -83 b 356 -129 331 -118 335 -129 b 382 -103 371 -129 382 -122 b 374 -50 382 -89 374 -78 b 406 11 374 -28 383 -7 b 496 96 461 58 492 88 b 515 224 514 139 515 144 b 514 301 515 250 514 278 b 521 382 514 336 521 354 b 501 536 521 435 501 507 b 506 603 501 561 506 576 b 501 671 506 622 501 650 b 547 842 501 735 547 782 b 518 953 547 915 539 953 b 476 942 503 953 497 942 b 386 960 457 942 418 960 z m 126 1222 b 103 1192 118 1222 104 1199 b 197 1033 103 1106 101 1033 b 256 1147 256 1033 256 1111 b 254 1200 256 1156 254 1192 b 224 1222 250 1206 233 1222 z m 443 1050 l 465 1074 l 465 1201 b 388 1225 465 1225 403 1225 b 322 1201 363 1225 336 1224 b 314 1113 317 1165 314 1144 b 360 1043 314 1088 328 1043 z "},"":{"ha":451,"x_min":0,"x_max":0,"o":"m 407 975 b 301 925 374 975 301 961 b 307 871 301 903 307 883 b 269 788 307 831 285 817 b 219 700 253 758 253 700 b 186 849 197 700 194 828 b 64 961 150 944 121 961 b 0 960 53 961 26 960 b -33 910 -29 960 -33 939 b 7 786 -33 889 -18 851 b 58 575 40 700 18 651 b 150 260 144 408 150 358 b 144 71 150 150 144 111 b 150 8 144 54 147 33 b 190 -96 163 -85 171 -96 b 232 -19 210 -96 208 -19 b 258 -67 250 -19 258 -28 b 249 -183 258 -137 249 -162 b 274 -217 249 -204 253 -217 b 301 -186 293 -217 301 -208 b 294 -121 301 -169 294 -146 b 303 -17 294 -106 303 -75 b 294 200 303 32 294 119 b 301 342 294 231 301 292 b 318 382 301 368 307 382 b 356 339 335 382 340 339 b 378 389 375 339 378 361 b 372 483 378 406 372 428 b 396 649 372 614 382 649 b 421 618 407 649 421 635 b 413 561 421 592 413 582 b 435 539 413 547 422 539 b 458 700 458 539 458 643 b 449 801 458 746 449 785 b 469 910 449 811 469 857 b 407 975 469 951 444 975 z m 274 1035 b 363 1150 293 1035 363 1136 b 286 1233 363 1188 304 1233 b 89 1082 228 1233 126 1122 b 135 1013 89 1050 115 1029 b 247 1043 182 1013 210 1036 b 271 1035 250 1043 269 1036 b 274 1035 272 1035 274 1035 z "},"":{"ha":533,"x_min":0,"x_max":0,"o":"m 532 447 b 557 504 550 463 557 483 b 493 674 557 542 511 619 b 338 815 460 769 422 815 b 238 849 300 815 238 822 b 250 888 238 865 250 878 b 179 946 250 928 200 946 b 138 936 165 946 151 936 b 81 949 121 936 92 949 b 50 919 63 949 50 938 b 60 860 50 903 60 885 b 39 781 60 840 39 808 b 60 728 39 757 60 754 b 39 657 60 711 39 676 b 71 547 39 608 71 568 b 42 388 71 449 42 433 b 67 286 42 319 67 329 b 58 197 67 263 58 246 b 40 75 58 133 40 113 b 72 -22 40 36 67 13 b 100 -94 81 -71 90 -94 b 138 -22 122 -94 115 -22 b 146 -56 144 -22 146 -33 b 144 -122 146 -69 144 -108 b 179 -161 144 -146 156 -161 b 203 -135 186 -161 203 -157 b 192 -67 203 -124 192 -74 b 235 1 192 -17 235 -21 b 224 40 235 13 224 33 b 246 93 224 54 246 86 b 231 126 246 103 238 114 b 222 203 224 140 222 179 b 253 235 222 225 228 235 b 354 214 271 235 343 233 b 376 178 368 189 364 176 b 393 204 390 178 393 196 b 465 311 393 254 444 274 b 496 422 494 365 472 400 b 532 447 507 433 519 436 z m 250 583 b 257 600 254 583 257 589 b 250 643 257 606 250 621 b 260 650 250 647 251 650 b 281 626 275 650 281 642 b 271 550 281 610 271 569 b 292 518 271 539 278 518 b 328 568 308 518 304 568 b 347 497 343 568 347 549 b 263 371 347 442 307 371 b 213 407 244 371 213 388 b 229 471 213 435 229 431 b 222 507 229 481 222 496 b 246 538 222 519 246 519 b 222 574 246 556 222 561 b 236 585 222 582 232 585 b 250 583 240 585 246 583 z "}}}
